<svg width="800" height="800" viewBox="0 0 800 800" fill="none" xmlns="http://www.w3.org/2000/svg">
<circle cx="399.978" cy="396.721" r="215.721" fill="black"/>
<path d="M399.98 190.307C515.652 190.307 609.52 284.042 609.52 399.847C609.52 515.652 515.785 609.387 399.98 609.387C284.175 609.387 190.44 515.52 190.44 399.847C190.44 284.175 284.308 190.307 399.98 190.307ZM399.98 181C370.464 181 341.745 186.85 314.755 198.151C301.725 203.603 289.227 210.383 277.527 218.361C265.959 226.205 255.057 235.113 245.085 245.085C235.246 254.924 226.205 265.827 218.361 277.527C210.516 289.227 203.736 301.725 198.151 314.755C186.717 341.745 181 370.331 181 399.98C181 429.629 186.85 458.215 198.151 485.205C203.603 498.235 210.383 510.733 218.361 522.433C226.205 534.001 235.113 544.903 245.085 554.875C254.924 564.714 265.827 573.755 277.527 581.599C289.227 589.444 301.725 596.357 314.755 601.809C341.745 613.243 370.331 618.96 399.98 618.96C429.629 618.96 458.215 613.11 485.205 601.809C498.235 596.357 510.733 589.577 522.433 581.599C534.001 573.755 544.903 564.847 554.875 554.875C564.714 545.036 573.755 534.134 581.599 522.433C589.444 510.733 596.224 498.235 601.809 485.205C613.243 458.215 618.96 429.629 618.96 399.98C618.96 370.331 613.11 341.745 601.809 314.755C596.357 301.725 589.577 289.227 581.599 277.527C573.755 265.959 564.847 255.057 554.875 245.085C545.036 235.246 534.134 226.205 522.433 218.361C510.733 210.516 498.235 203.736 485.205 198.151C458.215 186.717 429.629 181 399.98 181Z" fill="white"/>
<path d="M399.981 269.683C471.777 269.683 530.145 327.918 530.145 399.848C530.145 471.777 471.91 530.012 399.981 530.012C328.051 530.012 269.816 471.777 269.816 399.848C269.816 327.918 328.051 269.683 399.981 269.683ZM399.981 260.509C381.234 260.509 362.886 264.232 345.734 271.411C329.115 278.458 314.223 288.43 301.459 301.194C288.696 313.957 278.591 328.849 271.677 345.468C264.364 362.62 260.775 380.835 260.775 399.715C260.775 418.595 264.497 436.81 271.677 453.961C278.724 470.581 288.696 485.472 301.459 498.236C314.223 511 329.115 521.104 345.734 528.018C362.886 535.331 381.101 538.921 399.981 538.921C418.86 538.921 437.076 535.198 454.227 528.018C470.847 520.971 485.738 511 498.502 498.236C511.265 485.472 521.37 470.581 528.284 453.961C535.597 436.81 539.186 418.595 539.186 399.715C539.186 380.835 535.464 362.62 528.284 345.468C521.237 328.849 511.265 313.957 498.502 301.194C485.738 288.43 470.847 278.325 454.227 271.411C437.076 264.099 418.86 260.509 399.981 260.509Z" fill="white"/>
<path d="M342.28 399.85C342.28 370.466 364.351 346.135 392.803 342.678V387.485C388.549 390.011 385.624 394.532 385.624 399.85C385.624 405.168 388.549 409.822 392.803 412.215V457.021C364.351 453.431 342.28 429.233 342.28 399.85ZM407.163 412.215C411.417 409.689 414.342 405.168 414.342 399.85C414.342 394.532 411.417 389.878 407.163 387.485V342.678C435.616 346.268 457.686 370.466 457.686 399.85C457.686 429.233 435.616 453.564 407.163 457.021V412.215ZM399.983 500.897C420.99 500.897 440.535 494.382 456.756 483.48C457.42 483.081 457.553 482.15 457.155 481.485L450.507 472.045C450.507 472.045 449.177 471.248 448.512 471.647C436.546 479.757 422.453 484.942 407.296 486.272V471.78C443.726 468.19 472.179 437.344 472.179 399.983C472.179 362.622 443.726 331.776 407.296 328.186V313.694C451.304 317.284 486.006 353.847 486.671 398.52C486.671 399.318 487.336 399.983 488.134 399.983H499.701C500.498 399.983 501.163 399.318 501.163 398.52C500.366 343.343 455.426 298.936 400.116 298.936C379.109 298.936 359.564 305.45 343.343 316.353C342.679 316.752 342.546 317.682 342.945 318.347L349.592 327.787C349.592 327.787 350.922 328.585 351.587 328.186C363.553 320.076 377.646 314.89 392.803 313.561V328.053C356.373 331.643 327.92 362.489 327.92 399.85C327.92 437.211 356.373 468.057 392.803 471.647V486.139C348.795 482.549 314.093 445.986 313.428 401.312C313.428 400.515 312.763 399.85 311.966 399.85H300.398C299.601 399.85 298.936 400.515 298.936 401.312C299.734 456.489 344.673 500.897 399.983 500.897Z" fill="white"/>
<path d="M225.538 421.915C219.688 421.915 214.103 419.655 209.982 415.4C205.86 411.279 203.467 405.694 203.467 399.844C203.467 393.994 205.727 388.41 209.849 384.288C213.97 380.167 219.555 377.773 225.405 377.773C231.255 377.773 236.839 380.034 240.961 384.288C245.082 388.41 247.476 393.994 247.476 399.844C247.476 411.943 237.637 421.915 225.405 421.915H225.538ZM225.538 380.167C220.352 380.167 215.433 382.161 211.71 385.884C207.987 389.607 205.993 394.526 205.993 399.711C205.993 404.897 207.987 409.816 211.71 413.539C215.433 417.262 220.352 419.256 225.538 419.256C236.307 419.256 245.082 410.481 245.082 399.578C245.082 394.393 243.088 389.474 239.365 385.751C235.642 382.028 230.723 380.034 225.538 380.034V380.167Z" fill="white"/>
<path d="M246.276 398.645H204.661V401.038H246.276V398.645Z" fill="white"/>
<path d="M225.539 393.331C219.689 393.331 214.104 391.07 209.983 386.816C209.85 386.683 209.717 386.55 209.451 386.284L211.312 384.688L211.578 384.954C215.301 388.677 220.22 390.672 225.539 390.672C230.857 390.672 235.643 388.677 239.366 384.954L239.632 384.688L241.494 386.284C241.494 386.284 241.228 386.683 241.095 386.816C236.84 390.937 231.389 393.331 225.539 393.331Z" fill="white"/>
<path d="M239.765 415C239.765 415 239.499 414.734 239.366 414.601C235.643 410.878 230.724 408.884 225.539 408.884C220.353 408.884 215.434 410.878 211.578 414.601C211.578 414.601 211.312 414.867 211.312 415L209.451 413.405C209.451 413.405 209.717 413.006 209.983 412.873C214.104 408.751 219.689 406.358 225.539 406.358C231.389 406.358 236.973 408.618 241.095 412.873C241.228 413.006 241.494 413.272 241.626 413.405L239.765 415Z" fill="white"/>
<path d="M226.736 378.969H224.343V420.584H226.736V378.969Z" fill="white"/>
<path d="M225.275 421.915C218.627 421.915 213.441 412.076 213.707 399.711C213.84 387.346 219.291 377.773 225.939 377.773C229.263 377.773 232.321 380.3 234.449 384.687C236.443 388.809 237.64 394.26 237.507 399.977C237.374 412.342 232.055 421.915 225.408 421.915H225.275ZM225.806 380.167C220.754 380.167 216.233 389.075 216.101 399.578C215.968 410.215 220.222 419.256 225.275 419.256C230.327 419.256 234.847 410.348 234.98 399.844C234.98 394.526 234.05 389.474 232.188 385.618C230.46 382.028 228.2 380.167 225.806 380.034V380.167Z" fill="white"/>
<path d="M574.287 421.915C568.437 421.915 562.853 419.655 558.731 415.4C554.61 411.279 552.217 405.694 552.217 399.844C552.217 393.994 554.477 388.41 558.598 384.288C562.72 380.167 568.304 377.773 574.154 377.773C580.005 377.773 585.589 380.034 589.71 384.288C593.832 388.41 596.225 393.994 596.225 399.844C596.225 411.943 586.386 421.915 574.154 421.915H574.287ZM574.287 380.167C569.102 380.167 564.183 382.161 560.46 385.884C556.737 389.607 554.743 394.526 554.743 399.711C554.743 404.897 556.737 409.816 560.46 413.539C564.183 417.262 569.102 419.256 574.287 419.256C585.057 419.256 593.832 410.481 593.832 399.578C593.832 394.393 591.838 389.474 588.115 385.751C584.392 382.028 579.473 380.034 574.287 380.034V380.167Z" fill="white"/>
<path d="M595.157 398.645H553.542V401.038H595.157V398.645Z" fill="white"/>
<path d="M574.42 393.331C568.57 393.331 562.986 391.07 558.864 386.816C558.731 386.683 558.598 386.55 558.332 386.284L560.193 384.688L560.459 384.954C564.182 388.677 569.102 390.672 574.42 390.672C579.738 390.672 584.525 388.677 588.247 384.954L588.513 384.688L590.375 386.284C590.375 386.284 590.109 386.683 589.976 386.816C585.721 390.937 580.27 393.331 574.42 393.331Z" fill="white"/>
<path d="M588.518 415C588.518 415 588.252 414.734 588.119 414.601C584.396 410.878 579.477 408.884 574.292 408.884C569.106 408.884 564.187 410.878 560.331 414.601C560.331 414.601 560.065 414.867 560.065 415L558.204 413.405C558.204 413.405 558.47 413.006 558.736 412.873C562.857 408.751 568.442 406.358 574.292 406.358C580.142 406.358 585.726 408.618 589.848 412.873C589.981 413.006 590.246 413.272 590.379 413.405L588.518 415Z" fill="white"/>
<path d="M575.49 378.969H573.096V420.584H575.49V378.969Z" fill="white"/>
<path d="M574.156 421.915C567.508 421.915 562.323 412.076 562.589 399.711C562.722 387.346 568.173 377.773 574.821 377.773C578.145 377.773 581.203 380.3 583.33 384.687C585.324 388.809 586.521 394.26 586.388 399.977C586.255 412.342 580.937 421.915 574.289 421.915H574.156ZM574.555 380.167C569.502 380.167 564.982 389.075 564.849 399.578C564.716 410.215 568.971 419.256 574.023 419.256C579.075 419.256 583.596 410.348 583.729 399.844C583.729 394.526 582.798 389.474 580.937 385.618C579.208 382.028 576.948 380.167 574.555 380.034V380.167Z" fill="white"/>
<path d="M244.822 331.641C248.279 332.837 250.007 336.161 247.88 342.543L243.891 354.509L222.485 347.197L226.607 335.098C228.734 328.849 231.925 327.918 234.85 328.849C237.11 329.646 237.908 331.242 238.174 333.236H238.44C240.168 331.508 242.295 330.71 244.822 331.508V331.641ZM228.734 342.942L232.988 344.405L234.983 338.554C235.648 336.427 235.249 335.231 233.919 334.699C232.59 334.3 231.393 334.965 230.728 337.092L228.734 342.942ZM241.897 337.092C240.434 336.56 239.237 337.358 238.44 339.485L236.445 345.601L241.232 347.197L243.226 341.081C243.891 338.953 243.226 337.491 241.764 336.959L241.897 337.092Z" fill="white"/>
<path d="M262.235 305.712L256.651 314.753L259.044 317.678L255.72 322.996L240.962 303.851L245.483 296.671L269.282 301.191L265.958 306.51L262.235 305.712ZM257.582 304.781L248.408 302.787L247.876 303.718L253.726 311.03L257.582 304.648V304.781Z" fill="white"/>
<path d="M261.182 275.661L265.436 271.273L277.934 283.505L286.842 274.464L290.432 278.054L277.27 291.483L261.049 275.661H261.182Z" fill="white"/>
<path d="M287.638 250.936L292.691 247.479L302.53 261.972L313.033 254.792L315.958 259.047L300.402 269.683L287.638 251.069V250.936Z" fill="white"/>
<path d="M318.608 231.921L336.557 224.342L338.418 228.863L326.053 234.048L327.649 237.904L339.482 232.852L341.078 236.707L329.244 241.76L330.973 245.748L343.338 240.563L345.199 245.084L327.25 252.662L318.475 231.788L318.608 231.921Z" fill="white"/>
<path d="M374.987 237.903L370.466 232.186L363.819 233.383L365.015 239.764L359.032 240.828L354.91 218.624L367.009 216.364C372.993 215.3 376.848 217.428 377.779 222.746C378.311 225.804 377.247 228.33 375.386 229.926L380.97 236.706L375.12 237.77L374.987 237.903ZM362.888 228.995L368.605 227.931C370.998 227.532 372.062 226.07 371.663 224.076C371.264 221.948 369.802 221.151 367.408 221.549L361.691 222.613L362.888 228.995Z" fill="white"/>
<path d="M416.864 214.371L422.847 215.301L420.188 232.586L432.686 234.447L431.888 239.499L413.274 236.707L416.731 214.371H416.864Z" fill="white"/>
<path d="M452.498 221.415L470.713 228.195L468.985 232.849L456.487 228.195L455.024 232.184L467.123 236.705L465.661 240.693L453.562 236.173L452.099 240.161L464.597 244.815L462.869 249.468L444.654 242.688L452.631 221.548L452.498 221.415Z" fill="white"/>
<path d="M491.591 261.571L482.683 255.854L479.758 258.114L474.44 254.79L493.851 240.431L501.031 244.951L496.112 268.618L490.793 265.294L491.591 261.704V261.571ZM492.788 256.784L494.915 247.61L493.984 247.079L486.539 252.796L492.788 256.784Z" fill="white"/>
<path d="M521.372 292.682L518.846 290.156L521.106 287.896C518.447 288.427 515.256 287.497 512.464 284.705C507.677 279.785 507.544 272.606 512.464 267.553C517.516 262.501 524.563 262.767 529.881 268.085C533.471 271.675 535.332 276.993 531.875 281.912L527.621 277.658C528.418 275.929 527.887 273.669 526.158 271.941C523.366 269.149 519.51 269.016 516.585 271.941C513.66 274.733 513.66 278.722 516.319 281.381C517.649 282.71 520.308 284.439 523.1 282.71L518.846 278.456L521.505 275.796L529.881 284.306L521.239 292.815L521.372 292.682Z" fill="white"/>
<path d="M537.988 298.797L549.156 292.017L552.347 297.202L541.312 303.85C538.52 305.578 537.589 307.971 539.317 310.896C541.046 313.822 543.705 314.22 546.497 312.492L557.532 305.844L560.723 311.029L549.555 317.81C543.572 321.533 538.653 319.805 534.93 313.689C531.207 307.44 532.005 302.387 537.988 298.797Z" fill="white"/>
<path d="M568.71 328.581L574.959 347.062L570.305 348.658L566.051 336.027L562.062 337.356L566.183 349.588L562.195 350.918L558.073 338.686L554.084 340.015L558.339 352.646L553.686 354.242L547.437 335.761L568.843 328.448L568.71 328.581Z" fill="white"/>
<path d="M229.93 449.442C236.578 446.915 242.96 449.84 245.619 456.754C247.48 461.541 247.214 467.258 241.098 470.715L238.971 465.263C241.231 463.402 241.63 461.142 240.699 458.616C239.37 455.159 235.78 453.563 232.057 455.026C228.334 456.488 226.739 460.078 228.069 463.535C228.999 466.061 230.994 467.524 233.919 467.258L236.046 472.709C229.132 474.304 225.143 470.316 223.282 465.396C220.623 458.483 223.282 451.968 230.063 449.442H229.93Z" fill="white"/>
<path d="M246.817 487.332C252.667 483.21 259.581 484.54 263.836 490.789C268.09 496.905 267.027 503.818 261.176 507.94C255.326 512.062 248.413 510.732 244.158 504.483C239.903 498.367 240.967 491.32 246.817 487.332ZM257.72 503.021C261.176 500.627 261.708 496.772 259.581 493.714C257.454 490.656 253.731 489.858 250.274 492.251C246.817 494.644 246.285 498.5 248.413 501.558C250.54 504.616 254.396 505.414 257.72 503.021Z" fill="white"/>
<path d="M281.116 513.394L286.966 518.447L280.983 532.939L281.382 533.205L294.811 525.227L300.661 530.28L285.903 547.431L281.515 543.576L289.626 534.136L289.227 533.737L277.925 540.385L274.336 537.327L279.255 525.095L278.856 524.696L270.746 534.136L266.358 530.28L281.116 513.128V513.394Z" fill="white"/>
<path d="M314.761 539.589L321.675 543.046L319.548 558.602L319.946 558.868L330.982 547.7L337.896 551.157L327.924 571.499L322.739 568.973L328.19 557.804L327.791 557.539L318.484 566.846L314.362 564.851L315.958 551.821L315.559 551.555L310.108 562.724L304.922 560.198L314.894 539.855L314.761 539.589Z" fill="white"/>
<path d="M351.191 568.973L353.85 556.209L359.833 557.406L357.174 570.037C356.509 573.36 357.705 575.621 361.029 576.285C364.353 576.95 366.481 575.355 367.145 572.164L369.804 559.533L375.788 560.73L373.128 573.493C371.666 580.407 367.145 582.8 360.099 581.338C353.052 579.875 349.861 575.887 351.323 568.973H351.191Z" fill="white"/>
<path d="M392.266 562.321L399.313 562.055L409.284 575.883H409.816L409.417 561.656H415.267L415.932 583.993L409.018 584.259L398.914 570.431H398.382L398.781 584.658H392.931L392.266 562.321Z" fill="white"/>
<path d="M431.489 558.733L437.472 557.403L442.392 579.474L436.409 580.804L431.489 558.733Z" fill="white"/>
<path d="M474.836 549.56L467.125 552.751L473.906 568.971L468.322 571.365L461.541 555.144L453.829 558.335L451.835 553.681L472.842 544.906L474.836 549.56Z" fill="white"/>
<path d="M507.407 541.049L511.662 546.766L506.742 550.356L502.488 544.506L485.868 537.592L491.053 533.87L501.291 538.257L501.69 537.858L500.626 526.823L505.811 523.1L507.407 541.049Z" fill="white"/>
<path d="M530.272 497.171L541.175 481.083L545.43 483.876L537.984 494.911L541.84 497.437L548.886 486.934L552.609 489.46L545.563 499.963L552.609 504.75L549.152 509.802L530.405 497.171H530.272Z" fill="white"/>
<path d="M558.597 472.309C551.949 469.649 549.29 463.135 551.949 456.354C553.81 451.567 557.799 447.446 564.713 449.174L562.585 454.625C559.66 454.359 557.799 455.955 556.735 458.348C555.406 461.805 557.001 465.395 560.724 466.857C564.447 468.32 568.037 466.857 569.366 463.268C570.297 460.741 569.898 458.348 567.638 456.487L569.765 451.168C575.881 454.625 576.147 460.342 574.286 465.129C571.627 472.043 565.112 474.968 558.464 472.309H558.597Z" fill="white"/>
</svg>
