<?xml version="1.0" encoding="UTF-8" standalone="no"?>
<!DOCTYPE svg PUBLIC "-//W3C//DTD SVG 1.1//EN" "http://www.w3.org/Graphics/SVG/1.1/DTD/svg11.dtd">
<svg width="100%" height="100%" viewBox="0 0 800 800" version="1.1" xmlns="http://www.w3.org/2000/svg" xmlns:xlink="http://www.w3.org/1999/xlink" xml:space="preserve" xmlns:serif="http://www.serif.com/" style="fill-rule:evenodd;clip-rule:evenodd;stroke-linejoin:round;stroke-miterlimit:2;">
    <g id="Layer-1" serif:id="Layer 1" transform="matrix(0.60283,0,0,0.60283,185.995,185.996)">
        <g transform="matrix(1,0,0,1,354.772,0.27)">
            <path d="M0,709.545C195.936,709.545 354.773,550.708 354.773,354.773C354.773,158.837 195.936,0 0,0C-195.935,0 -354.772,158.837 -354.772,354.773C-354.772,550.708 -195.935,709.545 0,709.545" style="fill:white;fill-rule:nonzero;"/>
        </g>
        <g transform="matrix(1,0,0,1,355,689.079)">
            <path d="M0,-668.158C-184.217,-668.158 -334.079,-518.296 -334.079,-334.079C-334.079,-149.862 -184.217,0 0,0C184.217,0 334.079,-149.862 334.079,-334.079C334.079,-518.296 184.217,-668.158 0,-668.158M0,20.921C-195.745,20.921 -355,-138.334 -355,-334.079C-355,-529.824 -195.745,-689.079 0,-689.079C195.745,-689.079 355,-529.824 355,-334.079C355,-138.334 195.745,20.921 0,20.921" style="fill:rgb(8,82,158);fill-rule:nonzero;"/>
        </g>
        <g transform="matrix(1,0,0,1,355,139.202)">
            <path d="M0,431.596C119.182,431.596 215.798,334.98 215.798,215.798C215.798,96.616 119.182,0 0,0C-119.182,0 -215.798,96.616 -215.798,215.798C-215.798,334.98 -119.182,431.596 0,431.596" style="fill:rgb(8,82,158);fill-rule:nonzero;"/>
        </g>
        <g transform="matrix(1,0,0,1,120.473,299.325)">
            <path d="M0,0.669L-65.808,-11.983L-68.128,0.114L-2.32,12.766L-0.014,0.783L0.014,0.669L0,0.669ZM-86.117,26.386L-74.162,-35.793L4.113,-20.736L12.439,3.188L6.048,36.462L-72.227,21.405L-86.103,26.386L-86.117,26.386Z" style="fill:rgb(8,82,158);fill-rule:nonzero;"/>
        </g>
        <g transform="matrix(1,0,0,1,83.1427,202.562)">
            <path d="M0,12.34L-14.004,12.539L17.761,-39.08L32.036,-30.299L29.317,-25.887L23.511,-25.845L11.442,-6.219L31.168,5.921L37.6,-26.855L47.776,-20.593L41.229,12.126L64.726,26.586L76.809,6.974L74.233,1.765L76.951,-2.647L91.226,6.134L63.502,51.42L26.684,28.749L30.001,11.841L13.677,20.736L0.043,12.34L0,12.34Z" style="fill:rgb(8,82,158);fill-rule:nonzero;"/>
        </g>
        <g transform="matrix(1,0,0,1,188.928,145.834)">
            <path d="M0,-17.676L-14.573,-36.462L-22.159,-30.57L-5.394,-8.966L0.014,-17.676L0,-17.676ZM-10.304,20.096L-14.573,26.841L-21.817,17.505L-17.619,10.66L-39.294,-17.277L-52.487,-22.017L-4.597,-59.176L19.569,-28.037L1.85,0.37L23.454,28.208L6.319,41.5L-10.289,20.096L-10.304,20.096Z" style="fill:rgb(8,82,158);fill-rule:nonzero;"/>
        </g>
        <g transform="matrix(1,0,0,1,281.421,54.579)">
            <path d="M0,69.85L11.656,66.278L-6.66,6.561L-18.444,10.176L-0.171,69.779L-0.014,69.864L0,69.85ZM-49.84,7.301L10.816,-11.3L32.506,59.874L15.129,77.578L3.473,81.15L-20.835,76.24L-39.18,16.41L-49.826,7.301L-49.84,7.301Z" style="fill:rgb(8,82,158);fill-rule:nonzero;"/>
        </g>
        <g transform="matrix(1,0,0,1,380.319,89.2058)">
            <path d="M0,-13.976L1.423,-37.715L-8.17,-38.298L-9.806,-11.002L0,-13.99L0,-13.976ZM-1.153,5.095L-10.518,0.825L-12.638,35.992L-34.285,34.683L-32.663,7.628L-40.319,9.877L-39.608,-1.922L-31.937,-4.298L-29.816,-39.593L-36.605,-51.847L23.895,-48.204L21.532,-8.853L1.793,-2.889L20.65,5.778L18.714,37.871L-3.046,36.561L-1.153,5.081L-1.153,5.095Z" style="fill:rgb(8,82,158);fill-rule:nonzero;"/>
        </g>
        <g transform="matrix(1,0,0,1,469.994,130.492)">
            <path d="M0,-57.639L-11.116,-62.649L-15.954,-59.418L-20.679,-61.539L-13.805,-76.809L43.264,-51.121L36.39,-35.836L31.68,-37.956L30.897,-43.72L19.881,-48.673L-10.66,19.17L-30.542,10.219L0,-57.639Z" style="fill:rgb(8,82,158);fill-rule:nonzero;"/>
        </g>
        <g transform="matrix(1,0,0,1,558.473,160.023)">
            <path d="M0,1.253L16.694,-15.669L9.849,-22.415L-9.35,-2.946L0,1.253ZM-13.406,14.844L-17.647,5.465L-42.382,30.556L-57.824,15.328L-38.796,-3.97L-46.054,-7.315L-37.743,-15.74L-30.399,-12.481L-5.564,-37.657L-2.604,-51.348L40.547,-8.781L12.866,19.284L-5.92,10.788L2.576,29.716L-20.01,52.601L-35.537,37.288L-13.392,14.83L-13.406,14.844Z" style="fill:rgb(8,82,158);fill-rule:nonzero;"/>
        </g>
        <g transform="matrix(1,0,0,1,618.859,245.258)">
            <path d="M0,-42.696L6.831,-54.85L20.85,-29.232L-54.807,12.154L-65.267,-6.974L0.014,-42.681L0,-42.696Z" style="fill:rgb(8,82,158);fill-rule:nonzero;"/>
        </g>
        <g transform="matrix(1,0,0,1,591.947,294.657)">
            <path d="M0,10.261L2.433,22.216L63.63,9.749L61.168,-2.32L0.085,10.119L-0.015,10.261L0,10.261ZM67.06,-33.317L79.727,28.848L6.788,43.578L-9.152,24.578L-11.585,12.623L-4.355,-11.101L56.97,-23.597L67.06,-33.317Z" style="fill:rgb(8,82,158);fill-rule:nonzero;"/>
        </g>
        <g transform="matrix(1,0,0,1,234.271,232.221)">
            <path d="M0,245.557L-51.918,121.939L-1.11,0.413L121.298,-50.992L243.82,0.228L295.155,121.128L243.265,245.23L120.957,296.593L0,245.543L0,245.557ZM258.992,241.587L309.202,198.606L301.36,107.28L306.242,36.761L234.456,-22.159L197.154,-65.737L104.989,-57.824L105.33,-57.681L37.714,-62.364L-21.277,8.895L-21.206,8.867L-67.715,48.673L-59.973,138.847L-64.414,202.833L3.416,258.992L48.018,311.294L137.907,303.751L137.864,303.751L203.772,308.306L258.992,241.601L258.992,241.587Z" style="fill:white;fill-rule:nonzero;"/>
        </g>
        <g transform="matrix(1,0,0,1,122.764,550.646)">
            <path d="M0,13.719L7.258,13.478L45.955,-27.895L45.741,-35.167L83.342,-0L72.782,11.286L72.298,-3.273L57.255,-17.334L57.468,-10.062L46.937,1.21L54.451,8.24L61.724,8.027L51.178,19.298L50.908,12.026L39.636,1.48L39.878,8.738L24.052,25.66L18.544,24.038L33.587,38.099L48.147,37.615L37.601,48.886L0,13.719Z" style="fill:rgb(8,82,158);fill-rule:nonzero;"/>
        </g>
        <g transform="matrix(1,0,0,1,192.315,603.745)">
            <path d="M0,-15.342L9.379,16.039L20.722,22.159L21.946,19.882L8.369,-25.461L15.684,-39.038L29.645,-43.251L50.04,-32.25L52.132,-25.247L59.105,-27.354L48.104,-6.96L40.803,-31.367L29.46,-37.473L28.236,-35.196L41.814,10.147L34.498,23.724L20.551,27.909L-4.369,14.474L-6.475,7.5L-13.435,9.578L0,-15.342Z" style="fill:rgb(8,82,158);fill-rule:nonzero;"/>
        </g>
        <g transform="matrix(1,0,0,1,257.227,588.459)">
            <path d="M0,61.682L3.771,57.355L17.178,4.982L22.814,3.758L7.842,-0.085L1.594,3.644L4.156,-6.361L54.024,6.405L51.462,16.41L47.734,10.12L32.79,6.291L37.117,10.063L23.71,62.436L24.934,68.043L-0.014,61.653L0,61.682Z" style="fill:rgb(8,82,158);fill-rule:nonzero;"/>
        </g>
        <g transform="matrix(0.760237,-0.649646,-0.649646,-0.760237,319.324,657.427)">
            <rect x="2.24" y="-6.049" width="10.95" height="10.911" style="fill:rgb(8,82,158);"/>
        </g>
        <g transform="matrix(1,0,0,1,358.046,595.476)">
            <path d="M0,70.448L-2.235,49.982L27.41,13.079L26.855,7.984L24.037,5.693L13.776,6.817L-2.178,26.67L-3.572,13.904L5.536,2.519L28.577,0L39.934,9.151L42.169,29.616L17.092,60.827L17.377,63.389L37.842,61.154L42.382,55.461L43.507,65.694L0,70.448Z" style="fill:rgb(8,82,158);fill-rule:nonzero;"/>
        </g>
        <g transform="matrix(1,0,0,1,460.629,593.285)">
            <path d="M0,46.822L-6.547,43.634L-21.732,-0.129L-28.307,-3.317L-38.042,0.056L-31.467,3.244L-16.281,47.007L-9.735,50.195L-0.014,46.822L0,46.822ZM-22.614,60.101L-35.722,53.753L-50.907,9.99L-44.56,-3.146L-15.385,-13.279L-2.277,-6.903L12.908,36.86L6.561,49.968L-22.614,60.101Z" style="fill:rgb(8,82,158);fill-rule:nonzero;"/>
        </g>
        <g transform="matrix(1,0,0,1,498.173,553.976)">
            <path d="M0,75.827L-11.115,58.493L-1.011,12.239L-3.786,7.927L-7.33,7.13L-16.025,12.709L-21.462,37.586L-28.393,26.77L-25.305,12.51L-5.793,0L8.453,3.131L19.568,20.465L11.029,59.574L12.424,61.752L29.759,50.637L31.296,43.521L36.86,52.188L0.014,75.813L0,75.827Z" style="fill:rgb(8,82,158);fill-rule:nonzero;"/>
        </g>
        <g transform="matrix(1,0,0,1,558.061,514.64)">
            <path d="M0,74.759L-10.916,74.66L-16.324,69.166L-16.196,54.607L-5.38,65.608L1.907,65.693L5.593,62.079L5.636,54.792L-8.81,40.105L-16.068,40.048L-27.098,50.892L-48.773,28.847L-19.398,-0.029L-14.061,16.408L-34.242,36.248L-28.834,41.755L-10.489,23.724L4.07,23.852L20.323,40.375L20.195,54.934L0.014,74.788L0,74.759Z" style="fill:rgb(8,82,158);fill-rule:nonzero;"/>
        </g>
        <g transform="matrix(1,0,0,1,247.364,461.853)">
            <path d="M0,-213.706L108.689,-259.917L216.325,-214.233L260.956,-107.636L215.272,1.579L108.689,46.211L0.512,1.579L-45.684,-107.109L0,-213.706Z" style="fill:rgb(229,21,60);fill-rule:nonzero;"/>
        </g>
        <g transform="matrix(0.913164,-0.407593,-0.407593,-0.913164,306.495,482.919)">
            <path d="M3.898,22.171L63.014,22.171L102.486,-21.834L44.95,-18.299L3.898,22.171Z" style="fill:white;fill-rule:nonzero;"/>
        </g>
        <g transform="matrix(1,0,0,1,402.52,357.562)">
            <path d="M0,-31.78L37.131,31.011L62.094,-3.672L76.411,-22.33L48.332,-62.791L25.945,-31.951L0,-31.78Z" style="fill:white;fill-rule:nonzero;"/>
        </g>
        <g transform="matrix(1,0,0,1,403.829,449.087)">
            <path d="M0,-91.127L27.553,-38.867L11.471,0L-37.899,-28.535L-37.899,-41.742L-20.095,-57.24L-6.319,-57.24L0,-91.127Z" style="fill:white;fill-rule:nonzero;"/>
        </g>
        <g transform="matrix(1,0,0,1,307.48,357.562)">
            <path d="M0,-31.78L-37.131,31.011L-62.094,-3.658L-76.411,-22.316L-48.332,-62.791L-25.945,-31.951L0,-31.78Z" style="fill:white;fill-rule:nonzero;"/>
        </g>
        <g transform="matrix(1,0,0,1,306.17,449.087)">
            <path d="M0,-91.127L-27.553,-38.867L-11.456,0L37.9,-28.535L37.9,-41.742L20.096,-57.24L6.319,-57.24L0,-91.127Z" style="fill:white;fill-rule:nonzero;"/>
        </g>
        <g transform="matrix(1,0,0,1,276.853,365.532)">
            <path d="M0,-110.241L32.164,-124.017L78.147,-104.505L124.13,-124.017L156.294,-110.241L170.64,-78.66L107.479,-67.175L113.228,-0.57L78.147,13.776L43.065,-0.57L48.815,-67.175L-14.346,-78.66L0,-110.241Z" style="fill:white;fill-rule:nonzero;"/>
        </g>
        <g transform="matrix(1,0,0,1,126.393,373.388)">
            <path d="M0,136.171C-17.377,110.269 -30.385,81.463 -38.041,51.078C-42.24,34.398 -44.873,17.277 -45.869,0L-36.903,1.708C-35.835,17.676 -33.345,33.488 -29.46,48.915C-22.201,77.72 -9.962,105.06 6.334,129.738L0,136.171Z" style="fill:rgb(229,21,60);fill-rule:nonzero;"/>
        </g>
        <g transform="matrix(1,0,0,1,116.317,488.04)">
            <path d="M0,-107.764C1.153,-95.738 3.202,-83.826 6.134,-72.184C12.197,-48.118 22.117,-25.19 35.238,-4.27L29.517,1.565C15.456,-20.494 4.853,-44.745 -1.579,-70.234C-4.81,-83.029 -7.002,-96.108 -8.14,-109.329L0,-107.764Z" style="fill:rgb(229,21,60);fill-rule:nonzero;"/>
        </g>
        <g transform="matrix(1,0,0,1,103.864,367.254)">
            <path d="M0,165.502C-21.305,135.189 -37.173,101.103 -46.268,64.997C-51.604,43.82 -54.664,22.002 -55.362,0L-45.428,1.879C-44.617,22.429 -41.685,42.795 -36.704,62.577C-28.051,96.919 -13.064,129.382 7.017,158.33L0,165.502Z" style="fill:rgb(229,21,60);fill-rule:nonzero;"/>
        </g>
        <g transform="matrix(1,0,0,1,579.066,379.821)">
            <path d="M0,123.305C16.31,98.641 28.535,71.301 35.794,42.482C39.679,27.069 42.169,11.243 43.237,-4.725L52.203,-6.433C51.192,10.844 48.574,27.965 44.375,44.645C36.719,75.03 23.711,103.836 6.334,129.738L0,123.305Z" style="fill:rgb(229,21,60);fill-rule:nonzero;"/>
        </g>
        <g transform="matrix(1,0,0,1,603.617,489.591)">
            <path d="M0,-110.895C-1.139,-97.673 -3.331,-84.594 -6.561,-71.8C-12.994,-46.31 -23.597,-22.059 -37.658,0L-43.379,-5.835C-30.257,-26.756 -20.352,-49.683 -14.275,-73.75C-11.343,-85.405 -9.28,-97.303 -8.141,-109.329L0,-110.895Z" style="fill:rgb(229,21,60);fill-rule:nonzero;"/>
        </g>
        <g transform="matrix(1,0,0,1,600.913,374.426)">
            <path d="M0,151.158C20.081,122.21 35.067,89.747 43.72,55.405C48.701,35.623 51.633,15.257 52.444,-5.293L62.378,-7.172C61.666,14.83 58.621,36.648 53.284,57.825C44.19,93.917 28.321,128.017 7.016,158.33L0,151.158Z" style="fill:rgb(229,21,60);fill-rule:nonzero;"/>
        </g>
    </g>
</svg>
