<svg width="800" height="800" viewBox="0 0 800 800" fill="none" xmlns="http://www.w3.org/2000/svg">
<g clip-path="url(#clip0_6067_676)">
<path d="M224.269 431.489C239.386 431.489 251.641 417.399 251.641 400.019C251.641 382.638 239.386 368.548 224.269 368.548C209.151 368.548 196.896 382.638 196.896 400.019C196.896 417.399 209.151 431.489 224.269 431.489Z" fill="#DAB411"/>
<path d="M576.016 431.489C591.134 431.489 603.389 417.399 603.389 400.019C603.389 382.638 591.134 368.548 576.016 368.548C560.899 368.548 548.644 382.638 548.644 400.019C548.644 417.399 560.899 431.489 576.016 431.489Z" fill="#DAB411"/>
<path d="M401.181 549.949C486.14 549.949 555.014 483.27 555.014 401.017C555.014 318.764 486.14 252.085 401.181 252.085C316.222 252.085 247.348 318.764 247.348 401.017C247.348 483.27 316.222 549.949 401.181 549.949Z" fill="#DAB411"/>
<path d="M617.128 431.335C601.357 539.577 508.854 618.453 401.104 618.945C292.907 619.436 199.466 540.745 183.264 432.288C182.572 427.617 180.833 423.437 177.494 419.488L161 400.018L179.541 377.906C181.633 375.417 182.756 371.053 183.172 368.148C199.127 259.876 292.199 180.969 400.134 181C508.547 181.031 601.619 260.46 617.22 369.209C617.805 373.296 620.005 377.245 622.929 380.703L639.238 399.942L621.344 421.239C619.113 423.898 617.713 427.386 617.143 431.32L617.128 431.335ZM611.312 428.078C611.82 424.39 614.035 420.271 616.066 417.828L630.96 399.942L617.189 383.653C613.989 379.858 611.712 375.063 611.081 370.561C596.172 264.763 505.592 187.27 400.15 187.254C294.769 187.254 204.143 264.624 189.172 370.376C188.711 373.68 187.188 378.521 184.849 381.317L169.309 399.942L184.587 418.381C186.449 420.625 188.434 424.451 188.895 427.893C202.912 534.245 293.907 612.952 400.119 612.829C505.977 612.721 596.787 535.136 611.312 428.062V428.078Z" fill="#BC1818"/>
<path d="M603.803 428.354C589.386 530.511 501.914 605.376 400.118 605.376C298.292 605.376 210.79 530.511 196.419 428.308C195.572 422.3 192.711 416.399 188.587 411.513L178.848 399.988L188.802 388.171C192.603 383.669 195.557 377.829 196.326 372.221C210.405 270.156 297.553 195.03 399.18 194.584C501.237 194.123 589.201 268.973 603.757 371.345C604.603 377.322 607.311 383.346 611.419 388.202L621.312 399.926L610.296 413.234C606.757 417.506 604.526 423.253 603.803 428.354ZM543.765 425.972C544.55 421.608 541.919 416.968 539.688 414.309L527.61 399.942L539.365 386.081C542.211 382.716 544.535 377.921 543.688 373.373C530.733 303.548 469.357 253.637 399.18 254.114C329.449 254.575 268.873 304.577 256.441 374.203C255.779 377.891 258.118 382.808 260.38 385.482L272.627 399.926L260.103 414.832C258.133 417.167 255.825 422.146 256.395 425.388C268.658 495.475 329.895 545.846 400.134 545.816C470.034 545.785 531.087 496.028 543.765 425.972ZM236.285 381.702C230.223 376.999 223.699 377.384 217.883 380.211C222.576 384.575 231.038 386.265 236.285 381.702ZM582.108 380.134C575.292 376.861 568.368 377.645 563.567 382.224C569.445 385.512 577.784 385.082 582.108 380.134ZM209.328 392.919L214.559 382.086C212.267 382.024 206.943 387.387 207.005 390.291C207.02 391.121 208.605 392.504 209.343 392.919H209.328ZM593.109 388.724C590.847 385.436 589.001 383.438 585.555 381.932L590.986 392.888C591.971 392.904 593.771 389.692 593.109 388.724ZM228.161 403.614C236.162 404.106 243.455 398.789 245.163 391.674C245.655 389.615 242.332 385.005 240.47 384.744C230.607 388.693 229.315 392.689 228.176 403.599L228.161 403.614ZM572.245 403.537C571.615 397.621 569.891 392.735 567.476 388.632L559.521 384.56C558.198 385.374 554.566 389.492 555.059 391.521C556.874 398.958 563.968 404.26 572.245 403.553V403.537ZM226.807 421.117C222.129 409.131 223.299 399.388 227.915 388.601L217.667 386.235C212.405 395.654 209.897 406.841 213.451 417.444C216.452 420.656 222.683 422.454 226.807 421.117ZM586.601 417.106C590.724 406.349 587.462 395.47 582.554 386.25L572.307 388.939C577.446 400.403 577.6 410.007 573.338 421.455C577.154 421.931 584.785 421.147 586.601 417.106ZM208.251 399.173L204.573 395.731C203.327 401.878 204.112 407.087 207.758 411.067L208.251 399.173ZM592.478 410.913C596.633 406.687 596.694 401.017 595.509 395.67C594.248 396.484 591.909 398.743 591.955 399.957L592.478 410.913ZM231.946 420.932C241.793 417.413 248.286 409.039 247.24 398.359C241.901 404.244 236.5 407.686 228.068 407.871C227.976 412.65 229.284 417.075 231.946 420.932ZM572.091 407.825C563.121 407.656 558.305 403.968 552.966 398.344C551.966 409.085 558.736 418.089 568.614 420.794C571.03 416.461 572.23 412.342 572.091 407.825Z" fill="#BC1818"/>
<path d="M375.578 383.361L375.516 348.879L391.179 347.373L391.287 381.732L375.578 383.361Z" fill="black"/>
<path d="M423.969 383.3L408.274 381.825L408.244 347.404L423.938 348.894L423.969 383.3Z" fill="black"/>
<path d="M499.822 324.093C477.82 321.803 462.526 303.993 462.172 282.926C419.859 278.639 378.855 278.915 337.573 283.479C337.173 305.069 321.448 322.325 299.846 324.615L299.815 422.807C300.584 461.377 321.587 495.613 355.114 514.161L391.164 534.859L391.21 505.709C393.518 506.093 395.826 506.308 398.165 506.308C401.519 506.308 404.842 505.924 408.135 505.248L408.196 534.967L443.016 514.99C477.712 496.52 499.361 461.3 499.807 421.731V324.123L499.822 324.093Z" fill="#BC1818"/>
<path d="M399.658 403.43L373.639 403.461L360.592 425.604H389.056V468.476C368.146 464.343 351.668 448.023 346.667 428.155C341.143 406.242 349.206 383.991 366.962 370.407L366.9 344.73C331.804 361.526 314.987 400.894 326.219 437.344C337.328 473.393 373.285 496.474 411.213 490.957V425.604V403.461H400.581C400.273 403.445 399.965 403.43 399.642 403.43H399.658Z" fill="#DAB411"/>
<path d="M474.05 391.69C462.972 355.671 427.03 332.56 389.056 338.076V341.042V383.269C389.056 383.269 389.056 383.269 389.071 383.269H411.228V376.815L411.351 360.527C433.015 365.075 448.863 381.533 453.709 401.232C459.079 423.068 450.955 445.119 433.307 458.611L433.338 484.319C468.434 467.493 485.267 428.185 474.035 391.69H474.05Z" fill="#DAB411"/>
<path d="M408.489 530.219H408.55V530.188L408.489 530.219Z" fill="#DAB411"/>
<path d="M440.924 334.127C441.201 331.745 442.386 330.101 444.955 328.641L424.614 296.387L424.23 329.793C430 331.484 435.6 333.804 440.924 336.708V334.127Z" fill="#DAB411"/>
<path d="M359.269 334.127C358.992 331.745 357.807 330.101 355.238 328.641L375.578 296.387L375.963 329.793C370.193 331.484 364.592 333.804 359.269 336.708V334.127Z" fill="#DAB411"/>
<path d="M411.198 327.058L411.152 316.148C411.152 314.75 412.906 312.937 414.86 311.492L400.135 291.931L385.411 311.492C387.365 312.937 389.134 314.75 389.119 316.148L389.073 327.074C396.458 326.106 403.89 326.106 411.183 327.058H411.198Z" fill="#DAB411"/>
<path d="M389.057 501.975V539.93H411.245V501.959C407.536 502.451 403.828 502.697 400.12 502.697C396.412 502.697 392.719 502.451 389.057 501.959V501.975Z" fill="#DAB411"/>
<path d="M270.413 280.529L281.014 289.011C279.845 292.468 278.229 295.68 275.09 299.599C268.967 307.236 260.566 308.603 252.703 302.318C244.856 296.034 244.856 287.428 250.888 279.899C253.611 276.503 255.719 274.643 257.935 272.892L264.935 276.964L259.181 279.591C258.011 280.759 256.919 281.989 255.827 283.341C252.965 286.921 252.657 291.347 258.042 295.665C263.427 299.967 267.674 299.383 270.797 295.496C271.751 294.312 272.49 293.252 273.167 291.977L269.382 288.95L264.397 288.043L270.413 280.544V280.529Z" fill="white"/>
<path d="M276.798 273.86C270.489 266.084 271.336 258.201 278.875 252.101C286.383 246.031 294.246 246.892 300.539 254.667C306.847 262.442 306.001 270.387 298.569 276.395C291.369 282.219 283.106 281.635 276.798 273.844V273.86ZM293.692 260.199C289.291 254.775 285.86 254.283 282.721 256.834C279.644 259.323 279.26 262.888 283.66 268.312C288.061 273.737 291.492 274.167 294.569 271.678C297.723 269.127 298.092 265.623 293.692 260.199Z" fill="white"/>
<path d="M332.374 245.985L334.744 252.884L315.08 263.195L313.941 258.724L304.387 240.53L301.355 237.057L310.772 232.124L311.88 236.611L320.742 253.468L328.943 249.166L332.405 246L332.374 245.985Z" fill="white"/>
<path d="M339.82 245.755L333.958 226.07L331.65 222.075L344.159 218.372C355.037 215.145 361.054 218.187 363.946 227.899C366.839 237.61 363.454 243.434 352.576 246.661L340.067 250.365L339.805 245.755H339.82ZM351.299 240.914C356.084 239.5 357.545 236.934 355.591 230.373C353.622 223.765 351.129 222.382 346.344 223.796L342.421 224.964L347.498 242.051L351.299 240.93V240.914Z" fill="white"/>
<path d="M387.502 234.998L387.533 214.453L386.472 209.966H399.519C410.874 210.012 415.752 214.637 415.736 224.779C415.721 234.921 410.813 239.531 399.458 239.516H386.41L387.487 234.998H387.502ZM399.873 233.646C404.858 233.646 406.997 231.617 407.012 224.764C407.012 217.88 405.027 215.821 400.042 215.821H395.949L395.919 233.646H399.888H399.873Z" fill="white"/>
<path d="M448.156 238.732L445.694 245.355L421.584 240.361L423.538 236.181L427.707 216.066L427.569 211.456L451.202 216.343L450.787 223.381L446.633 221.291L435.693 219.032L434.477 224.917L442.155 226.5L445.217 226.454L443.817 233.2L441.032 231.94L433.354 230.357L432.062 236.627L443.478 238.993L448.171 238.732H448.156Z" fill="white"/>
<path d="M490.607 231.571L468.651 254.283L460.343 250.718L462.22 219.401L471.744 223.488L470.174 227.699L468.159 246.138L480.514 232.124L482.483 228.083L490.592 231.556L490.607 231.571Z" fill="white"/>
<path d="M486.652 258.724L497.669 241.391L499.177 237.026L508.162 242.712L504.808 245.908L493.792 263.257L492.314 267.637L483.329 261.951L486.637 258.724H486.652Z" fill="white"/>
<path d="M520.517 281.036L514.993 285.8L498.099 271.401L501.823 268.681L515.178 253.054L517.286 248.951L525.379 255.85L521.609 258.54L509.239 273.015L516.286 279.023L520.517 281.051V281.036Z" fill="white"/>
<path d="M520.672 290.84L526.365 284.57L527.565 291.147C528.673 293.575 529.581 295.127 530.812 296.648C532.735 299.03 534.612 299.583 536.027 298.431C537.443 297.278 537.474 295.834 535.32 291.27C532.104 284.478 531.996 280.175 536.074 276.871C540.151 273.568 545.613 274.367 550.983 281.005C553.445 284.048 555.199 286.921 556.737 289.795L551.26 295.757L549.921 289.579C549.167 287.951 548.29 286.491 547.106 285.046C545.305 282.834 543.367 282.004 542.059 283.064C540.751 284.124 540.566 285.538 542.705 290.087C546.013 297.14 545.905 301.458 542.105 304.531C537.751 308.05 531.95 306.913 526.796 300.49C523.549 296.479 521.934 293.206 520.626 290.824L520.672 290.84Z" fill="white"/>
<path d="M241.839 475.867L243.64 478.618L236.639 481.353L236.085 478.111L232.592 469.198L226.761 471.472L222.945 475.083L218.467 463.666L223.422 462.975L244.147 454.876L248.255 452.034L257.58 475.821L250.963 479.647L250.394 474.653L246.178 463.897L238.331 466.97L241.824 475.882L241.839 475.867Z" fill="white"/>
<path d="M246.241 489.052C255.088 482.797 263.55 484.242 269.612 492.801C275.644 501.314 274.182 509.735 265.335 515.989C256.488 522.243 247.964 520.783 241.979 512.347C236.193 504.172 237.393 495.306 246.241 489.052ZM259.811 508.214C265.981 503.85 266.751 500.177 264.212 496.612C261.735 493.124 257.903 492.463 251.733 496.827C245.564 501.191 244.856 504.864 247.333 508.367C249.872 511.948 253.626 512.578 259.796 508.214H259.811Z" fill="white"/>
<path d="M270.888 521.936C277.951 513.73 286.505 513.069 294.475 519.907C302.399 526.715 303.015 535.228 295.953 543.433C288.89 551.639 280.258 552.3 272.411 545.554C264.811 539.039 263.826 530.126 270.888 521.92V521.936ZM288.721 537.241C293.645 531.509 293.506 527.775 290.183 524.917C286.936 522.12 283.059 522.412 278.135 528.144C273.212 533.875 273.427 537.609 276.673 540.406C279.997 543.264 283.797 542.972 288.736 537.241H288.721Z" fill="white"/>
<path d="M323.217 547.782L313.57 565.992L313.047 571.216L301.507 565.116L305.492 561.72L315.139 543.51L310.539 541.082L305.584 539.93L310.293 533.599L334.188 546.215L331.603 553.668L327.864 550.226L323.217 547.767V547.782Z" fill="white"/>
<path d="M332.342 574.489L338.42 553.099L338.589 548.089L355.33 552.822C362.746 554.928 364.746 559.138 363.3 564.224C362.392 567.421 360.253 569.157 356.407 569.126C360.93 571.554 362.438 574.889 361.438 578.408C359.945 583.632 355.406 586.045 347.206 583.724L329.865 578.822L332.358 574.474L332.342 574.489ZM347.067 577.501C350.36 578.438 351.945 577.439 352.606 575.073C353.283 572.707 351.744 571.032 348.606 570.14L343.144 568.588L341.097 575.811L347.082 577.501H347.067ZM348.59 564.332C352.16 565.346 354.099 564.685 354.714 562.519C355.345 560.29 354.56 558.677 351.268 557.74L346.636 556.433L344.698 563.241L348.59 564.347V564.332Z" fill="white"/>
<path d="M402.703 590.947L391.594 590.255L391.563 586.06L391.163 584.831L378.131 584.016L377.577 585.184L377.023 589.349L367.545 588.765L381.393 560.982L380.208 557.54L391.456 558.247L402.688 590.962L402.703 590.947ZM389.255 578.869L385.701 567.851L380.793 578.346L389.255 578.869Z" fill="white"/>
<path d="M436.676 578.853L436.538 586.736L412.72 589.994L413.197 585.031L410.166 563.011L408.365 558.354L419.767 556.787L419.244 561.766L422.044 582.173L431.968 580.805L436.661 578.853H436.676Z" fill="white"/>
<path d="M468.526 569.218L469.772 577.009L446.877 584.354L446.493 579.376L439.677 558.216L437.092 553.944L448.062 550.425L448.401 555.419L454.709 575.027L464.249 571.969L468.526 569.234V569.218Z" fill="white"/>
<path d="M484.067 552.807C478.128 543.695 480.42 535.243 488.498 529.988C491.883 527.775 495.007 526.377 497.545 525.532L503.592 532.339L496.638 532.969C495.284 533.614 493.899 534.413 492.729 535.166C489.144 537.502 487.929 541.559 491.822 547.521C495.791 553.606 500.376 554.467 504.546 551.762C505.592 551.086 506.639 550.287 507.654 549.396L510.855 543.295L514.67 551.609C512.901 553.744 510.885 555.681 507.623 557.801C499.115 563.349 490.006 561.919 484.067 552.807Z" fill="white"/>
<path d="M537.365 520.768L541.965 527.176L524.794 543.971L522.209 539.699L506.638 523.826L502.407 521.167L510.623 513.115L513.162 517.433L527.594 532.139L534.749 525.132L537.349 520.768H537.365Z" fill="white"/>
<path d="M540.673 511.64L527.426 502.943L522.717 501.237L529.041 491.633L532.441 495.306L546.181 504.311C549.12 506.231 551.69 505.571 554.028 502.021C556.336 498.517 556.013 495.782 553.059 493.846L539.335 484.841L534.626 483.136L540.288 474.53L543.72 478.172L556.967 486.87C563.691 491.28 564.66 497.442 559.044 505.97C553.428 514.499 547.397 516.066 540.673 511.64Z" fill="white"/>
<path d="M568.246 478.034L547.197 470.781L542.197 470.335L547.874 453.908C550.382 446.625 554.721 444.858 559.722 446.594C562.86 447.685 564.491 449.913 564.23 453.755C566.907 449.391 570.323 448.069 573.785 449.252C578.924 451.02 581.093 455.691 578.308 463.743L572.431 480.754L568.23 478.034H568.246ZM558.998 461.269C560.214 457.765 559.66 455.799 557.521 455.061C555.337 454.308 553.675 454.999 552.552 458.242L550.982 462.79L557.675 465.095L558.998 461.269ZM572.077 463.528C573.185 460.301 572.277 458.657 569.954 457.858C567.63 457.059 565.861 458.488 564.799 461.576L562.937 466.939L570.046 469.382L572.077 463.513V463.528Z" fill="white"/>
</g>
<defs>
<clipPath id="clip0_6067_676">
<rect width="478.223" height="437.96" fill="white" transform="translate(161 181)"/>
</clipPath>
</defs>
</svg>
