<?xml version="1.0" encoding="UTF-8" standalone="no"?>
<!DOCTYPE svg PUBLIC "-//W3C//DTD SVG 1.1//EN" "http://www.w3.org/Graphics/SVG/1.1/DTD/svg11.dtd">
<svg width="100%" height="100%" viewBox="0 0 800 800" version="1.1" xmlns="http://www.w3.org/2000/svg" xmlns:xlink="http://www.w3.org/1999/xlink" xml:space="preserve" xmlns:serif="http://www.serif.com/" style="fill-rule:evenodd;clip-rule:evenodd;stroke-miterlimit:10;">
    <g id="Layer-1" serif:id="Layer 1" transform="matrix(1.09177,0,0,1.09177,231.015,153.496)">
        <g transform="matrix(1,0,0,1,122.619,51.9172)">
            <path d="M0,-51.917L-22.226,-21.326L-44.368,-43.642L-33.822,0L95.347,0L108.691,-41.836L85.908,-22.724L64.206,-50.052L33.473,-21.501L0,-51.917Z" style="fill:rgb(214,179,112);fill-rule:nonzero;"/>
        </g>
        <g transform="matrix(1,0,0,1,4.3005,137.855)">
            <path d="M0,227.185L-0.076,-10.281L-0.095,-14.486L-0.095,-81.731L301.056,-81.731L301.029,224.66L150.564,308.916L0,227.185Z" style="fill:white;fill-rule:nonzero;"/>
        </g>
        <g transform="matrix(1,0,0,1,292.919,373.948)">
            <path d="M0,-245.826L0,-20.726L-138.115,58.85L-276.208,-18.28L-276.208,-245.826L0,-245.826ZM8.205,-313.843L-284.414,-313.843L-284.414,-11.414L-279.62,-8.561L-140.121,66.91L-138.083,68.017L-136.06,66.884L6.055,-12.693L8.205,-13.898L8.205,-313.843Z" style="fill:rgb(97,30,48);fill-rule:nonzero;"/>
        </g>
        <g transform="matrix(1,0,0,1,207.864,28.8726)">
            <path d="M0,8.813L-21.586,-18.369L-51.904,9.797L-83.866,-20.155L-106.216,10.605L-120.423,-3.73L-111.932,28.968L2.352,28.968L13.283,-2.847L0,8.813Z" style="fill:white;fill-rule:nonzero;stroke:rgb(214,179,112);stroke-width:2.75px;"/>
        </g>
        <g transform="matrix(1,0,0,1,118.124,139.212)">
            <path d="M0,64.035L1.277,62.758L25.152,62.791L25.152,0L-16.426,0L0.019,17.746L0,64.035Z" style="fill:rgb(97,30,48);fill-rule:nonzero;"/>
        </g>
        <g transform="matrix(1,0,0,1,255.552,294.181)">
            <path d="M0,38.496L-62.548,73.643L-62.548,44.634L-47.395,30.036L-86.872,30.085L-87.708,30.085L-87.708,117.444L24.554,53.778L24.554,-78.948L0,-61.956L0,38.496Z" style="fill:rgb(97,30,48);fill-rule:nonzero;"/>
        </g>
        <g transform="matrix(1,0,0,1,118.112,408.509)">
            <path d="M0,-81.176L0.028,-30.519L-22.524,-22.32L3.131,-8.965L3.136,-8.975L25.165,3.116L25.165,-84.262L4.502,-84.292L0,-81.176Z" style="fill:rgb(97,30,48);fill-rule:nonzero;"/>
        </g>
        <g transform="matrix(-1,0,0,1,29.3735,297.048)">
            <path d="M-24.288,-157.778L0,-157.778L0,0L-24.231,-13.388L-24.288,-157.778Z" style="fill:rgb(97,30,48);fill-rule:nonzero;"/>
        </g>
        <g transform="matrix(1,0,0,1,167.146,202.071)">
            <path d="M0,-62.801L0,-0.034L24.53,0L24.53,-37.003L88.405,-37.003L88.405,-29.989L112.959,-43.555L112.959,-62.801L0,-62.801Z" style="fill:rgb(97,30,48);fill-rule:nonzero;"/>
        </g>
        <g transform="matrix(1,0,0,1,93.1794,333.176)">
            <path d="M0,-35.21L-0.009,-61.766L-63.806,-26.518L-63.806,10.067L-36.669,26.556L21.507,-13.702L0,-35.21Z" style="fill:rgb(97,30,48);fill-rule:nonzero;"/>
        </g>
        <g transform="matrix(1,0,0,1,217.986,187.799)">
            <path d="M0,40.518L0,60.192L62.12,17.205L62.12,-19.674L-16.664,23.855L0,40.518Z" style="fill:rgb(97,30,48);fill-rule:nonzero;"/>
        </g>
        <g transform="matrix(1,0,0,1,122.011,287.014)">
            <path d="M0,-47.743L17.013,-30.731L0,-30.731L0,-47.743ZM26.714,-56.083L26.714,-40.431L11.061,-56.083L26.714,-56.083ZM40.431,-7.314L56.084,8.339L40.431,8.339L40.431,-7.314ZM40.431,-56.083L56.083,-56.083L40.431,-40.431L40.431,-56.083ZM67.089,-30.731L50.131,-30.731L67.089,-47.689L67.089,-30.731ZM67.144,-17.013L67.144,-0.001L50.131,-17.013L67.144,-17.013ZM0.055,-0.055L0.055,-17.013L17.013,-17.013L0.055,-0.055ZM26.714,8.339L11.06,8.339L26.714,-7.314L26.714,8.339ZM-22.523,8.339L0.032,30.894L67.144,30.989L89.698,8.433L89.751,-22.846L89.667,-22.846L89.667,-56.083L67.112,-78.638L0,-78.732L-22.527,-56.204L-22.527,-24.898L-22.523,-24.898L-22.523,8.339Z" style="fill:rgb(97,30,48);fill-rule:nonzero;"/>
        </g>
        <g transform="matrix(1,0,0,1,301.15,451.568)">
            <path d="M8.411,-399.65L-301.15,-399.65L-301.15,-319.788L-301.128,-319.788L-301.056,-89.03L-301.054,-84.03L-296.658,-81.642L-294.459,-80.449L-152.365,-3.318L-150.327,-2.212L-146.252,0L-142.206,-2.265L-140.183,-3.396L-56.555,-50.225L4.083,-84.178L8.384,-86.587L8.384,-91.517L8.404,-319.788L8.405,-319.788L8.411,-328.199L8.411,-399.65ZM-292.74,-391.239L0,-391.239L0,-328.199L-0.004,-328.199L-0.026,-91.517L-60.664,-57.563L-144.292,-10.736L-146.315,-9.603L-148.352,-10.71L-290.446,-87.84L-292.645,-89.035L-292.72,-328.199L-292.74,-328.199L-292.74,-391.239Z" style="fill:rgb(214,179,112);fill-rule:nonzero;"/>
        </g>
        <g transform="matrix(1,0,0,1,63.3544,86.2964)">
            <path d="M0,1.99C0.547,1.99 0.995,1.542 0.995,0.995C0.995,0.448 0.547,0 0,0C-0.547,0 -0.995,0.448 -0.995,0.995C-0.995,1.542 -0.547,1.99 0,1.99" style="fill:rgb(214,179,112);fill-rule:nonzero;"/>
        </g>
        <g transform="matrix(1,0,0,1,69.9722,84.6668)">
            <path d="M0,1.99C0.547,1.99 0.995,1.542 0.995,0.995C0.995,0.448 0.547,0 0,0C-0.547,0 -0.995,0.448 -0.995,0.995C-0.995,1.542 -0.56,1.99 0,1.99" style="fill:rgb(214,179,112);fill-rule:nonzero;"/>
        </g>
        <g transform="matrix(1,0,0,1,77.7717,84.6295)">
            <path d="M0,1.99C0.547,1.99 0.995,1.542 0.995,0.995C0.995,0.447 0.547,0 0,0C-0.547,0 -0.995,0.447 -0.995,0.995C-0.995,1.542 -0.547,1.99 0,1.99" style="fill:rgb(214,179,112);fill-rule:nonzero;"/>
        </g>
        <g transform="matrix(1,0,0,1,84.713,86.7318)">
            <path d="M0,1.99C0.547,1.99 0.995,1.542 0.995,0.995C0.995,0.447 0.547,0 0,0C-0.547,0 -0.995,0.447 -0.995,0.995C-0.995,1.542 -0.547,1.99 0,1.99" style="fill:rgb(214,179,112);fill-rule:nonzero;"/>
        </g>
        <g transform="matrix(1,0,0,1,64.0634,96.5838)">
            <path d="M0,-7.551L2.252,1.766L17.017,1.766L19.866,-7.165L15.002,-3.085L13.572,-8.919L10.213,-2.824L6.27,-9.317L4.727,-2.787L0,-7.551Z" style="fill:rgb(214,179,112);fill-rule:nonzero;"/>
        </g>
        <g transform="matrix(1,0,0,1,0,-251.724)">
            <rect x="66.337" y="350.906" width="14.734" height="1.48" style="fill:rgb(214,179,112);"/>
        </g>
        <g transform="matrix(1,0,0,1,0,-247.098)">
            <rect x="66.337" y="348.593" width="14.734" height="1.48" style="fill:rgb(214,179,112);"/>
        </g>
        <g transform="matrix(1,0,0,1,224.92,86.2964)">
            <path d="M0,1.99C0.547,1.99 0.995,1.542 0.995,0.995C0.995,0.448 0.547,0 0,0C-0.547,0 -0.995,0.448 -0.995,0.995C-0.995,1.542 -0.547,1.99 0,1.99" style="fill:rgb(214,179,112);fill-rule:nonzero;"/>
        </g>
        <g transform="matrix(1,0,0,1,231.538,84.6668)">
            <path d="M0,1.99C0.547,1.99 0.995,1.542 0.995,0.995C0.995,0.448 0.547,0 0,0C-0.547,0 -0.995,0.448 -0.995,0.995C-0.995,1.542 -0.56,1.99 0,1.99" style="fill:rgb(214,179,112);fill-rule:nonzero;"/>
        </g>
        <g transform="matrix(1,0,0,1,239.338,84.6295)">
            <path d="M0,1.99C0.547,1.99 0.995,1.542 0.995,0.995C0.995,0.447 0.547,0 0,0C-0.547,0 -0.995,0.447 -0.995,0.995C-0.995,1.542 -0.547,1.99 0,1.99" style="fill:rgb(214,179,112);fill-rule:nonzero;"/>
        </g>
        <g transform="matrix(1,0,0,1,246.279,86.7318)">
            <path d="M0,1.99C0.547,1.99 0.995,1.542 0.995,0.995C0.995,0.447 0.547,0 0,0C-0.547,0 -0.995,0.447 -0.995,0.995C-0.995,1.542 -0.547,1.99 0,1.99" style="fill:rgb(214,179,112);fill-rule:nonzero;"/>
        </g>
        <g transform="matrix(1,0,0,1,225.629,96.5838)">
            <path d="M0,-7.551L2.252,1.766L17.017,1.766L19.866,-7.165L15.002,-3.085L13.572,-8.919L10.213,-2.824L6.27,-9.317L4.727,-2.787L0,-7.551Z" style="fill:rgb(214,179,112);fill-rule:nonzero;"/>
        </g>
        <g transform="matrix(1,0,0,1,0,-251.724)">
            <rect x="227.903" y="350.906" width="14.734" height="1.48" style="fill:rgb(214,179,112);"/>
        </g>
        <g transform="matrix(1,0,0,1,0,-247.098)">
            <rect x="227.903" y="348.593" width="14.734" height="1.48" style="fill:rgb(214,179,112);"/>
        </g>
        <g transform="matrix(1,0,0,1,99.7637,119.314)">
            <path d="M0,-51.024L7.96,-51.024L19.024,-20.046L16.866,-19.681L16.866,-51.024L25.973,-51.024L25.973,0L17.81,0L6.881,-30.396L9.108,-30.614L9.108,0L0,0L0,-51.024Z" style="fill:white;fill-rule:nonzero;"/>
        </g>
        <g transform="matrix(1,0,0,1,130.797,73.0287)">
            <path d="M0,41.547L0,32.29L9.107,32.29L9.107,36.664L10.322,38.048L14.909,38.048L16.191,36.664L16.191,24.418L15.179,23.252L4.048,23.252L0,18.805L0,-4.738L25.299,-4.738L25.299,3.498L9.107,3.498L9.107,14.431L10.052,15.307L21.049,15.307L25.299,19.972L25.299,41.474L20.846,46.285L4.385,46.285L0,41.547Z" style="fill:white;fill-rule:nonzero;"/>
        </g>
        <g transform="matrix(1,0,0,1,161.964,119.314)">
            <path d="M0,-51.024L20.644,-51.024L20.644,-45.703L5.599,-45.703L5.599,-29.667L16.191,-29.667L16.191,-24.71L5.599,-24.71L5.599,0L0,0L0,-51.024Z" style="fill:white;fill-rule:nonzero;"/>
        </g>
        <g transform="matrix(1,0,0,1,186.857,72.8826)">
            <path d="M0,41.839L0,0L4.25,-4.592L18.755,-4.592L23.005,0L23.005,7.435L17.406,7.435L17.406,2.551L15.651,0.729L7.421,0.729L5.599,2.551L5.599,39.288L7.421,41.11L15.651,41.11L17.406,39.288L17.406,34.404L23.005,34.404L23.005,41.839L18.755,46.431L4.25,46.431L0,41.839Z" style="fill:white;fill-rule:nonzero;"/>
        </g>
        <g transform="matrix(1,0,0,1,16.7101,89.5947)">
            <path d="M0,8.415L9.454,-1.075L9.454,-5.641L8.784,-6.402L5.988,-6.402L5.318,-5.641L5.318,-3L0,-3L0,-8.685L2.442,-11.46L12.29,-11.46L14.772,-8.64L14.772,0.895L5.318,10.385L5.318,14.816L14.772,14.816L14.772,19.875L0,19.875L0,8.415Z" style="fill:white;fill-rule:nonzero;"/>
        </g>
        <g transform="matrix(1,0,0,1,42.2754,83.328)">
            <path d="M0,20.949L0.709,20.143L0.709,0.805L0,-0.001L-2.718,-0.001L-3.427,0.805L-3.427,20.143L-2.718,20.949L0,20.949ZM-8.745,23.187L-8.745,-2.239L-6.145,-5.193L3.427,-5.193L6.027,-2.239L6.027,23.187L3.427,26.142L-6.145,26.142L-8.745,23.187Z" style="fill:white;fill-rule:nonzero;"/>
        </g>
        <g transform="matrix(1,0,0,1,261.337,89.6005)">
            <path d="M0,8.413L9.451,-1.074L9.451,-5.638L8.781,-6.399L5.985,-6.399L5.316,-5.638L5.316,-2.998L0,-2.998L0,-8.681L2.441,-11.456L12.286,-11.456L14.767,-8.637L14.767,0.895L5.316,10.382L5.316,14.812L14.767,14.812L14.767,19.869L0,19.869L0,8.413Z" style="fill:white;fill-rule:nonzero;"/>
        </g>
        <g transform="matrix(1,0,0,1,278.151,81.0538)">
            <path d="M0,25.507L0,19.824L5.316,19.824L5.316,22.508L6.024,23.359L8.703,23.359L9.451,22.508L9.451,14.991L8.86,14.275L2.362,14.275L0,11.545L0,-2.909L14.767,-2.909L14.767,2.148L5.316,2.148L5.316,8.86L5.867,9.397L12.286,9.397L14.767,12.261L14.767,25.462L12.168,28.416L2.56,28.416L0,25.507Z" style="fill:white;fill-rule:nonzero;"/>
        </g>
    </g>
</svg>
