<?xml version="1.0" encoding="UTF-8" standalone="no"?>
<!DOCTYPE svg PUBLIC "-//W3C//DTD SVG 1.1//EN" "http://www.w3.org/Graphics/SVG/1.1/DTD/svg11.dtd">
<svg width="100%" height="100%" viewBox="0 0 800 800" version="1.1" xmlns="http://www.w3.org/2000/svg" xmlns:xlink="http://www.w3.org/1999/xlink" xml:space="preserve" xmlns:serif="http://www.serif.com/" style="fill-rule:evenodd;clip-rule:evenodd;stroke-linejoin:round;stroke-miterlimit:2;">
    <g id="Modo-de-aislamiento" serif:id="Modo de aislamiento" transform="matrix(0.445757,0,0,0.445757,219.843,165.953)">
        <g transform="matrix(1,0,0,1,808.3,478.769)">
            <path d="M0,84.772L0,-447.889L-2.221,-448.241C-21.011,-451.221 -30.553,-452.665 -50.03,-455.352C-285.005,-486.57 -523.292,-486.57 -758.283,-455.351C-777.742,-452.666 -787.284,-451.221 -806.08,-448.241L-808.3,-447.889L-808.3,84.785C-807.944,156.556 -788.68,228.345 -752.593,292.39C-716.323,356.758 -664.709,410.305 -603.356,447.23C-553.186,478.127 -499.879,511.303 -430.513,554.796L-422.646,559.736C-417.107,563.213 -412.555,566.071 -405.535,570.466L-404.136,571.342L-394.798,565.481C-389.294,562.024 -384.753,559.173 -377.764,554.796C-310.248,512.445 -255.333,478.272 -204.934,447.247C-143.565,409.099 -91.942,355.519 -55.645,292.304C-18.539,227.678 0.703,155.906 0,84.772" style="fill-rule:nonzero;"/>
        </g>
        <g transform="matrix(1,0,0,1,757.929,998.775)">
            <path d="M0,-958.271C-235.682,-989.143 -471.88,-989.144 -707.561,-958.271C-720.942,-956.433 -727.628,-955.471 -740.989,-953.46C-740.988,-939.996 -740.953,-553.576 -740.944,-436.245C-740.202,-296.178 -664.721,-160.113 -544.125,-87.647C-486.33,-52.074 -428.762,-16.141 -371.261,19.906C-364.267,24.292 -360.771,26.485 -353.777,30.873C-346.785,26.485 -343.287,24.292 -336.294,19.906C-278.797,-16.138 -221.232,-52.07 -163.441,-87.641C-44.819,-161.4 34.833,-295.22 33.385,-436.245C33.394,-553.576 33.429,-939.996 33.43,-953.46C20.068,-955.471 13.381,-956.434 0,-958.271" style="fill:rgb(253,234,12);fill-rule:nonzero;"/>
        </g>
        <g transform="matrix(1,0,0,1,758.54,970.564)">
            <path d="M0,-775.24C-235.164,-800.911 -473.632,-800.911 -708.784,-775.239L-714.131,-774.655L-714.039,-410.223C-714.017,-278.488 -643.647,-153.425 -530.393,-83.841C-466.674,-44.638 -404.562,-5.788 -357.575,23.673L-354.389,25.671L-351.202,23.673C-304.115,-5.851 -241.918,-44.753 -178.386,-83.841C-65.133,-153.425 5.234,-278.488 5.255,-410.223L5.348,-774.655L0,-775.24Z" style="fill-rule:nonzero;"/>
        </g>
        <g transform="matrix(1,0,0,1,445.936,844.358)">
            <path d="M0,-532.001L-0.073,-0.573C-0.075,13.902 -7.529,27.56 -19.526,35.069C-33.257,43.663 -50.314,43.666 -64.043,35.072C-71.94,30.128 -76.246,27.436 -83.493,22.912L-83.576,-573.828C-67.431,-574.036 -58.059,-574.09 -40.64,-574.081C-18.116,-573.664 -0.264,-555.155 0,-532.001M-40.55,-630.333C-71.581,-630.326 -102.952,-629.907 -133.943,-629.028L-138.606,-628.897L-138.427,54.597L-136.163,56.004C-117.782,67.428 -108.592,73.161 -90.212,84.651L-90.197,84.662C-75.494,93.775 -58.643,98.332 -41.789,98.332C-24.932,98.332 -8.07,93.772 6.643,84.651L9.181,83.066C37.258,65.302 54.764,33.345 54.871,-0.346L55.01,-531.141C54.916,-584.724 11.161,-630.148 -40.55,-630.333" style="fill:rgb(253,234,12);fill-rule:nonzero;"/>
        </g>
        <g transform="matrix(1,0,0,1,715.618,522.98)">
            <path d="M0,50.683C-8.783,39.936 -21.691,33.197 -35.417,32.195L-40.635,31.814L-40.566,37.045C-39.576,111.853 -69.886,186.4 -124.073,243.322L-123.834,-303.543L-128.364,-303.798C-146.619,-304.827 -155.539,-305.267 -173.815,-306.042L-178.815,-306.254L-179.053,356.937L-171.486,351.603C-157.242,341.561 -150.12,336.555 -135.92,326.621C-56.148,272.184 -1.259,183.057 10.908,88.208C12.636,74.731 8.762,61.404 0,50.683" style="fill:rgb(253,234,12);fill-rule:nonzero;"/>
        </g>
        <g transform="matrix(1,0,0,1,266.433,880.32)">
            <path d="M0,-663.376C-27.523,-661.614 -49.421,-638.187 -49.856,-609.966C-49.815,-507.632 -49.742,-359.943 -49.707,-288.265L-134.36,-654.909L-138.515,-654.545C-138.788,-654.521 -165.914,-652.142 -183.823,-650.362L-188.148,-649.932L-188.025,-318.002C-188.017,-257.143 -172.113,-197.234 -142.034,-144.751L-133.065,-129.101L-133.185,-403.314L-71.462,-113.174C-61.546,-68.183 -36.336,-29.047 -2.321,-5.805L5.345,0.328L5.104,-663.704L0,-663.376Z" style="fill:rgb(253,234,12);fill-rule:nonzero;"/>
        </g>
        <g transform="matrix(1,0,0,1,302.384,103.103)">
            <path d="M0,-20.985C0.869,-20.291 1.005,-20.128 1.005,-19.721C1.005,-19.406 0.994,-19.016 0.984,-18.56C0.916,-15.569 0.768,-9.35 2.623,-2.138L2.683,-1.91C3.733,2.181 6.193,11.764 12.592,20.041C20.636,30.445 32.096,35.533 46.641,35.154C62.743,34.742 73.714,31.402 81.177,24.645C88.103,18.378 91.69,9.524 94.939,-1.832L94.96,-1.903C96.438,-7.846 99.597,-14.475 101.774,-14.476C103.95,-14.478 107.118,-7.854 108.604,-1.912L108.62,-1.841C111.89,9.51 115.489,18.359 122.418,24.617C129.89,31.364 140.872,34.688 156.969,35.079C157.457,35.089 157.94,35.094 158.418,35.094C172.284,35.085 183.243,29.987 190.997,19.92C197.39,11.634 199.836,2.047 200.881,-2.045L200.935,-2.273C202.781,-9.487 202.63,-15.707 202.558,-18.697C202.547,-19.153 202.535,-19.543 202.535,-19.858C202.535,-20.265 202.665,-20.428 203.533,-21.123C204.233,-21.677 205.101,-22.367 205.648,-23.507C207.192,-26.727 207.431,-34.661 205.507,-39.002C204.703,-40.808 203.568,-41.942 202.14,-42.364C154.29,-56.518 115.916,-39.635 111.7,-37.668C109.064,-36.434 103.631,-36.159 101.759,-36.158C99.886,-36.156 94.449,-36.424 91.815,-37.654C87.592,-39.616 49.2,-56.446 1.369,-42.228C-0.063,-41.803 -1.196,-40.668 -1.999,-38.86C-3.917,-34.523 -3.662,-26.583 -2.118,-23.366C-1.569,-22.227 -0.7,-21.538 0,-20.985" style="fill-rule:nonzero;"/>
        </g>
        <g transform="matrix(1,0,0,1,81.7953,154.488)">
            <path d="M0,-78.646C-5.867,-51.379 -11.129,-45.886 -37.054,-39.848C-37.496,-39.746 -37.498,-39.117 -37.057,-39.011C-11.167,-32.825 -5.936,-27.302 -0.224,-0.003C-0.13,0.451 0.519,0.454 0.616,-0.001C6.483,-27.267 11.746,-32.761 37.67,-38.799C38.111,-38.9 38.114,-39.53 37.672,-39.635C11.783,-45.821 6.552,-51.344 0.841,-78.643C0.745,-79.098 0.097,-79.1 0,-78.646" style="fill-rule:nonzero;"/>
        </g>
        <g transform="matrix(1,0,0,1,205.11,142.508)">
            <path d="M0,-78.646C-5.867,-51.379 -11.129,-45.886 -37.054,-39.848C-37.496,-39.746 -37.498,-39.117 -37.057,-39.011C-11.167,-32.825 -5.935,-27.302 -0.224,-0.003C-0.13,0.451 0.519,0.454 0.616,-0.001C6.483,-27.267 11.746,-32.761 37.67,-38.799C38.111,-38.9 38.114,-39.53 37.672,-39.635C11.783,-45.821 6.552,-51.344 0.841,-78.643C0.745,-79.098 0.097,-79.1 0,-78.646" style="fill-rule:nonzero;"/>
        </g>
        <g transform="matrix(1,0,0,1,602.564,142.508)">
            <path d="M0,-78.646C-5.867,-51.379 -11.129,-45.886 -37.054,-39.848C-37.496,-39.746 -37.498,-39.117 -37.057,-39.011C-11.167,-32.825 -5.936,-27.302 -0.224,-0.003C-0.13,0.451 0.519,0.454 0.616,-0.001C6.483,-27.267 11.746,-32.761 37.67,-38.799C38.111,-38.9 38.114,-39.53 37.672,-39.635C11.783,-45.821 6.552,-51.344 0.841,-78.643C0.745,-79.098 0.097,-79.1 0,-78.646" style="fill-rule:nonzero;"/>
        </g>
        <g transform="matrix(1,0,0,1,725.88,154.488)">
            <path d="M0,-78.646C-5.867,-51.379 -11.129,-45.886 -37.054,-39.848C-37.496,-39.746 -37.498,-39.117 -37.057,-39.011C-11.167,-32.825 -5.935,-27.302 -0.224,-0.003C-0.13,0.451 0.519,0.454 0.616,-0.001C6.483,-27.267 11.746,-32.761 37.67,-38.799C38.111,-38.9 38.114,-39.53 37.672,-39.635C11.783,-45.821 6.552,-51.344 0.841,-78.643C0.745,-79.098 0.097,-79.1 0,-78.646" style="fill-rule:nonzero;"/>
        </g>
    </g>
</svg>
