<?xml version="1.0" encoding="UTF-8" standalone="no"?>
<!DOCTYPE svg PUBLIC "-//W3C//DTD SVG 1.1//EN" "http://www.w3.org/Graphics/SVG/1.1/DTD/svg11.dtd">
<svg width="100%" height="100%" viewBox="0 0 800 800" version="1.1" xmlns="http://www.w3.org/2000/svg" xmlns:xlink="http://www.w3.org/1999/xlink" xml:space="preserve" xmlns:serif="http://www.serif.com/" style="fill-rule:evenodd;clip-rule:evenodd;stroke-linejoin:round;stroke-miterlimit:2;">
    <g id="Layer-1" serif:id="Layer 1" transform="matrix(0.283956,0,0,0.283599,228.486,168.592)">
        <g transform="matrix(1,0,0,1,1095.1,49.9949)">
            <path d="M0,1531.94L-982.173,1531.94C-1016.93,1531.94 -1045.11,1503.77 -1045.11,1469.01L-1045.11,62.932C-1045.11,28.176 -1016.93,0 -982.173,0L0,0C34.756,0 62.932,28.176 62.932,62.932L62.932,1469.01C62.932,1503.77 34.756,1531.94 0,1531.94" style="fill:white;fill-rule:nonzero;"/>
        </g>
        <g transform="matrix(1,0,0,1,1095.1,1631.94)">
            <path d="M0,-1631.94L-982.173,-1631.94C-1012.34,-1631.94 -1040.7,-1620.2 -1062.03,-1598.87C-1083.36,-1577.54 -1095.11,-1549.18 -1095.11,-1519.01L-1095.11,-112.932C-1095.11,-82.767 -1083.36,-54.408 -1062.03,-33.077C-1040.7,-11.747 -1012.34,0 -982.173,0L0,0C30.165,0 58.525,-11.747 79.855,-33.077C101.185,-54.407 112.932,-82.767 112.932,-112.932L112.932,-1519.01C112.932,-1549.18 101.185,-1577.54 79.855,-1598.87C58.525,-1620.2 30.165,-1631.94 0,-1631.94M0,-1581.94C34.757,-1581.94 62.932,-1553.77 62.932,-1519.01L62.932,-112.932C62.932,-78.176 34.757,-50 0,-50L-982.173,-50C-1016.93,-50 -1045.11,-78.176 -1045.11,-112.932L-1045.11,-1519.01C-1045.11,-1553.77 -1016.93,-1581.94 -982.173,-1581.94L0,-1581.94Z" style="fill:white;fill-rule:nonzero;"/>
        </g>
        <g transform="matrix(1,0,0,1,109.25,460.399)">
            <path d="M0,-410.404L989.537,-410.404C1022.26,-410.404 1048.79,-383.877 1048.79,-351.154L1048.79,0L-59.25,0L-59.25,-351.154C-59.25,-383.877 -32.723,-410.404 0,-410.404" style="fill:rgb(3,4,5);fill-rule:nonzero;"/>
        </g>
        <g transform="matrix(1,0,0,1,1098.79,489.4)">
            <path d="M0,-468.405L-989.537,-468.405C-1038.2,-468.405 -1077.79,-428.816 -1077.79,-380.155L-1077.79,0L88.25,0L88.25,-380.155C88.25,-428.816 48.661,-468.405 0,-468.405M0,-439.405C32.723,-439.405 59.25,-412.878 59.25,-380.155L59.25,-29L-1048.79,-29L-1048.79,-380.155C-1048.79,-412.878 -1022.26,-439.405 -989.537,-439.405L0,-439.405Z" style="fill:white;fill-rule:nonzero;"/>
        </g>
        <g transform="matrix(1,0,0,1,1098.79,1171.54)">
            <path d="M0,410.404L-989.537,410.404C-1022.26,410.404 -1048.79,383.877 -1048.79,351.154L-1048.79,0L59.25,0L59.25,351.154C59.25,383.877 32.723,410.404 0,410.404" style="fill:rgb(3,4,5);fill-rule:nonzero;"/>
        </g>
        <g transform="matrix(1,0,0,1,1187.04,1610.94)">
            <path d="M0,-468.404L-1166.04,-468.404L-1166.04,-88.249C-1166.04,-39.588 -1126.45,0 -1077.79,0L-88.25,0C-39.589,0 0,-39.588 0,-88.249L0,-468.404ZM-29,-439.404L-29,-88.249C-29,-55.527 -55.527,-29 -88.25,-29L-1077.79,-29C-1110.51,-29 -1137.04,-55.527 -1137.04,-88.249L-1137.04,-439.404L-29,-439.404Z" style="fill:white;fill-rule:nonzero;"/>
        </g>
        <g transform="matrix(1,0,0,1,153.818,318.805)">
            <path d="M0,-80.143C17.082,-80.143 28.552,-74.58 34.411,-63.459C37.688,-57.203 39.326,-47.569 39.326,-34.56L39.326,43.05L82.079,43.05L82.079,-119.32L41.561,-119.32L41.561,-91.017C35.006,-101.84 29.297,-109.24 24.43,-113.213C16.486,-119.865 6.159,-123.193 -6.554,-123.193C-7.348,-123.193 -8.018,-123.168 -8.565,-123.119C-9.11,-123.068 -10.327,-122.993 -12.215,-122.895L-12.215,-79.398C-9.534,-79.696 -7.15,-79.894 -5.065,-79.994C-2.979,-80.092 -1.289,-80.143 0,-80.143" style="fill:white;fill-rule:nonzero;"/>
        </g>
        <g transform="matrix(1,0,0,1,311.291,226.001)">
            <path d="M0,112.914C0.398,113.412 1.392,114.902 2.979,117.383C4.569,119.867 6.457,122.052 8.64,123.937C15.294,129.896 21.726,133.969 27.931,136.152C34.138,138.336 41.412,139.43 49.754,139.43C73.788,139.43 89.974,130.79 98.316,113.51C102.985,103.976 105.317,89.925 105.317,71.353L105.317,-26.516L61.82,-26.516L61.82,71.353C61.82,80.589 60.728,87.541 58.543,92.208C54.67,100.452 47.072,104.572 35.751,104.572C21.253,104.572 11.321,98.714 5.959,86.994C3.18,80.64 1.788,72.247 1.788,61.82L1.788,-26.516L-41.263,-26.516L-41.263,135.854L0,135.854L0,112.914Z" style="fill:white;fill-rule:nonzero;"/>
        </g>
        <g transform="matrix(1,0,0,1,430.255,143.028)">
            <path d="M0,218.827L51.243,218.827L90.123,149.41L107.7,167.733L107.7,218.827L149.41,218.827L149.41,0L107.7,0L107.7,118.277L54.818,57.202L2.234,57.202L58.989,119.32L0,218.827Z" style="fill:white;fill-rule:nonzero;"/>
        </g>
        <g transform="matrix(1,0,0,1,751.055,143.028)">
            <path d="M0,218.827L-51.243,218.827L-90.123,149.41L-107.701,167.733L-107.701,218.827L-149.41,218.827L-149.41,0L-107.701,0L-107.701,118.277L-54.819,57.202L-2.234,57.202L-58.99,119.32L0,218.827Z" style="fill:white;fill-rule:nonzero;"/>
        </g>
        <g transform="matrix(1,0,0,1,804.766,231.363)">
            <path d="M0,99.806C3.971,103.083 8.838,104.722 14.598,104.722C23.734,104.722 32.15,102.04 39.848,96.678C47.542,91.315 51.541,81.535 51.839,67.332L51.839,51.542C49.158,53.232 46.451,54.596 43.721,55.638C40.988,56.681 37.241,57.649 32.474,58.543L22.94,60.331C14.003,61.921 7.597,63.857 3.724,66.14C-2.83,70.013 -6.108,76.023 -6.108,84.165C-6.108,91.415 -4.073,96.629 0,99.806M-31.58,-14.3C-20.359,-28.6 -1.094,-35.751 26.218,-35.751C43.993,-35.751 59.783,-32.224 73.588,-25.174C87.39,-18.122 94.294,-4.815 94.294,14.748L94.294,89.23C94.294,94.395 94.391,100.651 94.592,107.999C94.89,113.562 95.732,117.335 97.124,119.32C98.514,121.308 100.599,122.947 103.38,124.236L103.38,130.492L57.202,130.492C55.91,127.215 55.016,124.138 54.521,121.257C54.022,118.378 53.627,115.1 53.329,111.425C47.468,117.782 40.716,123.193 33.07,127.662C23.932,132.925 13.604,135.557 2.085,135.557C-12.613,135.557 -24.754,131.361 -34.336,122.97C-43.921,114.579 -48.711,102.688 -48.711,87.293C-48.711,67.332 -41.016,52.883 -25.622,43.945C-17.182,39.08 -4.767,35.603 11.619,33.517L26.069,31.73C33.912,30.738 39.524,29.495 42.901,28.006C48.958,25.425 51.988,21.403 51.988,15.94C51.988,9.288 49.679,4.693 45.061,2.161C40.443,-0.372 33.666,-1.638 24.728,-1.638C14.696,-1.638 7.597,0.846 3.426,5.81C0.447,9.485 -1.541,14.45 -2.532,20.707L-43.497,20.707C-42.604,6.506 -38.633,-5.162 -31.58,-14.3" style="fill:white;fill-rule:nonzero;"/>
        </g>
        <g transform="matrix(1,0,0,1,1041.01,355.3)">
            <path d="M0,-148.367C12.711,-140.223 20.01,-126.22 21.898,-106.359L-20.557,-106.359C-21.153,-111.82 -22.694,-116.14 -25.175,-119.319C-29.844,-125.077 -37.788,-127.959 -49.009,-127.959C-58.245,-127.959 -64.825,-126.518 -68.747,-123.639C-72.671,-120.758 -74.631,-117.383 -74.631,-113.51C-74.631,-108.643 -72.545,-105.116 -68.374,-102.933C-64.203,-100.647 -49.456,-96.726 -24.132,-91.165C-7.25,-87.192 5.411,-81.185 13.854,-73.141C22.196,-64.996 26.367,-54.818 26.367,-42.603C26.367,-26.515 20.382,-13.381 8.417,-3.202C-3.552,6.976 -22.047,12.066 -47.072,12.066C-72.596,12.066 -91.44,6.678 -103.604,-4.096C-115.77,-14.87 -121.852,-28.601 -121.852,-45.284L-78.802,-45.284C-77.908,-37.736 -75.971,-32.373 -72.992,-29.196C-67.729,-23.536 -57.998,-20.706 -43.795,-20.706C-35.453,-20.706 -28.824,-21.946 -23.909,-24.429C-18.993,-26.911 -16.535,-30.635 -16.535,-35.602C-16.535,-40.369 -18.523,-43.993 -22.493,-46.476C-26.467,-48.957 -41.214,-53.228 -66.736,-59.287C-85.109,-63.853 -98.069,-69.565 -105.615,-76.418C-113.163,-83.17 -116.936,-92.901 -116.936,-105.615C-116.936,-120.608 -111.052,-133.494 -99.284,-144.271C-87.516,-155.045 -70.958,-160.433 -49.605,-160.433C-29.346,-160.433 -12.811,-156.411 0,-148.367" style="fill:white;fill-rule:nonzero;"/>
        </g>
        <g transform="matrix(1,0,0,1,1071.06,555.032)">
            <path d="M0,478.45L-186.48,478.45L-227,406.12L-227,477.86L-307.19,334.68L-320.4,348.45L-320.4,382.82L-332.56,361.12L-333.46,362.06L-333.46,359.52L-347.37,334.68L-383.57,372.42L-383.57,478.45L-426.86,478.45L-426.86,453.21L-507.22,453.21L-507.22,478.45L-550.51,478.45L-550.51,372.42L-586.72,334.68L-600.63,359.52L-600.63,362.06L-601.53,361.12L-613.68,382.82L-613.68,348.46L-626.89,334.68L-707.09,477.86L-707.09,406.12L-747.6,478.45L-934.08,478.45L-880.85,388.66L-880.85,456.44L-787.44,298.87L-787.44,366.64L-731.55,272.36L-787.44,211.19L-787.44,255.17L-880.85,152.93L-880.85,196.9L-929.46,143.71L-740.19,143.71L-707.09,181.95L-707.09,143.71L-700.01,143.71L-613.68,243.42L-613.68,197.02L-550.51,269.97L-550.51,25.24L-510.33,25.24L-510.33,0L-423.75,0L-423.75,25.24L-383.57,25.24L-383.57,269.97L-320.4,197.02L-320.4,243.42L-234.07,143.71L-227,143.71L-227,181.95L-193.89,143.71L-4.63,143.71L-53.23,196.9L-53.23,152.93L-146.64,255.17L-146.64,211.19L-202.53,272.36L-146.64,366.64L-146.64,298.87L-53.23,456.44L-53.23,388.66L0,478.45Z" style="fill:rgb(3,4,5);fill-rule:nonzero;"/>
        </g>
        <g transform="matrix(1,0,0,1,581.067,1428.92)">
            <path d="M0,-105.574L-81.781,-105.574L-81.781,-68.059L-10.181,-68.059L-10.181,-39.729L-81.781,-39.729L-81.781,28.662L-115.644,28.662L-115.644,-134.236L0,-134.236L0,-105.574Z" style="fill:white;fill-rule:nonzero;"/>
        </g>
        <g transform="matrix(1,0,0,1,719.706,1308.07)">
            <path d="M0,137.334C-12.173,148.475 -27.74,154.044 -46.7,154.044C-70.161,154.044 -88.606,146.519 -102.032,131.469C-115.461,116.346 -122.173,95.614 -122.173,69.276C-122.173,40.799 -114.537,18.851 -99.266,3.43C-85.986,-9.996 -69.093,-16.71 -48.582,-16.71C-21.137,-16.71 -1.07,-7.709 11.62,10.292C18.628,20.4 22.39,30.543 22.907,40.724L-11.177,40.724C-13.39,32.905 -16.231,27.002 -19.698,23.018C-25.895,15.936 -35.081,12.394 -47.254,12.394C-59.648,12.394 -69.424,17.393 -76.58,27.389C-83.736,37.387 -87.314,51.533 -87.314,69.829C-87.314,88.127 -83.534,101.83 -75.971,110.941C-68.409,120.053 -58.801,124.608 -47.143,124.608C-35.191,124.608 -26.08,120.698 -19.809,112.877C-16.342,108.672 -13.465,102.364 -11.177,93.954L22.576,93.954C19.624,111.734 12.099,126.195 0,137.334" style="fill:white;fill-rule:nonzero;"/>
        </g>
    </g>
</svg>
