<?xml version="1.0" encoding="UTF-8" standalone="no"?>
<!DOCTYPE svg PUBLIC "-//W3C//DTD SVG 1.1//EN" "http://www.w3.org/Graphics/SVG/1.1/DTD/svg11.dtd">
<svg width="100%" height="100%" viewBox="0 0 800 800" version="1.1" xmlns="http://www.w3.org/2000/svg" xmlns:xlink="http://www.w3.org/1999/xlink" xml:space="preserve" xmlns:serif="http://www.serif.com/" style="fill-rule:evenodd;clip-rule:evenodd;stroke-linejoin:round;stroke-miterlimit:2;">
    <g id="Layer-1" serif:id="Layer 1" transform="matrix(0.49625,0,0,0.49625,221.636,171.587)">
        <g transform="matrix(1,0,0,1,0,797.251)">
            <path d="M0,-673.946L0,-416.675L0.028,-415.569C4.173,-334.432 26.654,-212.228 110.214,-90.819C186.446,19.946 282.454,84.025 349.571,118.277L359.424,123.305L369.277,118.277C436.394,84.025 532.401,19.946 608.634,-90.819C692.193,-212.227 714.674,-334.432 718.819,-415.569L718.848,-797.251L0,-673.946Z" style="fill:white;fill-rule:nonzero;"/>
        </g>
        <g transform="matrix(1,0,0,1,636.044,728.296)">
            <path d="M0,-368.84L0,-349.73C-2.07,-311.3 -8.35,-272.72 -18.65,-235.07C-34.9,-175.62 -60.79,-119.84 -95.6,-69.3C-112.4,-44.88 -131.41,-21.59 -152.14,0L-152.14,-342.01L0,-368.84Z" style="fill:rgb(58,70,80);fill-rule:nonzero;"/>
        </g>
        <g transform="matrix(1,0,0,1,234.944,728.286)">
            <path d="M0,-298.22L0,0C-20.75,-21.61 -39.76,-44.9 -56.54,-69.29C-91.35,-119.84 -117.24,-175.61 -133.49,-235.06C-136.9,-247.51 -139.92,-260.32 -142.48,-273.18L0,-298.22Z" style="fill:rgb(58,70,80);fill-rule:nonzero;"/>
        </g>
        <g transform="matrix(1,0,0,1,463.364,679.896)">
            <path d="M0,-289.9L0,-0.04C-3.71,-5.51 -7.89,-10.71 -12.49,-15.59C-23.05,-26.8 -35.43,-35.89 -49.29,-42.59C-66.37,-50.87 -84.76,-55.07 -103.91,-55.07C-123.03,-55.07 -141.41,-50.88 -158.55,-42.6C-172.41,-35.88 -184.78,-26.8 -195.34,-15.59C-199.96,-10.69 -204.14,-5.48 -207.86,0L-207.86,-253.34L0,-289.9Z" style="fill:rgb(58,70,80);fill-rule:nonzero;"/>
        </g>
        <g transform="matrix(1,0,0,1,373.224,170.656)">
            <path d="M0,7.39L8.56,32.25L-13.87,19.91L-36.02,39.91L-27.56,12.38L-49.92,0.07L-22.28,-4.8L-13.76,-32.52L-5.24,-7.8L22.19,-12.64L0,7.39Z" style="fill:rgb(58,70,80);fill-rule:nonzero;"/>
        </g>
        <g transform="matrix(1,0,0,1,487.344,150.426)">
            <path d="M0,7.39L8.57,32.25L-13.86,19.91L-36.01,39.91L-27.55,12.37L-49.91,0.07L-22.27,-4.8L-13.75,-32.52L-5.24,-7.81L22.19,-12.64L0,7.39Z" style="fill:rgb(58,70,80);fill-rule:nonzero;"/>
        </g>
        <g transform="matrix(1,0,0,1,601.474,130.096)">
            <path d="M0,7.4L8.57,32.25L-13.86,19.91L-36.01,39.91L-27.55,12.38L-49.92,0.08L-22.27,-4.8L-13.76,-32.51L-5.24,-7.8L22.19,-12.64L0,7.4Z" style="fill:rgb(58,70,80);fill-rule:nonzero;"/>
        </g>
        <g transform="matrix(1,0,0,1,144.964,210.636)">
            <path d="M0,7.4L8.57,32.25L-13.86,19.91L-36.01,39.91L-27.55,12.38L-49.91,0.08L-22.27,-4.8L-13.75,-32.51L-5.23,-7.8L22.19,-12.64L0,7.4Z" style="fill:rgb(58,70,80);fill-rule:nonzero;"/>
        </g>
        <g transform="matrix(1,0,0,1,259.094,190.566)">
            <path d="M0,7.39L8.57,32.25L-13.86,19.91L-36.01,39.91L-27.55,12.37L-49.91,0.07L-22.27,-4.8L-13.76,-32.52L-5.24,-7.81L22.19,-12.64L0,7.39Z" style="fill:rgb(58,70,80);fill-rule:nonzero;"/>
        </g>
        <g transform="matrix(1,0,0,1,311.354,474.646)">
            <path d="M0,-6.66C0.67,-7.44 1.48,-7.92 2.43,-8.09L43.09,-15.28L43.09,-27.31L-0.62,-19.58C-4.02,-18.98 -6.96,-17.22 -9.36,-14.36C-11.76,-11.56 -12.98,-8.43 -12.98,-5.04L-12.98,20.65L-0.94,18.51L-0.94,10.48L-0.72,10.44L41.52,2.97L41.52,-9.07L-0.94,-1.55L-0.94,-4.12C-0.94,-5.03 -0.62,-5.88 0,-6.66" style="fill:white;fill-rule:nonzero;"/>
        </g>
        <g transform="matrix(1,0,0,1,383.074,449.506)">
            <path d="M0,18.77C-1.81,19.09 -3.39,18.72 -4.69,17.69C-5.97,16.6 -6.61,15.13 -6.61,13.32L-6.61,12.48C-6.61,10.72 -5.98,9.07 -4.73,7.56C-3.45,6.05 -1.89,5.13 -0.1,4.81L36.88,-1.73L36.88,-13.76L-6.29,-6.12C-9.68,-5.52 -12.62,-3.77 -15.03,-0.91C-17.43,1.89 -18.65,5.03 -18.65,8.42L-18.65,21.84C-18.65,25.21 -17.44,27.91 -15.06,29.87C-12.71,31.84 -9.79,32.53 -6.39,31.93L37.42,24.18L37.42,12.14L0,18.77Z" style="fill:white;fill-rule:nonzero;"/>
        </g>
        <g transform="matrix(1,0,0,1,156.034,497.526)">
            <path d="M0,5.06C4.08,4.35 5.75,2.55 5.75,-1.13L5.75,-11.16C5.75,-12.79 5.39,-13.88 4.66,-14.5C3.84,-15.19 2.39,-15.36 0.35,-15L-14.57,-12.41L-14.57,-5.75L-1.95,-7.95L-1.95,-1.21L-9.97,0.19C-14,0.89 -15.72,2.77 -15.72,6.47L-15.72,20.42L5.75,16.68L5.75,10.07L-8.02,12.47L-8.02,6.46L0,5.06Z" style="fill:white;fill-rule:nonzero;"/>
        </g>
        <g transform="matrix(1,0,0,1,183.524,485.966)">
            <path d="M0,17.84L-7.83,19.21L-7.83,-0.15L0,-1.51L0,17.84ZM6.56,-8.04C6.01,-8.51 5.21,-8.74 4.13,-8.74C3.58,-8.74 2.95,-8.68 2.25,-8.56L-9.82,-6.46C-13.82,-5.76 -15.53,-3.89 -15.53,-0.18L-15.53,22.24C-15.53,23.96 -15.16,25.1 -14.42,25.72C-13.6,26.41 -12.19,26.58 -10.13,26.22L1.94,24.12C5.97,23.41 7.69,21.55 7.69,17.88L7.69,-4.54C7.69,-6.26 7.32,-7.41 6.56,-8.04" style="fill:white;fill-rule:nonzero;"/>
        </g>
        <g transform="matrix(1,0,0,1,547.604,428.706)">
            <path d="M0,5.06C4.08,4.35 5.75,2.55 5.75,-1.13L5.75,-11.16C5.75,-12.79 5.39,-13.88 4.66,-14.5C3.84,-15.19 2.39,-15.36 0.35,-15L-14.57,-12.41L-14.57,-5.75L-1.95,-7.95L-1.95,-1.21L-9.97,0.18C-14,0.89 -15.72,2.76 -15.72,6.46L-15.72,20.42L5.75,16.68L5.75,10.07L-8.02,12.47L-8.02,6.45L0,5.06Z" style="fill:white;fill-rule:nonzero;"/>
        </g>
        <g transform="matrix(1,0,0,1,574.824,423.966)">
            <path d="M0,5.06C4.08,4.35 5.75,2.55 5.75,-1.13L5.75,-11.16C5.75,-12.79 5.39,-13.88 4.66,-14.5C3.84,-15.19 2.39,-15.36 0.35,-15L-14.57,-12.41L-14.57,-5.75L-1.94,-7.95L-1.94,-1.21L-9.97,0.19C-14,0.89 -15.72,2.77 -15.72,6.47L-15.72,20.42L5.75,16.68L5.75,10.07L-8.02,12.47L-8.02,6.45L0,5.06Z" style="fill:white;fill-rule:nonzero;"/>
        </g>
        <g transform="matrix(1,0,0,1,291.906,269.105)">
            <path d="M0,74.592C0,71.736 2.066,69.292 4.867,68.794L130.428,46.653C132.851,46.22 135.047,48.102 135.047,50.525L135.047,60.801C135.047,63.667 133.002,66.09 130.179,66.609L4.597,88.73C2.207,89.162 0,87.323 0,84.868L0,74.592ZM-38.562,56.561L-38.562,116.226C-38.562,127.215 -29.93,134.603 -19.265,132.721L154.333,102.11C164.987,100.217 173.619,89.811 173.619,78.822L173.619,-55.717C173.619,-58.172 171.412,-60.011 169.022,-59.589L139.892,-54.441C137.102,-53.954 135.047,-51.498 135.047,-48.664L135.047,1.136C135.047,3.991 133.002,6.436 130.179,6.912L-19.265,33.273C-29.93,35.165 -38.562,45.571 -38.562,56.561" style="fill:rgb(0,232,94);fill-rule:nonzero;"/>
        </g>
        <g transform="matrix(1,0,0,1,659.144,746.67)">
            <path d="M0,-572.106L-0.022,-572.102L-155.057,-544.768C-165.712,-542.875 -174.333,-532.47 -174.333,-521.48L-174.333,-461.815C-174.333,-450.825 -165.712,-443.448 -155.057,-445.32L-5.322,-471.734C-2.921,-472.123 -0.725,-470.285 -0.725,-467.861L-0.725,-457.553C-0.725,-454.719 -2.791,-452.274 -5.592,-451.777L-169.476,-422.897C-172.289,-422.377 -174.333,-419.954 -174.333,-417.099L-174.333,-386.909C-174.333,-384.476 -172.115,-382.637 -169.747,-383.059L-0.022,-412.988L0,-412.992L0,-367.483C-2.131,-327.223 -8.686,-286.811 -19.47,-247.352C-36.398,-185.426 -63.386,-127.287 -99.676,-74.577C-129.97,-30.544 -163.731,5.342 -197.235,34.405C-195.66,29.131 -194.474,23.737 -193.733,18.235C-193.085,13.522 -192.757,8.656 -192.757,3.771C-192.757,-23.611 -203.091,-49.654 -221.851,-69.553C-230.85,-79.115 -241.394,-86.852 -253.178,-92.544C-267.737,-99.6 -283.386,-103.177 -299.691,-103.177C-315.976,-103.177 -331.626,-99.606 -346.222,-92.557C-358,-86.844 -368.538,-79.107 -377.54,-69.559C-396.305,-49.653 -406.639,-23.611 -406.639,3.771C-406.639,8.656 -406.311,13.522 -405.667,18.21C-404.923,23.741 -403.73,29.158 -402.147,34.452C-435.67,5.381 -469.454,-30.52 -499.764,-74.577C-536.054,-127.287 -563.042,-185.426 -579.97,-247.352C-585.476,-267.482 -589.878,-287.839 -593.145,-308.315L-593.145,-308.326C-593.145,-308.348 -593.156,-308.38 -593.156,-308.402L-444.394,-334.632C-433.728,-336.525 -425.086,-346.931 -425.086,-357.921L-425.086,-417.585C-425.086,-428.575 -433.728,-435.952 -444.394,-434.081L-594.086,-407.667C-596.498,-407.256 -598.683,-409.094 -598.683,-411.539L-598.683,-421.825C-598.683,-424.671 -596.639,-427.126 -593.816,-427.612L-256.345,-487.115C-253.522,-487.635 -251.499,-490.057 -251.499,-492.913L-251.499,-523.103C-251.499,-525.525 -253.695,-527.375 -256.086,-526.942L-599.44,-466.412L-599.44,-573.246L0,-676.08L0,-572.106ZM-334.891,75.934C-333.143,75.934 -331.352,75.896 -329.565,75.822C-307.088,74.869 -285.813,68.293 -266.306,56.27C-262.638,66.16 -261.404,75.318 -261.138,82.323C-268.124,85.745 -275.609,88.253 -283.437,89.72C-294.049,91.732 -305.349,91.731 -315.974,89.717C-320.232,88.917 -324.431,87.8 -328.523,86.376C-332.495,84.995 -336.484,83.384 -340.169,81.349C-343.479,79.496 -346.56,77.209 -349.682,75.059C-344.752,75.63 -339.807,75.934 -334.891,75.934M-347.129,-58.055C-357.544,-38.108 -362.486,-16.396 -361.824,6.503C-372.216,4.737 -380.759,1.231 -386.956,-2.038C-385.625,-22.286 -377.384,-41.34 -363.373,-56.203C-355.999,-64.024 -347.37,-70.361 -337.74,-75.032C-337.098,-75.341 -336.453,-75.639 -335.807,-75.932C-340.077,-70.271 -343.875,-64.285 -347.129,-58.055M-295.556,-49.299C-305.992,-31.188 -308.749,-13.583 -309.19,-1.801C-319.684,3.671 -330.947,6.807 -342.695,7.526C-343.28,-6.611 -341.501,-27.592 -330.207,-49.219C-323.376,-62.304 -313.712,-74.138 -302.126,-83.673C-301.317,-83.695 -300.505,-83.706 -299.691,-83.706C-289.491,-83.706 -279.612,-81.992 -270.204,-78.61C-278.859,-71.785 -288.068,-62.29 -295.556,-49.299M-212.642,12.283C-215.399,5.803 -218.663,-0.435 -222.406,-6.327C-234.47,-25.317 -250.805,-40.455 -270.969,-51.334C-264.219,-59.479 -256.883,-65.135 -250.944,-68.866C-245.536,-65.233 -240.542,-61.003 -236.024,-56.204C-220.678,-39.925 -212.228,-18.626 -212.228,3.771C-212.228,6.633 -212.37,9.479 -212.642,12.283M-274.988,39.193C-286.94,46.768 -306.001,55.717 -330.372,56.75C-345.085,57.372 -360.128,54.931 -374.139,49.701C-374.853,48.544 -375.548,47.373 -376.212,46.177C-380.859,37.827 -384.059,28.877 -385.754,19.508C-375.538,23.571 -362.741,26.78 -347.767,26.78C-326.862,26.762 -310.239,20.349 -299.816,14.84C-289.831,21.189 -281.486,29.376 -274.988,39.193M-243.091,70.402C-244.687,59.53 -248.308,46.87 -255.776,33.96C-266.243,15.863 -280.109,4.672 -290.091,-1.6C-289.586,-13.418 -286.67,-24.74 -281.418,-35.277C-268.881,-28.716 -251.599,-16.685 -238.519,3.91C-230.624,16.335 -225.215,30.579 -222.741,45.335C-222.893,45.616 -223.031,45.903 -223.187,46.183C-228.275,55.343 -234.857,63.367 -242.552,70.019C-242.732,70.147 -242.911,70.275 -243.091,70.402M-637.277,-605.155L-637.277,-380.181C-637.277,-369.192 -628.635,-361.804 -617.969,-363.686L-599.776,-366.898L-599.419,-366.963L-468.255,-390.089C-465.865,-390.522 -463.68,-388.683 -463.68,-386.228L-463.68,-375.952C-463.68,-373.075 -465.703,-370.652 -468.504,-370.143L-598.002,-347.309L-598.359,-347.245L-635.406,-340.711C-635.406,-340.678 -635.395,-340.635 -635.395,-340.603C-634.292,-329.105 -632.723,-316.103 -630.419,-301.825C-630.419,-301.793 -630.409,-301.771 -630.409,-301.738C-619.927,-236.557 -594.378,-145.296 -530.949,-53.117C-450.905,63.174 -350.418,122.969 -299.72,148.853C-249.011,122.969 -148.535,63.174 -68.491,-53.117C20.671,-182.679 34.97,-310.446 37.837,-366.498L37.837,-499.219C37.837,-499.479 37.837,-499.749 37.815,-499.998C37.809,-500.128 37.788,-500.251 37.78,-500.38C37.751,-500.888 37.706,-501.389 37.64,-501.879C37.635,-501.911 37.63,-501.943 37.625,-501.975C36.308,-511.406 28.294,-517.434 18.562,-515.715L-0.022,-512.437L-131.153,-489.311C-133.554,-488.878 -135.75,-490.717 -135.75,-493.173L-135.75,-503.449C-135.75,-506.304 -133.705,-508.749 -130.904,-509.246L-0.022,-532.318L0,-532.322L0,-532.167L37.837,-538.841L37.837,-720.959L-637.277,-605.155Z" style="fill:rgb(0,232,94);fill-rule:nonzero;"/>
        </g>
    </g>
</svg>
