<?xml version="1.0" encoding="UTF-8" standalone="no"?>
<!DOCTYPE svg PUBLIC "-//W3C//DTD SVG 1.1//EN" "http://www.w3.org/Graphics/SVG/1.1/DTD/svg11.dtd">
<svg width="100%" height="100%" viewBox="0 0 800 800" version="1.1" xmlns="http://www.w3.org/2000/svg" xmlns:xlink="http://www.w3.org/1999/xlink" xml:space="preserve" xmlns:serif="http://www.serif.com/" style="fill-rule:evenodd;clip-rule:evenodd;stroke-miterlimit:10;">
    <g id="Layer-1" serif:id="Layer 1" transform="matrix(0.301418,0,0,0.301418,199.465,156.92)">
        <g transform="matrix(1.09152,0,0,1.09152,1070.21,558.304)">
            <path d="M0,478.9C-82.98,624.29 -260.59,720.63 -338.52,757.49C-352.38,764.05 -363.09,768.72 -369.54,771.45C-375.99,768.72 -386.69,764.05 -400.55,757.49C-478.47,720.63 -656.09,624.29 -739.07,478.9C-804.07,364.97 -836.69,285.57 -836.69,82.61C-836.69,74.88 -836.62,66.55 -836.51,57.84C-836.83,37.5 -836.61,18.87 -836.54,1.16C-836.51,-7.59 -836.14,-25.45 -835.66,-45.32C-834.7,-84.84 -833.33,-132.35 -833.33,-132.35C-833.33,-132.35 -832.49,-131.56 -830.76,-131.75C-726.96,-143.12 -606.51,-175.45 -548.63,-197.38C-534.16,-202.87 -510.35,-215.03 -496.67,-220.47C-438.55,-243.66 -399.77,-268.59 -372.24,-290.81C-371.36,-290.1 -300.51,-243.66 -242.37,-220.47C-228.71,-215.03 -204.89,-202.87 -190.41,-197.38C-132.55,-175.45 -12.09,-143.12 91.72,-131.75C93.43,-131.56 94.27,-132.35 94.27,-132.35C94.27,-132.35 95.64,-84.83 96.6,-45.32C97.07,-25.45 97.45,-7.59 97.48,1.16C97.55,18.87 97.79,37.5 97.45,57.84C97.58,66.55 97.63,74.88 97.63,82.61C97.63,285.58 65.01,364.98 0.01,478.9L0,478.9ZM194.37,-46.66C194.77,-73.55 194.48,-98.15 194.4,-121.57C194.37,-133.15 193.9,-156.73 193.34,-183C192.19,-235.23 190.53,-298.04 190.53,-298.04C190.53,-298.04 189.48,-297.76 187.45,-297.25C175.7,-294.33 130.86,-283.67 61.7,-273.01C44.73,-270.38 26.27,-269.38 6.87,-269.82C-6.68,-269.49 -20.79,-269.98 -35.26,-271.15C-74.99,-274.34 -117.5,-282.9 -158.67,-295.53C-176.69,-301.05 -193.99,-307.59 -210.5,-314.8C-280.68,-345.42 -336.28,-388.2 -369.52,-417.58C-402.77,-388.22 -458.36,-345.43 -528.56,-314.8C-545.06,-307.59 -562.37,-301.05 -580.39,-295.53C-621.55,-282.9 -664.07,-274.34 -703.8,-271.15C-718.27,-269.97 -732.38,-269.49 -745.93,-269.82C-765.33,-269.38 -783.79,-270.39 -800.76,-273.01C-869.91,-283.67 -914.75,-294.32 -926.49,-297.25C-928.53,-297.76 -929.58,-298.04 -929.58,-298.04C-929.58,-298.04 -931.24,-235.24 -932.39,-183C-932.96,-156.74 -933.41,-133.15 -933.45,-121.57C-933.54,-98.16 -933.8,-73.55 -933.42,-46.66C-933.56,-35.14 -933.63,-24.16 -933.63,-13.94C-933.63,254.33 -894.24,359.26 -815.74,509.81C-715.55,701.98 -501.06,829.3 -406.95,878.02C-390.22,886.69 -377.29,892.86 -369.5,896.48C-361.7,892.86 -348.78,886.67 -332.07,878.02C-237.95,829.31 -23.47,701.98 76.72,509.81C155.22,359.26 194.61,254.33 194.61,-13.94C194.61,-24.16 194.54,-35.14 194.4,-46.66L194.37,-46.66Z" style="fill:rgb(241,234,77);fill-rule:nonzero;"/>
        </g>
        <g transform="matrix(1.09152,0,0,1.09152,1373.81,1080.92)">
            <path d="M0,-502.91C-7.29,-402.05 -21.21,-306.53 -41.38,-219C-51.56,-174.83 -63.5,-130.04 -77.06,-88.67C-77.06,-88.67 -95.17,-30.05 -104.15,-8.84C-131.92,56.86 -157.58,104.08 -194.78,160.02C-336.55,373.34 -514.78,469.06 -632.73,532.37C-638.08,535.25 -643.95,538.08 -649.03,540.82C-654.1,538.07 -658.68,535.25 -664.03,532.37C-781.96,469.06 -960.21,373.34 -1101.97,160.02C-1139.17,104.08 -1164.39,55.47 -1192.16,-10.23L-1220.42,-88.67C-1234.28,-130.43 -1246.46,-173.99 -1256.84,-219C-1277.01,-306.53 -1290.93,-402.05 -1298.22,-502.91C-1306.03,-610.89 -1306.43,-728.07 -1299.47,-851.21C-1295.05,-849.96 -1273.6,-844.15 -1240.17,-839.49C-1216.84,-836.23 -1184.28,-833.09 -1145.64,-833.09C-1126.97,-833.09 -1106.86,-833.81 -1085.69,-835.64C-1012.63,-841.88 -941.94,-859.43 -875.58,-887.78C-792.84,-923.16 -716.57,-975.83 -649.02,-1043.73C-579.89,-974.24 -509.07,-924.74 -422.62,-887.78C-356.26,-859.42 -285.58,-841.88 -212.51,-835.64C-191.33,-833.81 -171.24,-833.09 -152.56,-833.09C-113.91,-833.09 -81.36,-836.23 -58.04,-839.49C-24.62,-844.16 -3.18,-849.94 1.26,-851.2C8.25,-728.07 7.83,-610.88 0.02,-502.91L0,-502.91Z" style="fill:rgb(74,74,74);fill-rule:nonzero;stroke:black;stroke-width:66.35px;"/>
        </g>
        <g transform="matrix(1.09152,0,0,1.09152,1305.13,1381.87)">
            <path d="M0,-1036.75C-1.29,-957.58 -3.25,-882.06 -8.16,-803.77C-30.09,-347.98 -174.32,-22.17 -586.35,177.44C-998.74,-22.31 -1142.82,-348.48 -1164.74,-803.77C-1169.65,-882.07 -1171.61,-957.57 -1172.9,-1036.75C-941.92,-993.23 -752.02,-1078.68 -586.12,-1214.19C-425.09,-1080.14 -225.26,-992.64 0,-1036.75" style="fill:rgb(241,234,77);fill-rule:nonzero;"/>
        </g>
        <g transform="matrix(1.09152,0,0,1.09152,663.664,53.1685)">
            <path d="M0,1396.19C-200.42,1299.11 -343.3,1169.77 -436.82,1000.78C-481.18,920.62 -514.35,832.47 -538.21,731.3C-560.52,636.69 -574.16,532.78 -579.9,413.65C-585.08,331.08 -586.88,252.83 -588.06,180.58L-588.12,177.1L-584.7,177.74C-544.63,185.29 -504.49,189.12 -465.39,189.12C-381.73,189.12 -298.27,171.47 -217.34,136.66C-145.03,105.56 -74.02,61.15 -0.24,0.89L1.57,-0.59L3.37,0.91C73.56,59.34 146.45,104.89 220.02,136.29C302.28,171.41 386.4,189.21 470.03,189.22L470.04,189.22C508.87,189.22 548.26,185.36 587.13,177.75L590.57,177.08L590.51,180.58C589.33,252.83 587.52,331.08 582.35,413.69C576.62,532.86 562.96,636.84 540.61,731.52C516.73,832.69 483.54,920.84 439.14,1001.01C345.63,1169.87 202.79,1299.13 2.47,1396.18L1.23,1396.78L0,1396.19Z" style="fill:none;fill-rule:nonzero;stroke:black;stroke-width:33.18px;"/>
        </g>
        <g transform="matrix(1.09152,0,0,1.09152,1198.29,1282.3)">
            <path d="M0,-855.328C-0.19,-836.278 -0.47,-818.448 -0.84,-801.508C-0.89,-799.318 -0.93,-797.128 -0.98,-794.958C-1.09,-790.678 -1.19,-786.438 -1.3,-782.258C-1.41,-777.988 -1.52,-773.758 -1.65,-769.568C-1.78,-765.478 -1.91,-761.428 -2.04,-757.408C-2.17,-753.328 -2.31,-749.268 -2.46,-745.248C-2.61,-741.298 -2.77,-737.388 -2.92,-733.498C-3.07,-729.548 -3.24,-725.628 -3.42,-721.718C-3.59,-717.878 -3.76,-714.058 -3.95,-710.248C-4.03,-708.298 -4.13,-706.368 -4.23,-704.428C-4.42,-700.628 -4.62,-696.838 -4.82,-693.068C-4.91,-691.148 -5.02,-689.218 -5.13,-687.308C-5.55,-679.728 -5.99,-672.168 -6.45,-664.588C-6.69,-660.768 -6.92,-656.938 -7.17,-653.118C-7.35,-650.248 -7.54,-647.378 -7.74,-644.508C-8.02,-640.178 -8.32,-635.838 -8.63,-631.458C-8.94,-627.078 -9.24,-622.678 -9.56,-618.228C-9.7,-616.258 -9.86,-614.258 -10,-612.268C-12.69,-575.318 -16.62,-539.348 -21.73,-504.608C-22.37,-500.268 -23.03,-495.938 -23.7,-491.638C-24.38,-487.328 -25.08,-483.048 -25.79,-478.778C-26.5,-474.518 -27.23,-470.268 -27.98,-466.048C-29.1,-459.708 -30.27,-453.418 -31.48,-447.178C-34.3,-432.608 -37.35,-418.298 -40.6,-404.268C-41.57,-400.148 -42.55,-396.038 -43.55,-391.948C-49.56,-367.428 -56.31,-343.508 -63.77,-320.318C-65.02,-316.458 -66.28,-312.608 -67.56,-308.788L-88.47,-251.318C-94.89,-236.268 -101.12,-222.448 -107.51,-209.308C-108.78,-206.688 -110.07,-204.078 -111.36,-201.508C-114.58,-195.048 -117.86,-188.748 -121.24,-182.518C-122.6,-180.028 -123.95,-177.548 -125.33,-175.068C-127.41,-171.358 -129.51,-167.668 -131.67,-163.978C-133.11,-161.508 -134.57,-159.058 -136.06,-156.588C-136.8,-155.348 -137.55,-154.118 -138.3,-152.878C-140.57,-149.188 -142.89,-145.468 -145.27,-141.728C-146.46,-139.868 -147.67,-137.978 -148.9,-136.088C-150.14,-134.198 -151.38,-132.308 -152.64,-130.398C-153.49,-129.138 -154.34,-127.848 -155.2,-126.578C-157.65,-122.918 -160.13,-119.298 -162.61,-115.728C-164.26,-113.348 -165.93,-110.988 -167.6,-108.648C-169.28,-106.308 -170.95,-103.998 -172.63,-101.698C-174.31,-99.398 -175.99,-97.118 -177.69,-94.868C-181.08,-90.348 -184.49,-85.908 -187.91,-81.558C-188.76,-80.468 -189.62,-79.388 -190.48,-78.308C-191.77,-76.688 -193.05,-75.078 -194.35,-73.478C-196.95,-70.278 -199.54,-67.128 -202.14,-64.018C-203.44,-62.468 -204.75,-60.928 -206.06,-59.388C-209.54,-55.288 -213.05,-51.278 -216.56,-47.338C-219.19,-44.378 -221.85,-41.458 -224.49,-38.578C-226.26,-36.668 -228.03,-34.768 -229.8,-32.878C-231.57,-30.998 -233.34,-29.138 -235.12,-27.288C-236.01,-26.368 -236.9,-25.448 -237.79,-24.538C-239.57,-22.708 -241.35,-20.888 -243.14,-19.099C-326.99,65.302 -415.14,112.161 -479.22,146.231C-482.05,147.741 -484.83,149.221 -487.55,150.671C-490.28,149.221 -493.06,147.741 -495.88,146.231C-559.28,112.531 -646.25,66.292 -729.29,-16.419C-733.2,-20.309 -737.09,-24.279 -740.98,-28.339C-742.92,-30.359 -744.85,-32.409 -746.8,-34.479C-747.76,-35.519 -748.72,-36.559 -749.7,-37.609C-752.59,-40.749 -755.48,-43.919 -758.37,-47.159C-761.01,-50.119 -763.65,-53.129 -766.28,-56.179C-768.91,-59.219 -771.53,-62.319 -774.14,-65.439C-776.75,-68.569 -779.34,-71.739 -781.94,-74.959C-783.08,-76.389 -784.24,-77.839 -785.4,-79.289C-785.54,-79.469 -785.68,-79.639 -785.81,-79.819C-786.94,-81.249 -788.06,-82.679 -789.2,-84.129C-789.35,-84.329 -789.52,-84.529 -789.67,-84.739C-790.08,-85.269 -790.48,-85.789 -790.9,-86.319C-791.77,-87.449 -792.65,-88.589 -793.52,-89.729C-793.67,-89.929 -793.84,-90.139 -794,-90.359C-795.11,-91.819 -796.23,-93.299 -797.34,-94.789C-798.27,-96.029 -799.2,-97.279 -800.11,-98.529C-800.76,-99.399 -801.41,-100.279 -802.05,-101.159C-802.89,-102.289 -803.73,-103.439 -804.55,-104.579C-804.57,-104.619 -804.6,-104.639 -804.62,-104.669C-804.67,-104.739 -804.73,-104.809 -804.77,-104.879C-805.99,-106.539 -807.2,-108.229 -808.4,-109.929C-808.65,-110.269 -808.88,-110.609 -809.12,-110.959C-809.6,-111.639 -810.09,-112.339 -810.58,-113.029C-811.21,-113.919 -811.83,-114.809 -812.44,-115.709C-812.89,-116.339 -813.33,-116.969 -813.76,-117.599C-814.26,-118.319 -814.75,-119.039 -815.25,-119.749C-815.46,-120.069 -815.69,-120.379 -815.9,-120.689C-816.11,-120.999 -816.34,-121.329 -816.55,-121.649C-817.66,-123.289 -818.78,-124.929 -819.89,-126.579C-824.19,-132.979 -828.27,-139.249 -832.19,-145.459C-832.97,-146.709 -833.75,-147.949 -834.51,-149.179C-836.04,-151.659 -837.55,-154.119 -839.04,-156.589C-840.53,-159.059 -841.99,-161.509 -843.43,-163.979C-844.87,-166.429 -846.29,-168.899 -847.69,-171.369C-861.67,-196.049 -873.78,-221.239 -886.62,-251.319L-907.53,-308.789C-911.38,-320.259 -915.05,-331.919 -918.54,-343.739C-924.36,-363.459 -929.68,-383.659 -934.48,-404.269C-936.34,-412.279 -938.14,-420.389 -939.86,-428.589C-940.71,-432.689 -941.56,-436.799 -942.39,-440.949C-944.03,-449.229 -945.6,-457.599 -947.11,-466.049C-947.85,-470.269 -948.59,-474.519 -949.3,-478.779C-950.01,-483.049 -950.7,-487.339 -951.39,-491.639C-952.06,-495.939 -952.72,-500.269 -953.36,-504.609C-958.47,-539.349 -962.39,-575.319 -965.09,-612.269C-965.67,-620.249 -966.22,-628.079 -966.75,-635.839C-967.02,-639.709 -967.27,-643.559 -967.53,-647.379C-967.66,-649.319 -967.78,-651.239 -967.91,-653.149C-968.15,-656.959 -968.39,-660.759 -968.63,-664.559L-968.63,-664.599C-968.76,-666.739 -968.89,-668.869 -969.02,-671.009C-969.78,-683.799 -970.47,-696.549 -971.1,-709.469C-971.21,-711.629 -971.31,-713.789 -971.41,-715.949L-971.41,-716.019C-971.59,-719.869 -971.76,-723.709 -971.93,-727.599C-972.1,-731.479 -972.26,-735.379 -972.4,-739.319L-972.4,-739.429C-972.57,-743.839 -972.73,-748.289 -972.9,-752.789C-972.95,-754.289 -973.01,-755.799 -973.05,-757.309C-973.18,-761.399 -973.31,-765.539 -973.44,-769.709C-973.56,-773.809 -973.68,-777.949 -973.79,-782.119C-973.96,-788.519 -974.11,-795.029 -974.25,-801.669C-974.62,-818.569 -974.9,-836.349 -975.09,-855.329C-974.78,-855.249 -973.74,-855.129 -972.12,-854.989C-956.53,-853.669 -903.98,-845.279 -823.3,-852.329C-769.69,-857.029 -707.88,-873.219 -658.96,-893.789C-658.58,-893.939 -658.19,-894.099 -657.82,-894.259C-656.49,-894.829 -655.11,-895.429 -653.67,-896.049C-652.97,-896.359 -652.28,-896.679 -651.56,-896.989C-650.85,-897.309 -650.14,-897.629 -649.42,-897.959C-603.87,-918.859 -520.32,-968.759 -488.2,-1006C-456.05,-968.759 -371.19,-918.859 -325.65,-897.959C-324.93,-897.629 -324.22,-897.309 -323.51,-896.989C-322.8,-896.659 -322.09,-896.349 -321.4,-896.049C-319.97,-895.419 -318.59,-894.819 -317.25,-894.259C-316.88,-894.109 -316.49,-893.939 -316.11,-893.789C-267.19,-873.229 -205.39,-857.029 -151.76,-852.329C-71.079,-845.269 -18.54,-853.659 -2.95,-854.989C-1.32,-855.129 -0.28,-855.249 0.02,-855.329L0,-855.329L0,-855.328Z" style="fill-rule:nonzero;"/>
        </g>
        <g transform="matrix(1.09152,0,0,1.09152,493.688,1191.06)">
            <path d="M0,-158.921L134.752,-158.921L134.752,-135.764L31.344,-135.764L31.344,-87.86L124.84,-87.86L124.84,-64.703L31.344,-64.703L31.344,0L0,0L0,-158.921Z" style="fill:white;fill-rule:nonzero;"/>
        </g>
        <g transform="matrix(1.09152,0,0,1.09152,705.111,1023.66)">
            <path d="M0,147.796C-10.004,142.88 -17.773,135.916 -23.307,126.909C-28.845,117.906 -31.611,107.498 -31.611,95.692L-31.611,52.103C-31.611,40.298 -28.799,29.894 -23.173,20.887C-17.547,11.883 -9.645,4.92 0.536,-0C10.716,-4.917 22.503,-7.379 35.897,-7.379L64.295,-7.379C76.974,-7.379 88.226,-5.069 98.05,-0.454C107.87,4.164 115.463,10.67 120.82,19.07C126.179,27.471 128.857,37.197 128.857,48.243L98.05,48.243C98.05,38.56 94.923,30.762 88.673,24.859C82.42,18.957 74.295,16.005 64.295,16.005L35.897,16.005C25.002,16.005 16.249,19.411 9.645,26.222C3.035,33.032 -0.268,41.965 -0.268,53.011L-0.268,94.784C-0.268,105.987 2.947,114.955 9.376,121.688C15.806,128.424 24.286,131.791 34.826,131.791L63.759,131.791C74.115,131.791 82.512,128.463 88.941,121.801C95.371,115.143 98.586,106.516 98.586,95.92L129.394,95.92C129.394,107.726 126.668,118.095 121.223,127.023C115.772,135.955 108.096,142.88 98.184,147.796C88.271,152.717 76.794,155.175 63.759,155.175L34.826,155.175C21.607,155.175 10,152.717 0,147.796" style="fill:white;fill-rule:nonzero;"/>
        </g>
        <g transform="matrix(1.09152,0,0,1.09152,548.486,631.741)">
            <path d="M0,182.14L236.65,0.66L236.65,182.54L0,182.15L0,182.14ZM-74.25,0.65L86.01,0.65L-198.72,182.53L-74.25,0.65ZM614.86,265.87C615.56,262.69 624.84,234.95 625.01,231.68C581.61,168.78 361.92,-83.08 361.92,-83.08L-141.03,-83.73C-166.35,-52.39 -317.85,147.28 -317.85,147.28C-317.85,147.28 -405.8,265.72 -405.19,265.87L335.21,265.87L335.21,46.31C335.21,46.31 522.23,255.06 530.46,265.87L614.86,265.87Z" style="fill:rgb(241,234,77);fill-rule:nonzero;"/>
        </g>
        <g transform="matrix(1.09152,0,0,1.09152,694.794,394.684)">
            <path d="M0,57.41L8.25,82.83L-18.85,82.83L-26.92,76.96L-35,82.83L-62.1,82.83L-53.84,57.41L-97.33,25.81L-97.39,25.76L-43.55,25.76L-26.92,-25.42L-10.29,25.76L43.54,25.76L0,57.41Z" style="fill:white;fill-rule:nonzero;"/>
        </g>
        <g transform="matrix(1.09152,0,0,1.09152,1233.03,976.816)">
            <path d="M0,-50.06L-1039.02,-50.27C-1035.94,-30.04 -1032.61,-17.02 -1028.73,0.21L-10.55,0.21C-6.64,-15.95 -6.41,-17.02 -2.67,-35.05L0,-50.06Z" style="fill-rule:nonzero;"/>
        </g>
        <g transform="matrix(1.09152,0,0,1.09152,735.78,337.903)">
            <path d="M0,11.39L-46,2.55L-64.46,25.28L-81.59,2.61L-128.26,11.39L-92.1,-13.84L-63.79,-13.89L-35.47,-13.84L0,11.39Z" style="fill:white;fill-rule:nonzero;"/>
        </g>
        <g transform="matrix(1.09152,0,0,1.09152,736.796,483.84)">
            <path d="M0,-121.63L22.3,-80.66L6.19,-56.21L32.97,-46.71L38.2,0L51.83,-41.64L43.34,-68.65L34.76,-95.64L0,-121.63Z" style="fill:white;fill-rule:nonzero;"/>
        </g>
        <g transform="matrix(1.09152,0,0,1.09152,594.581,483.84)">
            <path d="M0,-121.63L-22.31,-80.66L-6.2,-56.21L-32.98,-46.71L-38.21,0L-51.83,-41.64L-43.35,-68.65L-34.76,-95.64L0,-121.63Z" style="fill:white;fill-rule:nonzero;"/>
        </g>
    </g>
</svg>
