<?xml version="1.0" encoding="UTF-8" standalone="no"?>
<!DOCTYPE svg PUBLIC "-//W3C//DTD SVG 1.1//EN" "http://www.w3.org/Graphics/SVG/1.1/DTD/svg11.dtd">
<svg width="100%" height="100%" viewBox="0 0 800 800" version="1.1" xmlns="http://www.w3.org/2000/svg" xmlns:xlink="http://www.w3.org/1999/xlink" xml:space="preserve" xmlns:serif="http://www.serif.com/" style="fill-rule:evenodd;clip-rule:evenodd;stroke-linejoin:round;stroke-miterlimit:2;">
    <g id="Layer-1" serif:id="Layer 1" transform="matrix(0.466012,0,0,0.466012,181.02,181.02)">
        <g transform="matrix(1,0,0,1,469.903,6.3754)">
            <path d="M0,927.053C-123.813,927.053 -240.215,878.838 -327.763,791.289C-415.312,703.741 -463.527,587.34 -463.527,463.527C-463.527,339.715 -415.312,223.313 -327.763,135.764C-240.215,48.216 -123.813,0 0,0C123.812,0 240.214,48.216 327.762,135.764C415.311,223.313 463.526,339.715 463.526,463.527C463.526,587.34 415.311,703.741 327.762,791.289C240.214,878.838 123.812,927.053 0,927.053" style="fill:rgb(0,10,160);fill-rule:nonzero;"/>
        </g>
        <g transform="matrix(1,0,0,1,469.902,939.805)">
            <path d="M0,-939.805C-63.431,-939.805 -124.971,-927.379 -182.911,-902.873C-238.868,-879.205 -289.12,-845.325 -332.271,-802.174C-375.422,-759.023 -409.302,-708.771 -432.97,-652.814C-457.477,-594.874 -469.902,-533.333 -469.902,-469.902C-469.902,-406.472 -457.477,-344.931 -432.97,-286.991C-409.302,-231.034 -375.422,-180.782 -332.271,-137.631C-289.12,-94.48 -238.868,-60.6 -182.911,-36.932C-124.971,-12.426 -63.431,0 0,0C63.431,0 124.971,-12.426 182.911,-36.932C238.868,-60.6 289.12,-94.48 332.271,-137.631C375.422,-180.782 409.302,-231.034 432.97,-286.991C457.477,-344.931 469.902,-406.472 469.902,-469.902C469.902,-533.333 457.477,-594.874 432.97,-652.814C409.302,-708.771 375.422,-759.023 332.271,-802.174C289.12,-845.325 238.868,-879.205 182.911,-902.873C124.971,-927.379 63.431,-939.805 0,-939.805M0,-927.053C252.477,-927.053 457.151,-722.38 457.151,-469.902C457.151,-217.425 252.477,-12.752 0,-12.752C-252.477,-12.752 -457.151,-217.425 -457.151,-469.902C-457.151,-722.38 -252.477,-927.053 0,-927.053" style="fill:white;fill-rule:nonzero;"/>
        </g>
        <g transform="matrix(0,-1,-1,0,469.902,189.63)">
            <path d="M-280.273,-280.273C-125.483,-280.273 0,-154.791 0,0C0,154.79 -125.483,280.273 -280.273,280.273C-435.063,280.273 -560.546,154.79 -560.546,0C-560.546,-154.791 -435.063,-280.273 -280.273,-280.273" style="fill:rgb(0,10,160);fill-rule:nonzero;"/>
        </g>
        <g transform="matrix(1,0,0,1,469.902,908.813)">
            <path d="M0,-877.822C-59.183,-877.822 -116.679,-866.196 -170.893,-843.265C-223.177,-821.151 -270.099,-789.526 -310.357,-749.268C-350.615,-709.01 -382.24,-662.088 -404.354,-609.804C-427.285,-555.59 -438.911,-498.094 -438.911,-438.911C-438.911,-379.728 -427.285,-322.232 -404.354,-268.018C-382.24,-215.734 -350.615,-168.812 -310.357,-128.554C-270.099,-88.296 -223.177,-56.671 -170.893,-34.557C-116.679,-11.626 -59.183,0 0,0C59.183,0 116.679,-11.626 170.893,-34.557C223.177,-56.671 270.099,-88.296 310.357,-128.554C350.615,-168.812 382.24,-215.734 404.354,-268.018C427.285,-322.232 438.911,-379.728 438.911,-438.911C438.911,-498.094 427.285,-555.59 404.354,-609.804C382.24,-662.088 350.615,-709.01 310.357,-749.268C270.099,-789.526 223.177,-821.151 170.893,-843.265C116.679,-866.196 59.183,-877.822 0,-877.822M0,-719.184C154.79,-719.184 280.273,-593.701 280.273,-438.911C280.273,-284.121 154.79,-158.638 0,-158.638C-154.79,-158.638 -280.273,-284.121 -280.273,-438.911C-280.273,-593.701 -154.79,-719.184 0,-719.184" style="fill:rgb(255,29,109);fill-rule:nonzero;"/>
        </g>
        <g transform="matrix(1,0,0,1,669.684,770.394)">
            <path d="M12.752,-519.64L-412.315,-519.64L-412.315,-209.89C-412.315,-185.171 -405.902,-160.722 -393.768,-139.187C-381.634,-117.651 -364.045,-99.498 -342.903,-86.692L-206.388,-4.002L-199.782,0L-193.175,-4.002L-56.661,-86.692C-35.518,-99.498 -17.929,-117.651 -5.795,-139.187C6.338,-160.722 12.752,-185.171 12.752,-209.89L12.752,-519.64Z" style="fill:rgb(255,29,109);fill-rule:nonzero;"/>
        </g>
        <g transform="matrix(1,0,0,1,669.684,755.485)">
            <path d="M0,-491.979L-399.563,-491.979L-399.563,-194.981C-399.563,-149.062 -375.572,-106.48 -336.296,-82.69L-199.782,0L-63.267,-82.69C-23.992,-106.48 0,-149.062 0,-194.981L0,-491.979ZM-12.752,-479.227L-12.752,-194.981C-12.752,-174.639 -18.03,-154.519 -28.015,-136.797C-38,-119.074 -52.475,-104.136 -69.874,-93.597L-199.782,-14.908L-329.689,-93.597C-347.088,-104.136 -361.563,-119.074 -371.548,-136.797C-381.534,-154.519 -386.812,-174.639 -386.812,-194.981L-386.812,-479.227L-12.752,-479.227Z" style="fill:white;fill-rule:nonzero;"/>
        </g>
        <g transform="matrix(1,0,0,1,265.432,236.48)">
            <path d="M0,-115.722C0.946,-109.534 3.305,-102.187 7.044,-93.401L30.835,-36.709L18.116,-26.737L-16.205,-48.333L-3.34,-9.912L-15.979,0L-65.362,-36.625C-73.525,-42.698 -79.837,-46.569 -85.593,-48.607L-66.711,-63.413C-66.028,-62.059 -65.021,-60.454 -63.491,-58.504C-60.737,-54.992 -56.732,-51.33 -51.551,-47.454L-25.953,-28.467L-43.28,-82.541L-42.891,-82.847L5.43,-53.201L-6.844,-82.511C-9.494,-88.623 -12.157,-93.464 -14.848,-96.898C-15.951,-98.301 -17.269,-99.662 -18.726,-101.039L0,-115.722Z" style="fill:white;fill-rule:nonzero;"/>
        </g>
        <g transform="matrix(1,0,0,1,302.141,146.172)">
            <path d="M0,-15.274C-3.914,-24.383 -7.291,-29.731 -12.569,-35.232L32.614,-54.648L32.229,-34.951C25.992,-36.156 19.106,-35.355 11.609,-32.457L20.065,-12.781L43.476,-22.841L41.02,-4.196C36.243,-4.516 30.945,-3.535 25.036,-1.212L33.766,19.103C45.517,14.052 53.609,8.525 60.684,0.628L60.945,0.732L61.394,21.366L19.491,39.374C19.132,31.758 17.577,25.627 13.663,16.518L0,-15.274Z" style="fill:white;fill-rule:nonzero;"/>
        </g>
        <g transform="matrix(1,0,0,1,460.295,102.073)">
            <path d="M0,22.461C1.466,32.368 3.262,38.416 7.039,44.974L-17.482,48.602C-15.878,41.148 -15.813,34.824 -17.263,25.015L-21.458,-3.331L-40.451,28.848L-69.203,2.531L-64.835,32.055C-63.383,41.863 -61.487,47.897 -57.697,54.552L-82.218,58.181C-80.615,50.726 -80.548,44.402 -82,34.594L-89.038,-12.977C-92.208,-16.117 -95.517,-18.834 -99.062,-21.116L-99.106,-21.41L-73.605,-25.183C-72.74,-23.407 -71.821,-21.94 -70.72,-20.599C-69.62,-19.258 -67.761,-17.528 -65.323,-15.283L-43.967,4.41L-27.31,-23.915C-25.127,-27.446 -23.85,-30.34 -23.385,-32.614L-2.395,-35.72L-2.352,-35.426C-4.353,-32.023 -5.6,-28.931 -6.008,-26.265C-6.415,-23.598 -6.299,-20.107 -5.647,-15.693L0,22.461Z" style="fill:white;fill-rule:nonzero;"/>
        </g>
        <g transform="matrix(1,0,0,1,506.755,114.706)">
            <path d="M0,-6.44C8.591,-7.325 14.714,-12.692 15.503,-19.388C16.304,-26.181 10.068,-33.406 3.274,-34.206L0,-6.44ZM11.565,3.009C8.71,-0.721 4.83,-3.375 -0.185,-4.865L-4.004,27.529C6.138,28.725 14.236,22.691 15.142,15.011C15.641,10.777 14.42,6.74 11.565,3.009M-1.376,37.422L-26.09,34.509C-22.596,27.734 -20.88,21.646 -19.72,11.8L-15.669,-22.562C-14.509,-32.409 -14.762,-38.728 -16.585,-46.131L7.932,-43.241C24.277,-41.314 34.324,-30.846 32.861,-18.44C32.13,-12.237 27.925,-7.042 21.443,-3.713C30.146,2.904 33.597,9.2 32.621,17.471C31.292,31.29 15.327,39.691 -1.376,37.422" style="fill:white;fill-rule:nonzero;"/>
        </g>
        <g transform="matrix(1,0,0,1,571.568,149.954)">
            <path d="M0,-44.322C3.142,-53.727 4.181,-59.966 3.904,-67.586L27.416,-59.73C22.614,-53.807 19.694,-48.196 16.551,-38.792L2.38,3.623C7.522,4.818 13.322,5.606 19.562,6.018C25.833,6.336 30.881,6.246 34.581,5.496L34.708,5.747L19.549,23.264L-21.83,9.438C-17.029,3.515 -14.109,-2.096 -10.967,-11.5L0,-44.322Z" style="fill:white;fill-rule:nonzero;"/>
        </g>
        <g transform="matrix(1,0,0,1,638.897,180.528)">
            <path d="M0,-49.022C4.911,-57.636 7.144,-63.554 8.354,-71.082L51.081,-46.725L35.129,-35.159C32.332,-40.863 27.543,-45.876 20.711,-50.113L10.104,-31.505L32.243,-18.885L15.882,-9.606C13.259,-13.613 9.283,-17.25 3.867,-20.565L-7.084,-1.354C4.029,4.981 13.318,8.107 23.884,8.994L23.958,9.265L7.76,22.06L-31.867,-0.53C-26.004,-5.406 -22.049,-10.342 -17.138,-18.957L0,-49.022Z" style="fill:white;fill-rule:nonzero;"/>
        </g>
        <g transform="matrix(1,0,0,1,761.488,189.733)">
            <path d="M0,2.613L-0.196,2.837C-3.553,3.059 -7.22,3.934 -14.086,6.355L-50.283,18.937L-58.515,28.335C-65.048,35.794 -68.418,41.145 -71.108,48.279L-89.754,31.946C-83.027,28.481 -78.24,24.369 -71.642,16.837L-63.541,7.588L-56.208,-29.223C-54.74,-36.768 -54.616,-41.273 -55.314,-45.443L-55.118,-45.666L-35.651,-28.615C-36.258,-28.224 -36.92,-27.618 -37.77,-26.648C-39.795,-24.336 -41.26,-21.007 -42.113,-16.875L-45.778,1.003L-28.416,-5.274C-24.432,-6.662 -21.4,-8.62 -19.244,-11.081C-18.591,-11.826 -18.143,-12.488 -17.901,-13.066L0,2.613Z" style="fill:white;fill-rule:nonzero;"/>
        </g>
        <g transform="matrix(1,0,0,1,221.209,729.059)">
            <path d="M0,-24.574C-0.138,-27.647 -1.439,-30.512 -3.857,-33.115L-20.419,-17.74C-13.445,-13.256 -7.114,-13.121 -3.416,-16.555C-0.967,-18.828 0.138,-21.502 0,-24.574M-18.983,24.857L-26.672,16.576C-27.501,14.533 -27.66,10.706 -26.838,6.16C-25.814,0.264 -23.921,-7.409 -21.357,-16.869L-28.649,-10.099C-33.857,-5.265 -36.655,-1.697 -39.099,3.191L-51.186,-9.829C-46.132,-11.906 -42.367,-14.431 -37.159,-19.265L-18.981,-36.142C-13.773,-40.978 -10.976,-44.544 -8.531,-49.431L2.687,-37.349C13.18,-26.047 13.212,-14.73 6.181,-8.203C1.442,-3.803 -4.437,-2.613 -11.4,-4.682C-12.974,-0.214 -14.295,4.213 -15.363,8.598C-16.431,12.984 -17.584,18.321 -18.775,24.664L-18.983,24.857Z" style="fill:white;fill-rule:nonzero;"/>
        </g>
        <g transform="matrix(1,0,0,1,247.332,775.496)">
            <path d="M0,-13.559L11.688,-4.985L16.47,-23.157L0,-13.559ZM18.374,27.591L3.819,16.915C4.228,16.598 4.664,16.125 5.126,15.495C6.597,13.489 7.48,10.964 8.902,5.661L8.97,5.448L-9.422,-8.044L-9.846,-7.826C-14.266,-5.164 -16.551,-3.491 -18.021,-1.486C-18.4,-0.97 -18.721,-0.412 -19.042,0.145L-33.367,-10.362L-33.24,-10.534C-28.973,-11.547 -25.111,-13.208 -18.822,-16.614L7.841,-31.337C14.454,-34.946 19.494,-38.213 23.059,-41.15L32.111,-34.509C30.448,-30.441 28.733,-24.738 26.979,-17.3L20.071,12.18C18.646,18.449 18.233,22.376 18.498,27.419L18.374,27.591Z" style="fill:white;fill-rule:nonzero;"/>
        </g>
        <g transform="matrix(1,0,0,1,339.534,775.479)">
            <path d="M0,42.259C-3.348,49.558 -4.924,54.699 -5.972,60.395L-21.217,53.404C-20.859,51.77 -21.085,48.852 -21.928,44.556L-28.638,10.596L-35.658,25.905C-37.466,29.846 -38.818,33.135 -39.65,35.803C-40.452,38.406 -40.962,41.221 -41.242,44.22L-56.747,37.111C-54.658,34.941 -52.921,32.688 -51.472,30.382C-49.993,28.01 -48.318,24.868 -46.511,20.929L-33.772,-6.848C-34.98,-11.546 -35.865,-14.219 -37.706,-17.878L-37.586,-18.136L-19.564,-9.87C-19.734,-8.307 -19.809,-6.777 -19.726,-5.255C-19.549,-3.766 -19.186,-1.488 -18.638,1.578L-11.35,38.539L-2.345,18.901C-0.538,14.961 0.72,11.706 1.522,9.104C2.355,6.437 2.865,3.62 3.176,0.557L18.808,7.726C16.624,9.93 14.823,12.153 13.344,14.525C11.896,16.831 10.25,19.907 8.443,23.849L0,42.259Z" style="fill:white;fill-rule:nonzero;"/>
        </g>
        <g transform="matrix(1,0,0,1,412.946,831.287)">
            <path d="M0,-20.929L-0.223,-20.909C-5.359,-26.117 -10.089,-28.678 -15.834,-30.014C-25.939,-32.366 -35.357,-26.387 -38.112,-14.551C-40.964,-2.3 -34.831,8.028 -23.688,10.623C-20.85,11.283 -18.383,11.346 -16.168,10.914L-15.313,7.245C-13.913,1.224 -14.195,-3.513 -15.726,-8.538L2.201,-4.365C0.53,-2.2 -1.166,1.637 -2.02,5.305L-3.502,11.672C-4.421,15.618 -4.783,18.744 -4.59,21.05C-11.213,21.916 -19.149,21.529 -26.139,19.901C-48.357,14.73 -55.494,-0.064 -52.094,-14.669C-48.097,-32.781 -31.454,-42.845 -12.484,-38.136C-7.016,-36.864 -1.954,-35.101 2.755,-32.765L0,-20.929Z" style="fill:white;fill-rule:nonzero;"/>
        </g>
        <g transform="matrix(1,0,0,1,434.218,842.703)">
            <path d="M0,-26.388C0.425,-33.481 -0.018,-37.99 -1.628,-43.212L33.55,-41.109L26.967,-28.619C23.361,-31.397 18.693,-33.1 12.961,-33.655L12.046,-18.337L30.274,-17.247L22.702,-6.099C19.747,-7.841 16.039,-8.916 11.508,-9.33L10.562,6.486C19.711,7.033 26.672,6.097 33.742,3.316L33.875,3.467L27.525,16.824L-5.099,14.874C-2.879,9.882 -1.903,5.456 -1.478,-1.636L0,-26.388Z" style="fill:white;fill-rule:nonzero;"/>
        </g>
        <g transform="matrix(1,0,0,1,504.806,848.238)">
            <path d="M0,-38.211C-2.519,-39.975 -5.583,-40.688 -9.121,-40.358L-7.024,-17.862C0.778,-20.658 4.744,-25.595 4.275,-30.618C3.965,-33.943 2.52,-36.448 0,-38.211M27.613,6.955L16.365,8.003C14.241,7.415 11.109,5.21 8.007,1.788C3.958,-2.616 -0.97,-8.792 -6.905,-16.589L-5.983,-6.685C-5.324,0.391 -4.201,4.781 -1.816,9.696L-19.503,11.345C-18.067,6.073 -17.776,1.55 -18.435,-5.524L-20.734,-30.215C-21.393,-37.289 -22.516,-41.679 -24.901,-46.596L-8.487,-48.124C6.864,-49.556 15.853,-42.685 16.743,-33.135C17.342,-26.697 14.704,-21.313 8.821,-17.055C11.403,-13.084 14.107,-9.341 16.932,-5.821C19.758,-2.303 23.286,1.864 27.587,6.672L27.613,6.955Z" style="fill:white;fill-rule:nonzero;"/>
        </g>
        <g transform="matrix(1,0,0,1,545.759,804.648)">
            <path d="M0,29.719L0.276,29.651C3.711,32.226 6.473,33.872 8.646,34.642C10.819,35.411 12.906,35.543 15.04,35.004C18.622,34.098 20.751,30.921 19.931,27.684C19.096,24.378 17.128,23.263 8.521,20.529C-0.395,17.727 -4.438,13.619 -6.232,6.525C-8.514,-2.497 -3.457,-12.058 7.495,-14.828C11.559,-15.856 15.625,-16.005 19.625,-15.258L22.638,-3.341L22.45,-3.22C17.773,-5.775 14.411,-6.318 10.622,-5.359C6.559,-4.332 4.86,-1.483 5.644,1.616C6.48,4.922 9.348,7.275 16.642,9.461C26.594,12.588 30.15,14.767 32.255,22.222C34.955,32.899 27.966,41.481 17.22,44.2C12.467,45.401 8.004,45.724 3.92,45.218L0,29.719Z" style="fill:white;fill-rule:nonzero;"/>
        </g>
        <g transform="matrix(1,0,0,1,637.866,790.006)">
            <path d="M0,6.467L12.752,-0.423L-1.62,-12.524L0,6.467ZM45.05,7.487L29.172,16.065C29.059,15.561 28.818,14.964 28.447,14.275C27.264,12.088 25.361,10.209 21.178,6.654L21.015,6.501L0.949,17.342L0.963,17.819C1.476,22.953 2.01,25.734 3.191,27.921C3.495,28.483 3.862,29.013 4.228,29.541L-11.4,37.985L-11.501,37.797C-10.588,33.508 -10.434,29.307 -10.821,22.166L-12.707,-8.23C-13.136,-15.751 -13.928,-21.703 -15.056,-26.181L-5.18,-31.518C-2.216,-28.275 2.203,-24.281 8.172,-19.512L31.851,-0.647C36.906,3.325 40.278,5.381 44.947,7.299L45.05,7.487Z" style="fill:white;fill-rule:nonzero;"/>
        </g>
        <g transform="matrix(1,0,0,1,673.559,753.169)">
            <path d="M0,-0.874C-4.373,-6.474 -7.689,-9.566 -12.35,-12.418L15.711,-34.33L18.124,-21.428C14.31,-20.884 9.173,-18.225 4.915,-14.9L15.282,-1.627L29.957,-13.085L32.525,-0.214C29.022,0.266 25.149,2.12 20.836,5.487L25.124,10.976C29.497,16.578 32.813,19.668 37.474,22.52L23.472,33.456C21.835,28.241 19.639,24.275 15.266,18.674L0,-0.874Z" style="fill:white;fill-rule:nonzero;"/>
        </g>
        <g transform="matrix(1,0,0,1,717.673,737.184)">
            <path d="M0,-48.352C3.45,-52.035 6.584,-54.55 10.78,-56.95L19.751,-48.547L19.657,-48.342C14.567,-47.17 9.185,-44.229 5.347,-40.132C-1.601,-32.717 -0.623,-21.285 7.779,-13.416C15.921,-5.789 27.345,-5.409 34.097,-12.618C39.004,-17.855 41.502,-24.474 41.314,-30.197L41.512,-30.305L50.253,-21.24C48.835,-15.462 45.697,-9.931 40.79,-4.693C28.949,8.263 11.012,8.598 -0.666,-2.633C-14.344,-15.056 -12.833,-34.964 0,-48.352" style="fill:white;fill-rule:nonzero;"/>
        </g>
        <g transform="matrix(1,0,0,1,467.488,689.326)">
            <path d="M0,-17.801C-0.48,-13.947 -0.887,-10.399 -1.236,-6.937C-2.167,2.138 -2.952,4.886 -5.265,7.111C-5.643,7.475 -9.089,10.631 -13.234,9.918C-17.67,9.162 -21.131,4.421 -21.655,-1.6C-21.684,-1.949 -21.873,-2.269 -22.149,-2.458C-22.353,-2.618 -22.6,-2.691 -22.847,-2.691C-22.935,-2.691 -23.036,-2.676 -23.124,-2.647C-28.839,-1.251 -34.322,-3.011 -36.46,-6.923C-38.612,-10.835 -36.387,-15.46 -36.285,-15.663C-34.875,-18.528 -32.49,-20.113 -24.098,-23.72C-22.222,-24.52 -20.273,-25.422 -18.193,-26.367C-16.914,-26.949 -15.576,-27.559 -14.209,-28.17C-13.627,-28.432 -12.958,-28.374 -12.434,-28.01C-11.911,-27.661 -11.606,-27.065 -11.634,-26.44C-11.722,-24.345 -12.013,-22.251 -12.493,-20.215C-12.871,-18.63 -13.351,-17.059 -13.947,-15.547C-14.136,-15.067 -13.991,-14.558 -13.569,-14.267C-13.162,-13.962 -12.609,-13.976 -12.216,-14.311C-11.111,-15.227 -9.919,-16.085 -8.697,-16.841C-6.719,-18.063 -4.596,-19.037 -2.385,-19.764C-1.789,-19.953 -1.134,-19.837 -0.655,-19.43C-0.16,-19.037 0.087,-18.426 0,-17.801" style="fill:rgb(0,10,160);fill-rule:nonzero;"/>
        </g>
        <g transform="matrix(1,0,0,1,457.715,641.275)">
            <path d="M0,0.408C-0.175,1.019 -0.64,1.484 -1.251,1.659C-3.272,2.211 -5.352,2.589 -7.446,2.764C-9.06,2.895 -10.689,2.924 -12.318,2.808C-12.842,2.793 -13.263,3.084 -13.423,3.578C-13.583,4.058 -13.394,4.582 -12.958,4.858C-11.751,5.614 -10.573,6.472 -9.468,7.418C-7.693,8.93 -6.108,10.632 -4.741,12.508C-4.363,13.017 -4.276,13.671 -4.508,14.268C-4.741,14.849 -5.25,15.271 -5.875,15.387C-9.7,16.129 -13.205,16.842 -16.579,17.569C-25.494,19.489 -28.359,19.59 -31.181,18.078C-31.646,17.831 -35.718,15.533 -36.314,11.359C-36.969,6.909 -33.536,2.153 -27.966,-0.203C-27.647,-0.348 -27.399,-0.61 -27.298,-0.945C-27.196,-1.264 -27.239,-1.628 -27.414,-1.919C-30.511,-6.922 -30.526,-12.681 -27.472,-15.924C-24.418,-19.182 -19.342,-18.498 -19.124,-18.469C-15.954,-18.004 -13.714,-16.215 -7.693,-9.365C-6.326,-7.809 -4.857,-6.209 -3.301,-4.522C-2.356,-3.49 -1.396,-2.428 -0.393,-1.323C0.029,-0.857 0.189,-0.203 0,0.408" style="fill:rgb(0,10,160);fill-rule:nonzero;"/>
        </g>
        <g transform="matrix(1,0,0,1,484.125,615.374)">
            <path d="M0,12.435C-1.047,14.195 -2.109,16.085 -3.229,18.063C-3.927,19.299 -4.639,20.565 -5.381,21.859C-5.701,22.412 -6.283,22.761 -6.923,22.775C-7.548,22.804 -8.144,22.499 -8.493,21.961C-9.642,20.216 -10.646,18.354 -11.46,16.42C-12.085,14.936 -12.609,13.38 -13.016,11.81C-13.132,11.301 -13.554,10.981 -14.078,10.981C-14.587,10.981 -15.023,11.315 -15.139,11.81C-15.503,13.22 -15.954,14.602 -16.507,15.94C-17.394,18.078 -18.528,20.128 -19.895,22.004C-20.259,22.528 -20.87,22.79 -21.495,22.761C-22.12,22.731 -22.673,22.368 -22.978,21.815C-24.84,18.441 -26.599,15.329 -28.359,12.304C-32.94,4.422 -33.929,1.731 -33.362,-1.425C-33.26,-1.948 -32.329,-6.529 -28.563,-8.391C-24.52,-10.369 -18.935,-8.58 -14.965,-4.013C-14.747,-3.752 -14.427,-3.606 -14.078,-3.606L-14.063,-3.606C-13.729,-3.606 -13.394,-3.766 -13.176,-4.028C-10.398,-7.315 -6.705,-9.162 -3.345,-9.162C-2.123,-9.162 -0.945,-8.914 0.131,-8.405C4.159,-6.5 5.09,-1.454 5.119,-1.25C5.672,1.906 4.668,4.596 0,12.435" style="fill:rgb(0,10,160);fill-rule:nonzero;"/>
        </g>
        <g transform="matrix(1,0,0,1,518.433,630.82)">
            <path d="M0,21.843C-0.567,26.293 -5.076,28.707 -5.279,28.809C-8.101,30.293 -10.965,30.176 -19.88,28.155C-21.873,27.704 -23.996,27.282 -26.236,26.817C-27.617,26.54 -29.043,26.25 -30.497,25.944C-31.122,25.813 -31.617,25.377 -31.835,24.781C-32.053,24.17 -31.951,23.53 -31.559,23.036C-30.25,21.392 -28.781,19.865 -27.196,18.498C-25.974,17.436 -24.665,16.462 -23.284,15.589C-22.847,15.313 -22.673,14.819 -22.833,14.324C-22.978,13.859 -23.4,13.553 -23.88,13.553C-23.909,13.553 -23.938,13.553 -23.953,13.568C-25.392,13.655 -26.861,13.655 -28.301,13.539C-30.613,13.364 -32.911,12.913 -35.122,12.201C-35.718,11.997 -36.169,11.517 -36.329,10.907C-36.489,10.296 -36.329,9.656 -35.893,9.205C-33.216,6.355 -30.802,3.708 -28.505,1.148C-22.425,-5.644 -20.171,-7.418 -16.986,-7.854C-16.477,-7.912 -11.824,-8.45 -8.886,-5.44C-5.759,-2.211 -5.73,3.65 -8.857,8.841C-9.031,9.132 -9.075,9.496 -8.959,9.816C-8.857,10.15 -8.609,10.412 -8.275,10.543C-2.85,12.768 0.553,17.422 0,21.843" style="fill:rgb(0,10,160);fill-rule:nonzero;"/>
        </g>
        <g transform="matrix(1,0,0,1,508.732,678.695)">
            <path d="M0,3.708C-2.094,7.693 -7.679,9.511 -13.569,8.158C-13.903,8.071 -14.252,8.144 -14.543,8.347C-14.819,8.565 -14.994,8.871 -15.023,9.22C-15.241,12.143 -16.187,14.79 -17.626,16.782C-19.066,18.789 -21.015,20.171 -23.196,20.593C-27.603,21.422 -31.297,17.873 -31.457,17.728C-33.74,15.502 -34.511,12.739 -35.354,3.635C-35.543,1.599 -35.791,-0.539 -36.038,-2.807C-36.198,-4.218 -36.372,-5.658 -36.532,-7.141C-36.59,-7.781 -36.329,-8.392 -35.834,-8.785C-35.5,-9.032 -35.107,-9.163 -34.714,-9.163C-34.511,-9.163 -34.293,-9.134 -34.075,-9.061C-32.126,-8.319 -30.221,-7.403 -28.432,-6.312C-27.036,-5.469 -25.698,-4.523 -24.447,-3.491C-24.054,-3.156 -23.516,-3.142 -23.109,-3.447C-22.687,-3.753 -22.542,-4.276 -22.731,-4.756C-23.269,-6.094 -23.705,-7.49 -24.054,-8.886C-24.592,-11.155 -24.869,-13.467 -24.883,-15.794C-24.883,-16.42 -24.563,-17.001 -24.025,-17.336C-23.502,-17.685 -22.847,-17.714 -22.266,-17.452C-18.761,-15.809 -15.517,-14.326 -12.333,-12.915C-3.985,-9.235 -1.6,-7.636 -0.218,-4.742C0.015,-4.276 1.949,-0.015 0,3.708" style="fill:rgb(0,10,160);fill-rule:nonzero;"/>
        </g>
        <g transform="matrix(0,-1,-1,0,469.895,643.071)">
            <path d="M-10.261,-10.261C-15.918,-10.261 -20.528,-5.665 -20.528,-0.008C-20.528,5.665 -15.918,10.261 -10.261,10.261C-4.604,10.261 0.006,5.665 0.006,-0.008C0.006,-5.665 -4.604,-10.261 -10.261,-10.261" style="fill:rgb(0,10,160);fill-rule:nonzero;"/>
        </g>
        <g transform="matrix(-0.467591,0.883945,0.883945,0.467591,843.621,448.538)">
            <path d="M-35.471,-58.892L9.925,-58.892L35.471,-21.365L-9.926,-21.365L-35.471,-58.892Z" style="fill:white;fill-rule:nonzero;"/>
        </g>
        <g transform="matrix(-0.467591,0.883945,0.883945,0.467591,886.076,448.538)">
            <path d="M-35.471,-58.892L9.925,-58.892L35.471,-21.365L-9.926,-21.365L-35.471,-58.892Z" style="fill:white;fill-rule:nonzero;"/>
        </g>
        <g transform="matrix(-0.467591,0.883945,0.883945,0.467591,843.621,528.795)">
            <path d="M-35.471,-58.892L9.925,-58.892L35.471,-21.365L-9.926,-21.365L-35.471,-58.892Z" style="fill:white;fill-rule:nonzero;"/>
        </g>
        <g transform="matrix(-0.467591,0.883945,0.883945,0.467591,886.076,528.795)">
            <path d="M-35.471,-58.892L9.925,-58.892L35.471,-21.365L-9.926,-21.365L-35.471,-58.892Z" style="fill:white;fill-rule:nonzero;"/>
        </g>
        <g transform="matrix(-0.467591,0.883945,0.883945,0.467591,124.578,448.538)">
            <path d="M-35.471,-58.892L9.925,-58.892L35.471,-21.365L-9.926,-21.365L-35.471,-58.892Z" style="fill:white;fill-rule:nonzero;"/>
        </g>
        <g transform="matrix(-0.467591,0.883945,0.883945,0.467591,167.032,448.538)">
            <path d="M-35.471,-58.892L9.925,-58.892L35.471,-21.365L-9.926,-21.365L-35.471,-58.892Z" style="fill:white;fill-rule:nonzero;"/>
        </g>
        <g transform="matrix(-0.467591,0.883945,0.883945,0.467591,124.578,528.795)">
            <path d="M-35.471,-58.892L9.925,-58.892L35.471,-21.365L-9.926,-21.365L-35.471,-58.892Z" style="fill:white;fill-rule:nonzero;"/>
        </g>
        <g transform="matrix(-0.467591,0.883945,0.883945,0.467591,167.032,528.795)">
            <path d="M-35.471,-58.892L9.925,-58.892L35.471,-21.365L-9.926,-21.365L-35.471,-58.892Z" style="fill:white;fill-rule:nonzero;"/>
        </g>
        <g transform="matrix(1,0,0,1,453.905,481.17)">
            <path d="M0,85.106L-44.458,85.106C-46.291,72.875 -49.418,60.834 -53.737,49.301C-57.765,38.51 -62.87,28.126 -68.905,18.397C-62.346,12.638 -51.483,5.148 -36.692,1.977C-28.679,0.261 -20.462,0 -12.26,1.192C-12.972,8.391 -15.285,15.415 -18.95,21.509C-22.251,26.963 -26.527,31.602 -31.66,35.281C-31.733,35.325 -31.762,35.412 -31.762,35.485C-31.18,41.215 -29.784,46.77 -27.603,51.991C-26.323,55.031 -24.767,57.983 -22.964,60.761C-22.92,60.834 -22.847,60.877 -22.774,60.863C-22.425,60.834 -22.004,60.819 -21.524,60.819C-18.47,60.819 -12.943,61.473 -7.999,65.56C0.262,72.41 0.102,83.114 0,85.106" style="fill:rgb(0,10,160);fill-rule:nonzero;"/>
        </g>
        <g transform="matrix(1,0,0,1,633.571,498.098)">
            <path d="M0,-5.614C0,28.751 -8.958,35.645 -23.429,35.645C-36.3,35.645 -42.117,16.724 -42.669,14.805L-23.182,2.079C-23.124,2.05 -23.08,1.978 -23.08,1.905L-23.08,-4.64C-23.08,-6.312 -23.807,-7.854 -25.087,-8.872C-26.294,-9.831 -27.836,-10.195 -29.304,-9.861C-40.561,-7.316 -62.099,-3.811 -80.86,-8.726C-71.465,-12.275 -62.87,-17.452 -55.322,-24.127C-49.708,-29.087 -44.749,-34.831 -40.575,-41.186C-36.052,-41.259 -14.63,-40.576 -4.843,-24.244C-1.498,-18.659 0,-12.9 0,-5.614" style="fill:rgb(0,10,160);fill-rule:nonzero;"/>
        </g>
        <g transform="matrix(1,0,0,1,611.16,445.395)">
            <path d="M0,-28.564C-1.687,-28.259 -4.159,-28.142 -6.85,-29.16C-8.537,-29.8 -10.064,-30.775 -11.387,-32.069C-11.445,-32.127 -11.547,-32.156 -11.62,-32.113C-11.707,-32.084 -11.765,-32.011 -11.765,-31.923C-12.274,-21.234 -15.067,-5.339 -25.567,9.684C-46.843,40.196 -80.06,42.639 -81.456,42.726C-81.558,42.726 -81.645,42.814 -81.66,42.915C-81.791,43.919 -81.922,44.937 -82.052,45.97C-83.565,57.517 -85.266,70.606 -81.485,86.21C-80.627,89.701 -79.609,93.206 -78.431,96.623C-78.402,96.711 -78.315,96.769 -78.227,96.769C-71.596,96.769 -66.244,98.776 -62.346,102.717C-55.86,109.276 -55.395,119.267 -55.366,120.881L-97.468,120.881C-98.937,111.734 -108.128,97.554 -108.768,96.58C-109.51,76.99 -112.273,57.517 -117,38.712C-119.239,29.739 -121.973,20.781 -125.115,12.084C-125.158,11.982 -125.26,11.924 -125.376,11.953C-125.493,11.968 -125.565,12.084 -125.551,12.2C-124.635,19.356 -124.431,26.613 -124.94,33.753C-125.173,37.026 -125.565,40.341 -126.089,43.584C-130.99,43.555 -135.877,42.988 -140.574,41.883C-150.172,39.629 -156.717,35.775 -159.858,33.928C-160.193,33.724 -160.498,33.55 -160.745,33.404C-171.362,27.354 -188.566,28.052 -211.908,35.484C-200.259,20.461 -204.826,-0.83 -204.869,-1.048C-204.884,-1.15 -204.986,-1.223 -205.087,-1.223C-205.189,-1.223 -205.276,-1.15 -205.306,-1.048C-209.159,16.156 -216.533,30.874 -227.207,42.712C-236.53,53.052 -248.048,60.716 -261.442,65.501C-261.529,65.53 -261.587,65.603 -261.587,65.69C-262.067,72.045 -261.384,78.328 -259.566,84.334C-258.286,88.566 -256.454,92.609 -254.112,96.362C-254.069,96.42 -253.996,96.463 -253.923,96.463C-247.103,96.463 -241.663,98.514 -237.751,102.542C-231.309,109.189 -231.032,119.281 -231.032,120.881L-279.505,120.881C-280.406,115.151 -281.511,109.407 -282.791,103.793C-286.558,87.257 -292.026,70.984 -299.051,55.437C-287.998,46.609 -273.018,31.136 -264.074,7.474C-260.613,-1.645 -258.344,-11.272 -257.326,-21.118C-257.312,-21.234 -257.399,-21.336 -257.515,-21.351C-261.631,-22.165 -265.601,-23.125 -269.295,-24.216C-283.097,-28.302 -298.745,-32.942 -303.501,-44.794C-306.904,-53.302 -304.053,-64.093 -296.709,-70.448C-283.068,-82.272 -258.359,-77.109 -232.21,-71.655C-211.501,-67.336 -188.028,-62.435 -178.968,-70.041C-171.973,-75.916 -176.263,-87.638 -178.502,-91.652C-187.461,-107.693 -217.798,-111.198 -232.574,-110.806C-238.435,-110.645 -244.31,-109.875 -250.04,-108.522C-250.113,-108.508 -250.186,-108.449 -250.2,-108.377C-252.105,-102.123 -255.218,-98.138 -259.45,-96.51C-262.722,-95.244 -265.718,-95.666 -269.499,-96.19C-272.858,-96.67 -276.669,-97.193 -281.672,-96.699C-286.863,-96.175 -291.924,-94.677 -296.738,-92.249C-292.143,-98.895 -286.151,-104.552 -278.908,-109.075C-274.167,-112.027 -268.932,-114.456 -263.362,-116.259C-253.53,-119.808 -243.278,-121.742 -232.865,-122.033C-227.804,-122.164 -182.938,-122.629 -168.7,-97.12C-162.636,-86.271 -160.993,-70.463 -171.74,-61.446C-184.974,-50.321 -209.043,-55.353 -234.508,-60.661C-255.785,-65.111 -279.912,-70.143 -289.365,-61.955C-293.655,-58.232 -294.484,-52.488 -293.073,-48.968C-290.208,-41.827 -280.537,-38.802 -266.096,-34.992C-254.927,-32.04 -243.161,-30.237 -232.094,-29.771C-219.689,-29.248 -210.308,-30.237 -202.775,-31.036L-201.888,-31.124C-184.858,-32.927 -172.554,-34.236 -158.113,-40.751C-150.303,-44.285 -142.901,-48.808 -136.095,-54.189C-136.022,-54.247 -135.993,-54.364 -136.036,-54.451C-136.065,-54.553 -136.167,-54.611 -136.269,-54.582C-138.044,-54.305 -139.847,-54.32 -141.621,-54.625C-143.395,-54.931 -145.111,-55.512 -146.697,-56.371C-141.723,-62.086 -137.491,-68.441 -134.146,-75.277C-132.023,-79.596 -130.234,-84.163 -128.838,-88.831C-128.808,-88.918 -128.838,-89.02 -128.925,-89.078C-128.998,-89.136 -129.099,-89.136 -129.187,-89.078C-130.248,-88.307 -131.412,-87.696 -132.634,-87.231C-134.248,-86.62 -135.935,-86.286 -137.68,-86.257C-135.571,-89.383 -133.608,-92.67 -131.834,-96.03C-126.104,-106.864 -123.064,-114.15 -120.839,-119.473C-118.367,-125.392 -116.738,-129.304 -113.349,-133.566C-104.849,-144.254 -84.945,-149.017 -71.538,-149.141C-65.73,-149.195 -38.816,-149.445 -27.011,-132.578C-24.393,-128.838 -24.625,-127.265 -19.938,-114.286C-15.306,-101.46 -10.859,-91.306 -7.824,-84.73C-9.715,-84.657 -11.62,-84.991 -13.38,-85.733C-14.979,-86.417 -16.434,-87.406 -17.684,-88.685C-17.757,-88.744 -17.859,-88.773 -17.946,-88.729C-18.034,-88.685 -18.077,-88.598 -18.077,-88.511C-17.088,-76.484 -14.659,-64.617 -10.864,-53.258C-8.013,-44.722 -4.363,-36.417 0,-28.564" style="fill:rgb(0,10,160);fill-rule:nonzero;"/>
        </g>
        <g transform="matrix(1,0,0,1,573.028,357.509)">
            <path d="M0,1.062C-0.8,3.825 -3.985,4.741 -7.068,5.628C-10.02,6.487 -12.813,7.286 -13.671,9.613C-14.63,12.231 -12.405,14.922 -10.049,17.757C-6.981,21.466 -3.796,25.291 -6.515,29.683C-8.668,33.159 -13.802,34.671 -17.728,33.028C-18.252,32.795 -18.819,32.548 -19.401,32.257C-23.08,30.439 -31.69,26.207 -31.37,20.564C-31.282,19.183 -30.657,17.801 -29.523,16.463L-23.72,11.257C-23.473,10.937 -22.964,10.093 -23.269,9.308C-23.544,8.6 -24.349,8.308 -24.898,8.145C-27.604,7.338 -30.939,7.49 -33.231,7.49C-35.479,7.49 -38.737,7.343 -41.433,8.145C-41.971,8.304 -42.788,8.594 -43.062,9.308C-43.353,10.064 -42.902,10.864 -42.582,11.3L-36.823,16.449C-35.66,17.801 -35.034,19.183 -34.962,20.564C-34.642,26.207 -43.251,30.439 -46.916,32.257C-47.498,32.548 -48.065,32.795 -48.603,33.028C-52.53,34.671 -57.664,33.159 -59.802,29.683C-62.521,25.291 -59.351,21.466 -56.282,17.757C-53.911,14.922 -51.686,12.231 -52.661,9.613C-53.519,7.286 -56.311,6.487 -59.263,5.628C-62.347,4.741 -65.531,3.825 -66.317,1.062C-66.942,-1.09 -66.04,-3.97 -65.604,-5.352C-65.081,-7.039 -64.295,-8.638 -63.263,-10.107L-54.973,-6.442C-53.911,-5.962 -52.763,-5.73 -51.585,-5.73L-47.222,-5.73C-46.611,-5.73 -46.058,-5.308 -45.884,-4.697L-44.371,0.96C-44.342,1.047 -44.269,1.12 -44.182,1.12C-44.095,1.135 -43.993,1.076 -43.949,1.004C-42.742,-1.498 -42.233,-4.203 -42.51,-6.82C-42.582,-7.649 -42.742,-8.464 -43.004,-9.351C-43.295,-10.354 -44.095,-11.154 -45.127,-11.46L-50.537,-13.089C-51.657,-13.438 -52.864,-13.539 -54.042,-13.379L-61.139,-12.434C-61.547,-12.39 -61.954,-12.521 -62.245,-12.798C-62.536,-13.089 -62.696,-13.496 -62.652,-13.903C-62.463,-16.041 -62.186,-18.179 -61.823,-20.273C-60.979,-25.101 -60.281,-26.308 -59.627,-27.123C-59.307,-27.53 -58.449,-28.621 -54.682,-30.438C-52.603,-31.442 -49.898,-32.286 -46.756,-33.274L-45.724,-33.609C-42.83,-31.486 -40.11,-29.115 -37.652,-26.541C-36.125,-24.956 -34.685,-23.254 -33.333,-21.509C-33.304,-21.451 -33.231,-21.422 -33.158,-21.422C-33.115,-21.436 -33.028,-21.451 -32.984,-21.509C-31.413,-23.487 -29.712,-25.407 -27.923,-27.195C-25.654,-29.493 -23.182,-31.646 -20.593,-33.609C-17.466,-32.853 -14.456,-31.791 -11.649,-30.438C-7.868,-28.621 -7.01,-27.53 -6.69,-27.123C-6.05,-26.308 -5.352,-25.101 -4.508,-20.273C-4.145,-18.179 -3.854,-16.041 -3.665,-13.903C-3.636,-13.496 -3.781,-13.089 -4.087,-12.798C-4.378,-12.521 -4.785,-12.39 -5.192,-12.434L-12.289,-13.379C-13.452,-13.539 -14.674,-13.438 -15.794,-13.089L-21.204,-11.46C-22.237,-11.154 -23.036,-10.354 -23.327,-9.351C-23.574,-8.478 -23.734,-7.649 -23.822,-6.82C-24.084,-4.203 -23.589,-1.498 -22.367,1.004C-22.324,1.076 -22.237,1.135 -22.149,1.12C-22.047,1.12 -21.975,1.047 -21.946,0.96L-20.433,-4.697C-20.273,-5.308 -19.721,-5.73 -19.095,-5.73L-14.747,-5.73C-13.554,-5.73 -12.42,-5.962 -11.358,-6.442L-3.069,-10.107C-2.036,-8.638 -1.251,-7.039 -0.727,-5.352C-0.291,-3.97 0.611,-1.09 0,1.062" style="fill:rgb(255,29,109);fill-rule:nonzero;"/>
        </g>
        <g transform="matrix(1,0,0,1,551.257,398.158)">
            <path d="M0,-2.574C0.262,0.306 -2.501,3.214 -3.694,4.32C-5.221,5.73 -6.457,6.53 -7.17,6.937C-7.475,5.847 -7.97,4.814 -8.609,3.883C-9.337,2.865 -10.224,1.978 -11.271,1.28C-11.329,1.236 -11.402,1.236 -11.46,1.251C-11.533,1.28 -11.576,1.338 -11.605,1.396C-11.925,2.429 -12.391,3.403 -12.987,4.29C-13.671,5.323 -14.499,6.225 -15.474,6.995C-16.492,6.254 -23.065,1.396 -22.774,-2.588C-22.527,-6.035 -16.783,-9.569 -11.387,-9.569L-11.358,-9.569C-6.399,-9.569 -0.364,-6.53 0,-2.574" style="fill:rgb(255,29,109);fill-rule:nonzero;"/>
        </g>
    </g>
</svg>
