<?xml version="1.0" encoding="UTF-8" standalone="no"?>
<!DOCTYPE svg PUBLIC "-//W3C//DTD SVG 1.1//EN" "http://www.w3.org/Graphics/SVG/1.1/DTD/svg11.dtd">
<svg width="100%" height="100%" viewBox="0 0 800 800" version="1.1" xmlns="http://www.w3.org/2000/svg" xmlns:xlink="http://www.w3.org/1999/xlink" xml:space="preserve" xmlns:serif="http://www.serif.com/" style="fill-rule:evenodd;clip-rule:evenodd;stroke-linejoin:round;stroke-miterlimit:2;">
    <g transform="matrix(0.296914,0,0,0.296914,181.02,181.02)">
        <g id="Layer-1" serif:id="Layer 1">
            <g transform="matrix(0,-1,-1,0,737.521,41.415)">
                <path d="M-696.105,-696.105C-1080.55,-696.105 -1392.21,-384.448 -1392.21,0C-1392.21,384.448 -1080.55,696.105 -696.105,696.105C-311.657,696.105 0,384.448 0,0C0,-384.448 -311.657,-696.105 -696.105,-696.105" style="fill:rgb(248,186,23);fill-rule:nonzero;"/>
            </g>
            <g transform="matrix(1,0,0,1,737.52,1419.82)">
                <path d="M0,-1364.61C-92.117,-1364.61 -181.47,-1346.57 -265.579,-1311C-346.826,-1276.63 -419.796,-1227.43 -482.462,-1164.77C-545.128,-1102.1 -594.327,-1029.13 -628.691,-947.883C-664.266,-863.774 -682.304,-774.42 -682.304,-682.303C-682.304,-590.187 -664.266,-500.834 -628.691,-416.724C-594.326,-335.478 -545.128,-262.508 -482.462,-199.842C-419.796,-137.176 -346.826,-87.977 -265.579,-53.613C-181.47,-18.038 -92.117,0 0,0C92.117,0 181.47,-18.038 265.579,-53.613C346.826,-87.977 419.795,-137.176 482.461,-199.842C545.127,-262.508 594.327,-335.478 628.691,-416.724C664.266,-500.834 682.304,-590.187 682.304,-682.303C682.304,-774.42 664.266,-863.774 628.691,-947.883C594.327,-1029.13 545.127,-1102.1 482.461,-1164.77C419.795,-1227.43 346.826,-1276.63 265.579,-1311C181.47,-1346.57 92.117,-1364.61 0,-1364.61M0,27.602C-95.831,27.602 -188.802,8.83 -276.332,-28.191C-360.868,-63.948 -436.787,-115.132 -501.979,-180.325C-567.171,-245.516 -618.356,-321.435 -654.112,-405.972C-691.134,-493.502 -709.906,-586.473 -709.906,-682.303C-709.906,-778.134 -691.134,-871.106 -654.112,-958.635C-618.356,-1043.17 -567.171,-1119.09 -501.979,-1184.28C-436.787,-1249.48 -360.868,-1300.66 -276.332,-1336.42C-188.802,-1373.44 -95.831,-1392.21 0,-1392.21C95.831,-1392.21 188.802,-1373.44 276.332,-1336.42C360.869,-1300.66 436.787,-1249.48 501.979,-1184.28C567.171,-1119.09 618.356,-1043.17 654.112,-958.635C691.134,-871.106 709.906,-778.134 709.906,-682.303C709.906,-586.473 691.134,-493.502 654.112,-405.972C618.356,-321.435 567.171,-245.516 501.979,-180.325C436.787,-115.132 360.869,-63.948 276.332,-28.191C188.802,8.83 95.831,27.602 0,27.602" style="fill-rule:nonzero;"/>
            </g>
            <g transform="matrix(1,0,0,1,737.52,1449.06)">
                <path d="M0,-1423.09C-96.05,-1423.09 -189.236,-1404.27 -276.969,-1367.16C-361.701,-1331.32 -437.794,-1280.02 -503.137,-1214.68C-568.478,-1149.34 -619.781,-1073.24 -655.62,-988.512C-692.727,-900.778 -711.542,-807.592 -711.542,-711.542C-711.542,-615.492 -692.727,-522.307 -655.62,-434.574C-619.781,-349.842 -568.478,-273.748 -503.137,-208.406C-437.794,-143.064 -361.7,-91.762 -276.969,-55.924C-189.237,-18.815 -96.051,-0.001 0,-0.001C96.051,-0.001 189.237,-18.815 276.968,-55.924C361.7,-91.761 437.793,-143.064 503.136,-208.406C568.478,-273.748 619.781,-349.841 655.619,-434.574C692.727,-522.306 711.542,-615.491 711.542,-711.542C711.542,-807.593 692.727,-900.779 655.619,-988.512C619.781,-1073.24 568.478,-1149.34 503.136,-1214.68C437.793,-1280.02 361.7,-1331.32 276.968,-1367.16C189.236,-1404.27 96.05,-1423.09 0,-1423.09M0,24.354C-99.328,24.354 -195.706,4.892 -286.457,-33.492C-374.091,-70.559 -452.787,-123.614 -520.358,-191.186C-587.928,-258.755 -640.983,-337.451 -678.05,-425.086C-716.435,-515.838 -735.897,-612.215 -735.897,-711.542C-735.897,-810.869 -716.435,-907.248 -678.05,-997.999C-640.983,-1085.63 -587.928,-1164.33 -520.358,-1231.9C-452.787,-1299.47 -374.091,-1352.53 -286.457,-1389.59C-195.705,-1427.98 -99.327,-1447.44 0,-1447.44C99.328,-1447.44 195.706,-1427.98 286.457,-1389.59C374.09,-1352.53 452.786,-1299.47 520.357,-1231.9C587.928,-1164.33 640.984,-1085.63 678.05,-997.999C716.434,-907.249 735.897,-810.871 735.897,-711.542C735.897,-612.214 716.434,-515.836 678.049,-425.086C640.984,-337.451 587.928,-258.755 520.357,-191.186C452.786,-123.613 374.09,-70.559 286.457,-33.492C195.707,4.892 99.329,24.354 0,24.354" style="fill:rgb(248,186,23);fill-rule:nonzero;"/>
            </g>
            <g transform="matrix(-1,0,0,1,1471.29,-1.232)">
                <rect x="44.335" y="616.462" width="1382.62" height="243.348" style="fill:rgb(0,142,72);"/>
            </g>
            <g transform="matrix(0.841903,-0.539629,-0.539629,-0.841903,390.982,1118.47)">
                <path d="M-72.676,-22.657C-102.678,67.149 -108.769,161.012 -90.29,248.785L-72.676,245.077C-90.497,160.43 -84.593,69.823 -55.603,-16.954L-72.676,-22.657Z" style="fill-rule:nonzero;"/>
            </g>
            <g transform="matrix(-0.62753,-0.778593,-0.778593,0.62753,1343.72,1051.73)">
                <path d="M34.325,241.827L52.324,241.827C52.325,150.335 75.436,62.525 119.161,-12.111L103.63,-21.209C58.29,56.183 34.325,147.139 34.325,241.827" style="fill-rule:nonzero;"/>
            </g>
            <g transform="matrix(-1,0,0,1,1471.61,-107.483)">
                <rect x="34.896" y="770.697" width="1401.82" height="41.129"/>
            </g>
            <g transform="matrix(-1,0,0,1,1485.32,105.019)">
                <rect x="41.751" y="664.446" width="1401.82" height="41.129"/>
            </g>
            <g transform="matrix(1,0,0,1,737.52,1419.82)">
                <path d="M0,-1364.61C-92.117,-1364.61 -181.47,-1346.57 -265.579,-1311C-346.826,-1276.63 -419.796,-1227.43 -482.462,-1164.77C-545.128,-1102.1 -594.327,-1029.13 -628.691,-947.883C-664.266,-863.774 -682.304,-774.42 -682.304,-682.303C-682.304,-590.187 -664.266,-500.834 -628.691,-416.724C-594.326,-335.478 -545.128,-262.508 -482.462,-199.842C-419.796,-137.176 -346.826,-87.977 -265.579,-53.613C-181.47,-18.038 -92.117,0 0,0C92.117,0 181.47,-18.038 265.579,-53.613C346.826,-87.977 419.795,-137.176 482.461,-199.842C545.127,-262.508 594.327,-335.478 628.691,-416.724C664.266,-500.834 682.304,-590.187 682.304,-682.303C682.304,-774.42 664.266,-863.774 628.691,-947.883C594.327,-1029.13 545.127,-1102.1 482.461,-1164.77C419.795,-1227.43 346.826,-1276.63 265.579,-1311C181.47,-1346.57 92.117,-1364.61 0,-1364.61M0,27.602C-95.831,27.602 -188.802,8.83 -276.332,-28.191C-360.868,-63.948 -436.787,-115.132 -501.979,-180.325C-567.171,-245.516 -618.356,-321.435 -654.112,-405.972C-691.134,-493.502 -709.906,-586.473 -709.906,-682.303C-709.906,-778.134 -691.134,-871.106 -654.112,-958.635C-618.356,-1043.17 -567.171,-1119.09 -501.979,-1184.28C-436.787,-1249.48 -360.868,-1300.66 -276.332,-1336.42C-188.802,-1373.44 -95.831,-1392.21 0,-1392.21C95.831,-1392.21 188.802,-1373.44 276.332,-1336.42C360.869,-1300.66 436.787,-1249.48 501.979,-1184.28C567.171,-1119.09 618.356,-1043.17 654.112,-958.635C691.134,-871.106 709.906,-778.134 709.906,-682.303C709.906,-586.473 691.134,-493.502 654.112,-405.972C618.356,-321.435 567.171,-245.516 501.979,-180.325C436.787,-115.132 360.869,-63.948 276.332,-28.191C188.802,8.83 95.831,27.602 0,27.602" style="fill-rule:nonzero;"/>
            </g>
            <g transform="matrix(1,0,0,1,737.52,1447.44)">
                <path d="M0,-1419.84C-95.832,-1419.84 -188.805,-1401.06 -276.337,-1364.04C-360.875,-1328.29 -436.795,-1277.1 -501.988,-1211.91C-567.181,-1146.71 -618.367,-1070.79 -654.125,-986.254C-691.146,-898.722 -709.918,-805.749 -709.918,-709.917C-709.918,-614.086 -691.146,-521.113 -654.125,-433.581C-618.367,-349.042 -567.181,-273.122 -501.988,-207.93C-436.794,-142.735 -360.875,-91.55 -276.337,-55.794C-188.806,-18.772 -95.833,0.001 0,0.001C95.833,0.001 188.806,-18.772 276.336,-55.794C360.874,-91.55 436.793,-142.735 501.988,-207.93C567.181,-273.122 618.367,-349.042 654.124,-433.581C691.146,-521.111 709.918,-614.085 709.918,-709.917C709.918,-805.75 691.146,-898.723 654.124,-986.254C618.367,-1070.79 567.181,-1146.71 501.988,-1211.91C436.794,-1277.1 360.875,-1328.29 276.336,-1364.04C188.805,-1401.06 95.832,-1419.84 0,-1419.84M0,27.602C-99.547,27.602 -196.137,8.097 -287.089,-30.372C-374.917,-67.52 -453.786,-120.692 -521.506,-188.412C-589.225,-256.131 -642.397,-335 -679.546,-422.829C-718.015,-513.781 -737.521,-610.372 -737.521,-709.917C-737.521,-809.463 -718.015,-906.054 -679.546,-997.006C-642.397,-1084.84 -589.225,-1163.7 -521.506,-1231.42C-453.787,-1299.14 -374.917,-1352.32 -287.089,-1389.46C-196.137,-1427.93 -99.546,-1447.44 0,-1447.44C99.546,-1447.44 196.136,-1427.93 287.088,-1389.46C374.917,-1352.32 453.786,-1299.14 521.505,-1231.42C589.225,-1163.7 642.397,-1084.84 679.545,-997.006C718.014,-906.055 737.52,-809.464 737.52,-709.917C737.52,-610.37 718.014,-513.78 679.545,-422.829C642.397,-335 589.225,-256.131 521.505,-188.412C453.785,-120.692 374.916,-67.52 287.088,-30.372C196.137,8.097 99.546,27.602 0,27.602" style="fill:rgb(248,186,23);fill-rule:nonzero;"/>
            </g>
            <g transform="matrix(0,-1,-1,0,737.52,253.033)">
                <path d="M-484.487,-484.488C-752.062,-484.488 -968.975,-267.576 -968.975,-0C-968.975,267.575 -752.062,484.487 -484.487,484.487C-216.912,484.487 -0,267.575 -0,-0C-0,-267.576 -216.912,-484.488 -484.487,-484.488" style="fill:rgb(0,142,72);fill-rule:nonzero;"/>
            </g>
            <g transform="matrix(1,0,0,1,948.286,823.502)">
                <path d="M0,-9.577C-2.981,-8.765 -7.019,-9.768 -9.96,-11.189C-47.419,-29.293 -84.754,-47.651 -122.152,-65.88C-130.033,-69.722 -124.624,-75.189 -124.505,-81.417C-102.452,-79.176 -81.665,-76.738 -60.818,-75.031C-37.034,-73.084 -13.182,-71.963 10.604,-70.038C14.507,-69.722 19.023,-68 21.894,-65.415C35.45,-53.207 48.533,-40.474 62.219,-27.517C40.717,-21.246 20.432,-15.143 0,-9.577M-191.825,-183.662C-181.528,-209.261 -175.357,-235.475 -146.555,-245.733C-142.23,-220.132 -157.25,-199.367 -191.825,-183.662M-208.101,230.376C-223.348,230.376 -238.694,230.644 -254.015,230.146C-257.014,230.049 -260.352,227.451 -262.779,225.196C-269.701,218.765 -276.233,211.916 -284.558,203.592M-267.092,-244.098C-247.417,-245.629 -229.247,-215.528 -222.734,-184.59C-252.63,-195.866 -268.386,-217.003 -267.092,-244.098M-302.919,-112.372C-340.439,-110.675 -378.08,-110.071 -415.411,-106.384C-438.449,-104.108 -460.605,-108.638 -483.172,-109.505C-509.309,-110.51 -535.365,-113.587 -561.461,-115.697C-570.452,-116.423 -579.487,-116.697 -588.441,-117.72C-590.953,-118.007 -593.971,-119.655 -595.532,-121.641C-635.325,-172.278 -662.52,-228.95 -677.103,-292.28C-657.063,-293.745 -639.845,-288.254 -622.584,-280.436C-520.534,-234.218 -418.205,-188.616 -315.988,-142.766C-305.937,-138.257 -296.009,-133.475 -286.171,-128.888C-287.781,-112.808 -287.792,-113.057 -302.919,-112.372M-297.69,-62.179C-332.138,-45.879 -366.166,-28.687 -400.646,-12.457C-405.589,-10.131 -412.558,-9.719 -417.91,-11.084C-436.919,-15.933 -455.634,-21.935 -475.614,-27.841C-460.499,-41.699 -445.798,-55.228 -430.99,-68.638C-430.054,-69.485 -428.303,-69.622 -426.902,-69.738C-382.539,-73.422 -338.173,-77.065 -293.806,-80.69C-292.684,-80.782 -291.54,-80.606 -290.493,-80.558C-284.465,-70.301 -289.183,-66.205 -297.69,-62.179M285.868,-207.018C302.427,-247.509 313.872,-291.338 316.604,-338.1C312.96,-338.1 310.386,-338.229 307.828,-338.08C286.898,-336.864 265.914,-336.177 245.058,-334.18C224.396,-332.202 204.513,-329.343 184.844,-319.522C90.81,-272.568 -4.147,-227.461 -98.788,-181.721C-111.314,-175.667 -123.906,-169.751 -135.207,-164.372C-140.686,-169.175 -145.235,-173.161 -149.796,-177.159C-108.853,-215.021 -114.465,-265.606 -157.767,-279.462C-146.062,-297.706 -134.834,-315.552 -123.145,-333.091C-121.18,-336.039 -117.47,-338.94 -114.123,-339.593C-109.049,-340.582 -101.791,-341.717 -98.613,-339.043C-87.305,-329.53 -72.662,-323.779 -65.314,-309.513C-61.488,-302.085 -53.909,-300.85 -46.212,-302.849C-39.272,-304.652 -34.164,-312.415 -34.911,-319.634C-35.73,-327.543 -39.835,-332.272 -48.137,-333.411C-51.659,-333.893 -55.493,-335.189 -58.287,-337.302C-66.638,-343.622 -74.967,-350.085 -82.536,-357.298C-98.053,-372.089 -121.514,-367.918 -133.214,-356.019C-140.933,-348.168 -148.603,-339.979 -154.674,-330.862C-164.967,-315.403 -173.979,-299.091 -183.19,-283.705L-230.618,-283.705C-233.02,-288.332 -235.528,-293.59 -238.408,-298.635C-249.808,-318.602 -260.502,-339.091 -277.914,-354.827C-292.618,-368.115 -314.62,-372.172 -331.65,-356.444C-336.988,-351.513 -342.625,-346.789 -348.646,-342.747C-354.46,-338.843 -361.176,-336.295 -367.051,-332.469C-370.736,-330.069 -374.801,-326.973 -376.579,-323.194C-380.15,-315.603 -376.69,-307.487 -369.708,-303.816C-362.099,-299.814 -352.784,-303.387 -346.467,-310.321C-337.574,-320.085 -328.037,-329.465 -317.699,-337.649C-308.718,-344.759 -299.497,-343.82 -291.927,-335.209C-284.127,-326.336 -277.425,-316.362 -271.198,-306.28C-265.53,-297.102 -261.144,-287.132 -255.987,-277.112C-295.567,-268.091 -307.228,-215.34 -262.323,-176.225C-266.139,-171.587 -269.962,-166.942 -274.084,-161.933C-291.993,-170.787 -309.918,-179.751 -327.93,-188.537C-423.469,-235.139 -519.017,-281.719 -614.625,-328.177C-618.154,-329.892 -622.287,-330.794 -626.224,-331.161C-645.359,-332.944 -664.51,-334.586 -683.679,-335.942C-698.349,-336.98 -713.053,-337.518 -728.63,-338.325C-727.343,-291.064 -713.235,-248.332 -698.997,-208.405C-673.06,-138.259 -628.501,-93.275 -626.703,-90.418C-614.058,-70.326 -602.202,-76.254 -567.213,-75.141C-538.549,-74.037 -510.871,-72.972 -483.194,-71.907C-482.343,-70.576 -481.491,-69.246 -480.64,-67.915C-500.883,-48.196 -521.125,-28.477 -541.548,-8.583C-540.474,-8.097 -539.234,-7.371 -537.898,-6.956C-495.629,6.18 -453.398,19.443 -410.999,32.147C-406.887,33.379 -401.009,32.424 -397.176,30.287C-368.93,14.541 -341.009,-1.787 -312.957,-17.881C-300.959,-24.765 -288.891,-31.527 -276.856,-38.345C-276.263,-37.941 -275.67,-37.536 -275.077,-37.132C-276.074,-34.927 -276.631,-32.328 -278.171,-30.61C-280.476,-28.038 -283.512,-26.133 -286.167,-23.863C-329.962,13.586 -366.388,58.106 -405.398,100.155C-410.482,105.635 -411.355,109.814 -407.975,116.835C-386.484,161.469 -371.999,208.279 -365.922,257.577C-364.354,270.304 -362.321,282.974 -360.501,295.67C-357.447,292.867 -356.274,289.989 -355.471,287.011C-340.178,230.292 -344.131,174.645 -364.769,119.908C-365.606,117.688 -366.734,114.185 -365.703,112.888C-360.362,106.171 -354.363,99.978 -347.393,92.278C-347.194,95.495 -347.044,96.822 -347.039,98.15C-346.885,143.553 -334.228,184.907 -306.424,221.087C-292.051,239.791 -275.063,255.472 -252.351,263.933C-249.963,264.823 -247.808,268.015 -246.782,270.626C-238.485,291.749 -230.837,313.133 -222.232,334.125C-218.338,343.623 -212.719,352.413 -207.314,362.595C-205.398,360.012 -204.352,359.012 -203.795,357.789C-193.198,334.499 -181.508,311.614 -172.543,287.707C-167.215,273.5 -162.249,260.943 -146.364,256.357C-144.753,255.891 -143.339,254.622 -141.929,253.594C-99.551,222.657 -77.351,179.692 -68.289,129.118C-66.333,118.196 -65.909,107 -64.763,95.774C-63.322,96.192 -62.583,96.175 -62.27,96.531C-57.849,101.564 -53.018,106.335 -49.321,111.862C-47.659,114.347 -46.991,118.884 -48.076,121.615C-69.932,176.666 -71.673,232.619 -56.263,289.433C-55.596,291.892 -54.238,294.164 -53.201,296.524C-51.091,294.059 -50.643,292.149 -50.498,290.217C-46.332,234.877 -35.567,180.898 -10.842,130.999C-2.113,113.385 -4.367,103.408 -17.445,89.527C-55.378,49.266 -90.653,6.481 -133.471,-29.01C-135.253,-30.488 -136.009,-33.204 -137.244,-35.343C-136.663,-35.899 -136.082,-36.455 -135.501,-37.011C-131.454,-34.968 -127.281,-33.137 -123.378,-30.848C-90.486,-11.558 -57.461,7.514 -24.906,27.359C-15.891,32.854 -7.8,34 2.181,30.879C43.313,18.018 84.62,5.713 125.848,-6.843C127.403,-7.317 128.81,-8.273 133.161,-10.429C111.32,-31.014 90.572,-50.568 68.581,-71.295C72.281,-71.975 73.122,-72.245 73.969,-72.268C114.177,-73.335 154.385,-74.477 194.598,-75.327C200.66,-75.455 204.887,-77.176 208.425,-82.363C215.755,-93.111 223.715,-103.431 232.897,-115.944C233.358,-112.082 286.577,-205.754 285.868,-207.018" style="fill-rule:nonzero;"/>
            </g>
            <g transform="matrix(1,0,0,1,1214.05,717.98)">
                <path d="M0,-186.393C-5.77,-167.759 -10.751,-149.856 -16.848,-132.341C-31.449,-90.399 -54.366,-52.979 -81.023,-17.761C-83.141,-14.964 -87.435,-12.55 -90.92,-12.241C-141.664,-7.746 -192.431,-3.484 -243.227,0.39C-250.913,0.977 -258.762,-0.824 -266.55,-1.264C-299.993,-3.15 -333.442,-4.926 -366.887,-6.777C-374.999,-7.226 -379.991,-8.831 -388.339,-9.368C-389.499,-14.603 -392.354,-16.227 -393.608,-21.883C-384.313,-26.046 -376.157,-32.428 -366.656,-36.634C-259.382,-84.118 -152.1,-131.583 -44.831,-179.078C-31.034,-185.187 -19.075,-187.37 0,-186.393" style="fill:white;fill-rule:nonzero;"/>
            </g>
            <g transform="matrix(1,0,0,1,271.183,717.929)">
                <path d="M0,-186.707C20.04,-188.172 37.258,-182.681 54.519,-174.863C156.569,-128.645 258.898,-83.043 361.114,-37.193C371.165,-32.684 381.093,-27.902 390.932,-23.315C389.322,-7.236 389.311,-7.484 374.183,-6.8C336.664,-5.102 299.023,-4.499 261.692,-0.811C238.654,1.465 216.497,-3.066 193.93,-3.933C167.794,-4.937 141.738,-8.014 115.641,-10.124C106.651,-10.851 97.615,-11.124 88.662,-12.148C86.15,-12.435 83.132,-14.082 81.571,-16.068C41.778,-66.705 14.582,-123.377 0,-186.707" style="fill:white;fill-rule:nonzero;"/>
            </g>
            <g transform="matrix(1,0,0,1,698.32,841.658)">
                <path d="M0,34.485C14.191,34.674 28.387,34.519 42.603,34.519L42.603,-0.672C30.252,-0.672 -38.981,-0.162 -38.981,-0.162L-65.247,35.157C-65.247,35.157 -13.339,34.307 0,34.485" style="fill:rgb(249,217,12);fill-rule:nonzero;"/>
            </g>
            <g transform="matrix(1,0,0,1,740.297,938.344)">
                <path d="M0,-32.383C0,-32.383 -40.704,-32.137 -57.321,-32.101C-61.575,-32.091 -109.19,-30.933 -109.19,-30.933L-109.19,0L1.265,0C1.265,-8.376 0.957,-15.896 1.357,-23.379C1.712,-30.01 0,-32.383 0,-32.383" style="fill:rgb(249,217,12);fill-rule:nonzero;"/>
            </g>
            <g transform="matrix(1,0,0,1,823.781,814.737)">
                <path d="M0,-72.652C22.053,-70.411 42.84,-67.973 63.687,-66.266C87.471,-64.319 111.322,-63.198 135.108,-61.273C139.012,-60.957 143.528,-59.234 146.398,-56.65C159.955,-44.442 173.038,-31.709 186.724,-18.752C165.222,-12.481 144.936,-6.378 124.505,-0.812C121.524,0 117.485,-1.003 114.544,-2.424C77.086,-20.527 39.75,-38.886 2.352,-57.115C-5.529,-60.957 -0.119,-66.424 0,-72.652" style="fill:white;fill-rule:nonzero;"/>
            </g>
            <g transform="matrix(1,0,0,1,657.793,813.559)">
                <path d="M0,-70.615C6.028,-60.358 1.31,-56.262 -7.197,-52.236C-41.646,-35.936 -75.673,-18.744 -110.153,-2.514C-115.096,-0.188 -122.065,0.224 -127.417,-1.141C-146.426,-5.99 -165.141,-11.992 -185.121,-17.898C-170.006,-31.756 -155.305,-45.285 -140.497,-58.695C-139.561,-59.542 -137.81,-59.679 -136.409,-59.795C-92.047,-63.479 -47.68,-67.122 -3.313,-70.747C-2.191,-70.839 -1.047,-70.662 0,-70.615" style="fill:white;fill-rule:nonzero;"/>
            </g>
            <g transform="matrix(1,0,0,1,693.921,664.527)">
                <path d="M0,115.55C-21.31,81.741 -18.082,29.824 8.445,-1.616C12.431,1.119 16.881,3.511 20.469,6.787C26.352,12.159 29.973,10.314 33.936,4.577C37.505,-0.589 42.001,-5.155 47.952,-8.984L47.952,124.534C26.737,105.719 15.364,81.409 7.13,41.073C4.753,53.427 1.434,65.698 0.263,78.157C-0.927,90.819 0,103.667 0,115.55" style="fill:rgb(249,217,12);fill-rule:nonzero;"/>
            </g>
            <g transform="matrix(1,0,0,1,789.32,664.527)">
                <path d="M0,115.55C21.31,81.741 18.082,29.824 -8.445,-1.616C-12.431,1.119 -16.881,3.511 -20.469,6.787C-26.352,12.159 -29.973,10.314 -33.936,4.577C-37.505,-0.589 -42.001,-5.155 -47.952,-8.984L-47.952,124.534C-26.737,105.719 -15.364,81.409 -7.13,41.073C-4.753,53.427 -1.434,65.698 -0.263,78.157C0.927,90.819 0,103.667 0,115.55" style="fill:rgb(249,217,12);fill-rule:nonzero;"/>
            </g>
            <g transform="matrix(1,0,0,1,635.154,997.871)">
                <path d="M0,-30.817L105.702,-30.817C105.702,-20.858 105.472,0 105.472,0C105.472,0 44.834,-0.295 17.777,-0.626C14.66,-0.664 10.111,-3.564 8.779,-6.355C5.24,-13.768 3.097,-21.848 0,-30.817" style="fill:rgb(249,217,12);fill-rule:nonzero;"/>
            </g>
            <g transform="matrix(1,0,0,1,740.956,1027.55)">
                <path d="M0,26.3C-15.247,26.3 -32.033,26.676 -47.354,26.178C-50.352,26.08 -53.691,23.483 -56.118,21.228C-63.039,14.797 -69.572,7.948 -77.896,-0.376L0,-0.376L0,26.3Z" style="fill:rgb(249,217,12);fill-rule:nonzero;"/>
            </g>
            <g transform="matrix(1,0,0,1,782.681,841.658)">
                <path d="M0,34.485C-14.191,34.674 -28.387,34.519 -42.603,34.519L-42.603,-0.672C-30.252,-0.672 38.981,-0.162 38.981,-0.162L65.247,35.157C65.247,35.157 13.339,34.307 0,34.485" style="fill:rgb(249,217,12);fill-rule:nonzero;"/>
            </g>
            <g transform="matrix(1,0,0,1,740.704,938.344)">
                <path d="M0,-32.383C0,-32.383 40.704,-32.137 57.321,-32.101C61.575,-32.091 109.19,-30.933 109.19,-30.933L109.19,0L-1.265,0C-1.265,-8.376 -0.957,-15.896 -1.357,-23.379C-1.712,-30.01 0,-32.383 0,-32.383" style="fill:rgb(249,217,12);fill-rule:nonzero;"/>
            </g>
            <g transform="matrix(1,0,0,1,845.847,997.871)">
                <path d="M0,-30.817L-105.702,-30.817C-105.702,-20.858 -105.472,0 -105.472,0C-105.472,0 -44.834,-0.295 -17.777,-0.626C-14.66,-0.664 -10.111,-3.564 -8.779,-6.355C-5.24,-13.768 -3.097,-21.848 0,-30.817" style="fill:rgb(249,217,12);fill-rule:nonzero;"/>
            </g>
            <g transform="matrix(1,0,0,1,740.046,1027.55)">
                <path d="M0,26.3C15.247,26.3 32.033,26.676 47.354,26.178C50.352,26.08 53.691,23.483 56.118,21.228C63.039,14.797 69.572,7.948 77.896,-0.376L0,-0.376L0,26.3Z" style="fill:rgb(249,217,12);fill-rule:nonzero;"/>
            </g>
            <g transform="matrix(1,0,0,1,725.551,577.873)">
                <path d="M0,61.039C-29.896,49.763 -45.651,28.626 -44.357,1.531C-24.682,0 -6.512,30.101 0,61.039" style="fill:white;fill-rule:nonzero;"/>
            </g>
            <g transform="matrix(1,0,0,1,756.461,577.769)">
                <path d="M0,62.071C10.297,36.473 16.468,10.259 45.27,0C49.595,25.601 34.575,46.367 0,62.071" style="fill:white;fill-rule:nonzero;"/>
            </g>
            <g transform="matrix(-0.992939,-0.118625,-0.118625,0.992939,659.391,973.84)">
                <path d="M-4.297,-149.115C-4.297,-149.115 20.046,-119.672 15.054,-61.231C10.062,-2.788 -4.297,0.803 -4.297,0.803C-4.297,0.803 14.252,-74.534 -20.853,-143.796C-23.001,-148.033 -4.297,-149.115 -4.297,-149.115" style="fill:white;fill-rule:nonzero;"/>
            </g>
            <g transform="matrix(1,0,0,1,208.242,367.919)">
                <path d="M0,12.409L45.542,17.122L27.055,-24.68L54.839,-62.768L84.928,19.259L113.65,40.211L88.143,75.177L59.421,54.224L-27.875,50.622L0,12.409Z" style="fill-rule:nonzero;"/>
            </g>
            <g transform="matrix(1,0,0,1,407.175,298.398)">
                <path d="M0,-29.471L-27.409,-44.959L-20.631,-14.215L0,-29.471ZM25.069,-15.327L-14.453,13.898L-10.433,32.072L-46.475,58.724L-67.557,-60.256L-29.775,-88.195L77.808,-33.179L41.269,-6.159L25.069,-15.327Z" style="fill-rule:nonzero;"/>
            </g>
            <g transform="matrix(1,0,0,1,625.245,247.354)">
                <path d="M0,-141.737L30.067,-37.799L-6.459,-27.232L-76.873,-68.169L-60.507,-11.597L-100.598,0L-130.665,-103.938L-86.714,-116.652L-25.615,-80.101L-40.09,-130.14L0,-141.737Z" style="fill-rule:nonzero;"/>
            </g>
            <g transform="matrix(-0.0161918,-0.999869,-0.999869,0.0161918,790.466,173.437)">
                <rect x="-33.34" y="32.805" width="108.203" height="43.281"/>
            </g>
            <g transform="matrix(1,0,0,1,950.161,167.963)">
                <path d="M0,-1.935L-39.51,-12.146L-58.657,61.934L-100.562,51.104L-81.414,-22.977L-120.924,-33.189L-112.994,-63.869L7.93,-32.615L0,-1.935Z" style="fill-rule:nonzero;"/>
            </g>
            <g transform="matrix(1,0,0,1,1094.63,194.844)">
                <path d="M0,106.917L-16.319,132.076L-118.771,65.62L-59.885,-25.159L41.14,40.372L24.819,65.53L-40.671,23.049L-46.139,31.479L6.513,65.632L-8.124,88.197L-60.776,54.043L-66.917,63.51L0,106.917Z" style="fill-rule:nonzero;"/>
            </g>
            <g transform="matrix(1,0,0,1,1215.53,351.806)">
                <path d="M0,49.179C11.003,40.664 10.737,27.187 -0.614,12.517L-11.968,-2.154L-46.688,24.714L-35.335,39.385C-23.982,54.055 -11.003,57.694 0,49.179M27.057,84.143C-0.205,105.241 -32.382,95.739 -58.493,61.996L-98.605,10.161L-13.028,-56.062L27.085,-4.227C53.195,29.515 54.319,63.047 27.057,84.143" style="fill-rule:nonzero;"/>
            </g>
            <g transform="matrix(1,0,0,1,474.584,1225.7)">
                <path d="M0,46.115L-6.619,58.03L-55.138,31.076L-31.255,-11.915L16.589,14.663L9.97,26.578L-21.046,9.347L-23.264,13.34L1.672,27.192L-4.265,37.879L-29.2,24.026L-31.691,28.51L0,46.115Z" style="fill-rule:nonzero;"/>
            </g>
            <g transform="matrix(1,0,0,1,559.647,1268.09)">
                <path d="M0,35.122C-3.823,45.395 -15.296,48.624 -32.616,42.18C-44.8,37.645 -54.449,30.531 -60.054,22.223L-47.456,15.364C-43.618,20.767 -36.612,26.522 -27.722,29.83C-22.321,31.84 -19.458,32.005 -18.846,30.358C-18.258,28.778 -19.767,27.393 -27.227,23.866C-41.315,17.199 -52.776,9.111 -48.757,-1.69C-44.91,-12.029 -31.541,-13.502 -16.262,-7.817C-6.713,-4.264 2.357,1.586 7.721,8.529L-4.441,15.625C-8.575,10.413 -14.103,6.932 -20.754,4.457C-24.771,2.962 -29.396,1.69 -30.059,3.469C-30.622,4.983 -27.632,6.621 -21.177,9.623C-5.927,16.797 4.19,23.86 0,35.122" style="fill-rule:nonzero;"/>
            </g>
            <g transform="matrix(1,0,0,1,645.447,1308.77)">
                <path d="M0,-4.207L-18.139,-8.078L-25.398,25.934L-44.637,21.827L-37.378,-12.185L-55.518,-16.056L-52.512,-30.141L3.006,-18.293L0,-4.207Z" style="fill-rule:nonzero;"/>
            </g>
            <g transform="matrix(-0.108167,0.994133,0.994133,0.108167,674.604,1324.42)">
                <path d="M10.409,-11.601C5.35,-11.602 1.414,-7.315 1.414,-1.132C1.414,5.051 5.349,9.338 10.409,9.339C15.468,9.339 19.403,5.052 19.403,-1.131C19.403,-7.314 15.468,-11.601 10.409,-11.601" style="fill-rule:nonzero;"/>
            </g>
            <g transform="matrix(1,0,0,1,780.75,1345.51)">
                <path d="M0,-51.773C12.263,-52.687 25.894,-49.404 26.733,-38.123C27.36,-29.714 20.168,-24.106 10.217,-20.546C4.246,-18.411 -1.822,-15.705 -3.211,-14.474L29.161,-16.884L30.184,-3.151L-24.399,0.914L-25.016,-7.354C-24.716,-17.522 -16.982,-26.271 -2.556,-31.221C2.665,-33.019 7.142,-34.409 7.001,-36.301C6.881,-37.913 3.584,-38.654 -0.06,-38.382C-5.595,-37.97 -11.729,-35.188 -16.85,-30.157L-27.426,-39.726C-22.028,-45.764 -11.841,-50.891 0,-51.773" style="fill-rule:nonzero;"/>
            </g>
            <g transform="matrix(1,0,0,1,881.357,1309.33)">
                <path d="M0,-5.423C-1.576,-12.27 -6.768,-15.401 -14.299,-13.666C-21.83,-11.933 -25.129,-6.847 -23.553,-0C-21.977,6.847 -16.786,9.976 -9.255,8.243C-1.724,6.509 1.576,1.424 0,-5.423M-42.997,4.475C-46.796,-12.025 -36.568,-23.968 -17.672,-28.319C1.226,-32.668 15.646,-26.4 19.444,-9.9C23.243,6.601 13.016,18.544 -5.881,22.894C-24.778,27.245 -39.198,20.976 -42.997,4.475" style="fill-rule:nonzero;"/>
            </g>
            <g transform="matrix(1,0,0,1,944.908,1307.83)">
                <path d="M0,-52.075C11.424,-56.625 25.412,-57.583 29.599,-47.074C32.719,-39.24 27.541,-31.732 19.115,-25.351C14.061,-21.522 9.083,-17.119 8.128,-15.529L38.286,-27.542L43.382,-14.747L-7.469,5.508L-10.537,-2.195C-13.302,-11.985 -8.55,-22.651 3.729,-31.702C8.169,-34.983 12.022,-37.652 11.32,-39.415C10.723,-40.917 7.355,-40.635 3.961,-39.282C-1.195,-37.228 -6.213,-32.734 -9.588,-26.397L-22.549,-32.353C-19.211,-39.733 -11.032,-47.68 0,-52.075" style="fill-rule:nonzero;"/>
            </g>
            <g transform="matrix(1,0,0,1,1036.17,1230.81)">
                <path d="M0,22.733C4.743,19.986 7.239,17.566 5.831,15.133C4.422,12.702 0.975,13.48 -3.768,16.226C-7.052,18.129 -11.112,21.212 -13.688,24.896L-27.915,27.532L-37.613,2.374L2.275,-20.729L8.967,-9.176L-18.214,6.566L-15.62,13.428C-13.563,8.989 -9.214,4.44 -3.681,1.235C4.954,-3.766 17.279,-5.058 23.23,5.218C27.95,13.367 26.009,24.316 7.22,35.198C-3.238,41.255 -12.517,43.462 -21.681,42.923L-19.805,28.357C-15.166,28.512 -7.296,26.959 0,22.733" style="fill-rule:nonzero;"/>
            </g>
        </g>
    </g>
</svg>
